<svg fill="none" xmlns="http://www.w3.org/2000/svg" viewBox="0 0 185 183">
  <path d="M184.405 38.8603c-.46-.5781-1.136-.943-1.87-1.0098L32.9156 24.2039c-.0838-2.0697-.9008-4.1151-2.4697-5.6917L14.5153 2.50288C12.9095.889245 10.7741 0 8.50278 0c-2.27131 0-4.4064.889245-6.01214 2.50288C.884532 4.11689 0 6.26284 0 8.54532s.884532 4.42808 2.49064 6.04208L18.4212 30.596c1.6058 1.614 3.7412 2.5029 6.0126 2.5029.8545 0 1.6899-.126 2.4852-.3689l22.6506 75.372c1.8446 6.138 7.3682 10.214 13.6546 10.214.3555 0 .7143-.013 1.0742-.039l102.4336-7.532c5.372-.395 9.776-4.577 10.472-9.944l7.773-59.8859c.096-.7346-.111-1.4764-.572-2.0548zM26.6133 26.7445c-.5825.585-1.3564.9074-2.1799.9074-.8235 0-1.5974-.3221-2.1799-.9074L6.32289 10.7356c-.58246-.585-.90296-1.36313-.90296-2.19028s.3205-1.60565.90296-2.19098c.58246-.58496 1.35642-.9074 2.17989-.9074.82347 0 1.59742.32244 2.17992.9074L26.6133 22.3633c1.2021 1.208 1.2021 3.1735 0 4.3812zm66.7088 8.4379l1.222 19.9243-25.3331-.9274-3.9974-21.5605 28.1085 2.5636zM31.6264 29.555l27.9794 2.5522 4.0545 21.8691-24.97-.9143-7.0639-23.507zm16.4718 54.8118l-7.7515-25.7939 24.3311.8907 4.5296 24.4319-21.1092.4713zm15.8042 28.4772c-4.177.307-7.9344-2.29-9.1445-6.317l-5.0333-16.7485 20.4888-.4575 4.2177 22.75-10.5287.773zm6.3261-53.1771l24.6506.9023 1.3936 22.7217-21.5749.4818-4.4693-24.1058zm9.6414 52.0031l-4.1665-22.4717 20.9025-.467 1.3253 21.6107-18.0613 1.328zm42.6351-3.135l-19.168 1.41-1.308-21.335 21.016-.4691-.54 20.3941zm.685-25.845l-21.494.48-1.374-22.4014 23.425.8573-.557 21.0641zm.702-26.5093l-23.9055-.875-1.2036-19.6252 25.5901 2.3341-.481 18.1661zm24.684 50.4373l-20.639 1.518.533-20.116 21.634-.4833-1.528 19.0813zm1.965-24.5388l-21.926.4895.549-20.7446 22.932.8395-1.555 19.4156zm1.99-24.8498l-23.223-.85.474-17.8714 24.072 2.1957-1.323 16.5257zm19.299 42.8676c-.365 2.815-2.676 5.008-5.493 5.216l-12.291.903 1.505-18.8009 17.977-.4016-1.698 13.0835zm2.407-18.5472l-18.249.4078 1.53-19.0954 19.055.6976-2.336 17.99zm3.039-23.4148l-19.324-.7074 1.3-16.2319 19.986 1.8232-1.962 15.1161z" fill="url(#paint0_linear)"/>
  <path d="M158.932 160.419v-6.526h5.979c1.497 0 2.71-1.22 2.71-2.724 0-1.504-1.213-2.723-2.71-2.723H52.0458c-1.0548 0-1.9931-.507-2.5738-1.392-.5806-.886-.6757-1.952-.2601-2.926l7.6547-17.949c.5897-1.383-.0477-2.984-1.4233-3.576-1.3756-.593-2.9686.047-3.5583 1.43l-7.6548 17.949c-1.1291 2.648-.861 5.665.7169 8.07 1.5779 2.405 4.2315 3.841 7.0987 3.841h2.9871v6.526c-4.9813 1.225-8.6893 5.747-8.6893 11.125 0 6.317 5.1136 11.456 11.3992 11.456 6.2857 0 11.3992-5.139 11.3992-11.456 0-5.378-3.7079-9.9-8.6892-11.125v-6.526h93.0592v6.526c-4.981 1.225-8.689 5.747-8.689 11.125 0 6.317 5.114 11.456 11.399 11.456 6.286 0 11.399-5.139 11.399-11.456 0-5.378-3.708-9.9-8.689-11.125zm-95.2099 11.125c0 3.313-2.6822 6.009-5.9793 6.009-3.2971 0-5.9792-2.696-5.9792-6.009s2.6821-6.009 5.9792-6.009c3.2971 0 5.9793 2.696 5.9793 6.009zm92.4999 6.009c-3.297 0-5.979-2.696-5.979-6.009s2.682-6.009 5.979-6.009 5.979 2.696 5.979 6.009-2.682 6.009-5.979 6.009z" fill="url(#paint1_linear)"/>
  <defs>
    <linearGradient id="paint0_linear" x1="157" y1="34" x2="24.5" y2="183" gradientUnits="userSpaceOnUse">
      <stop offset=".300514" stop-color="#8000FF"/>
      <stop offset="1" stop-color="#DA44FF"/>
    </linearGradient>
    <linearGradient id="paint1_linear" x1="157" y1="34" x2="24.5" y2="183" gradientUnits="userSpaceOnUse">
      <stop offset=".300514" stop-color="#8000FF"/>
      <stop offset="1" stop-color="#DA44FF"/>
    </linearGradient>
  </defs>
</svg>