<svg fill="none" xmlns="http://www.w3.org/2000/svg" viewBox="0 0 162 187">
  <path d="M79.79 93.4364c12.6912 0 23.679-4.5546 32.66-13.5408 8.978-8.9848 13.531-19.9783 13.531-32.6788 0-12.6962-4.552-23.6911-13.532-32.6788C103.468 5.55462 92.4798 1 79.79 1 67.0973 1 56.1106 5.55462 47.1313 14.5394c-8.9793 8.9848-13.5326 19.9798-13.5326 32.6774 0 12.7005 4.5533 23.6954 13.5326 32.6802 8.9822 8.9834 19.9704 13.5394 32.6587 13.5394zM55.0791 22.4906C61.969 15.5965 70.0513 12.2453 79.79 12.2453c9.7372 0 17.821 3.3512 24.712 10.2453 6.89 6.8956 10.241 14.9844 10.241 24.7262 0 9.7446-3.351 17.8319-10.241 24.7276C97.611 78.84 89.5272 82.1912 79.79 82.1912c-9.7357 0-17.8181-3.3527-24.7109-10.2468-6.8914-6.8942-10.242-14.983-10.242-24.7276 0-9.7418 3.3506-17.8306 10.242-24.7262z" fill="url(#paint0_linear)"/>
  <path d="M160.612 141.663c-.259-3.739-.783-7.818-1.554-12.125-.778-4.34-1.78-8.442-2.98-12.191-1.241-3.875-2.925-7.702-5.01-11.37-2.161-3.806-4.701-7.1209-7.551-9.8484-2.98-2.8535-6.63-5.1476-10.849-6.821-4.205-1.6646-8.865-2.5079-13.85-2.5079-1.958 0-3.851.8038-7.508 3.1858-2.25 1.4684-4.882 3.1667-7.82 5.045-2.512 1.6017-5.9156 3.1023-10.1192 4.461-4.1011 1.3275-8.2652 2.0015-12.3766 2.0015-4.1085 0-8.2726-.674-12.3767-2.0015-4.1992-1.3572-7.604-2.8579-10.1118-4.4595-2.9102-1.8608-5.5438-3.5591-7.8278-5.048-3.6534-2.382-5.5467-3.1858-7.5044-3.1858-4.9864 0-9.645.8448-13.8486 2.5109-4.2168 1.6704-7.8673 3.9646-10.8506 6.8209-2.8502 2.729-5.3902 6.042-7.5498 9.847-2.08208 3.668-3.76761 7.493-5.00836 11.371-1.19831 3.75-2.20056 7.85-2.97894 12.19-.77254 4.301-1.29488 8.382-1.55386 12.129C1.12876 145.332 1 149.146 1 152.999c0 10.017 3.18232 18.126 9.4577 24.107C16.6556 183.008 24.855 186 34.8292 186h92.3418c9.971 0 18.171-2.992 24.37-8.894 6.277-5.976 9.459-14.088 9.459-24.108-.001-3.867-.132-7.681-.388-11.335zm-16.82 27.296c-4.095 3.9-9.532 5.796-16.623 5.796H34.8292c-7.0918 0-12.5288-1.896-16.6227-5.795-4.0163-3.825-5.9681-9.048-5.9681-15.961 0-3.596.1185-7.146.3555-10.554.2312-3.344.7038-7.017 1.4046-10.92.6921-3.855 1.5729-7.473 2.6205-10.748 1.0052-3.14 2.3761-6.25 4.0763-9.245 1.6226-2.855 3.4896-5.305 5.5497-7.278 1.9269-1.846 4.3557-3.357 7.2176-4.4902 2.6469-1.0483 5.6214-1.6222 8.8506-1.7086.3936.2094 1.0944.6091 2.2298 1.3499 2.3103 1.5069 4.9732 3.2249 7.917 5.1069 3.3184 2.117 7.5937 4.029 12.7015 5.679 5.222 1.689 10.5478 2.547 15.8341 2.547 5.2863 0 10.6136-.858 15.8326-2.546 5.1118-1.653 9.3858-3.563 12.7088-5.683 3.013-1.927 5.601-3.596 7.911-5.1039 1.136-.7394 1.836-1.1405 2.23-1.3499 3.231.0864 6.205.6603 8.854 1.7086 2.86 1.1332 5.289 2.6452 7.216 4.4902 2.06 1.972 3.927 4.421 5.549 7.279 1.702 2.994 3.074 6.105 4.078 9.243 1.049 3.279 1.931 6.895 2.622 10.747.699 3.911 1.174 7.585 1.405 10.923v.003c.238 3.395.358 6.944.36 10.55-.002 6.915-1.954 12.136-5.97 15.96z" fill="url(#paint1_linear)"/>
  <path d="M79.79 93.4364c12.6912 0 23.679-4.5546 32.66-13.5408 8.978-8.9848 13.531-19.9783 13.531-32.6788 0-12.6962-4.552-23.6911-13.532-32.6788C103.468 5.55462 92.4798 1 79.79 1 67.0973 1 56.1106 5.55462 47.1313 14.5394c-8.9793 8.9848-13.5326 19.9798-13.5326 32.6774 0 12.7005 4.5533 23.6954 13.5326 32.6802 8.9822 8.9834 19.9704 13.5394 32.6587 13.5394zM55.0791 22.4906C61.969 15.5965 70.0513 12.2453 79.79 12.2453c9.7372 0 17.821 3.3512 24.712 10.2453 6.89 6.8956 10.241 14.9844 10.241 24.7262 0 9.7446-3.351 17.8319-10.241 24.7276C97.611 78.84 89.5272 82.1912 79.79 82.1912c-9.7357 0-17.8181-3.3527-24.7109-10.2468-6.8914-6.8942-10.242-14.983-10.242-24.7276 0-9.7418 3.3506-17.8306 10.242-24.7262z" stroke="#3B4255" stroke-width="1.8"/>
  <path d="M160.612 141.663c-.259-3.739-.783-7.818-1.554-12.125-.778-4.34-1.78-8.442-2.98-12.191-1.241-3.875-2.925-7.702-5.01-11.37-2.161-3.806-4.701-7.1209-7.551-9.8484-2.98-2.8535-6.63-5.1476-10.849-6.821-4.205-1.6646-8.865-2.5079-13.85-2.5079-1.958 0-3.851.8038-7.508 3.1858-2.25 1.4684-4.882 3.1667-7.82 5.045-2.512 1.6017-5.9156 3.1023-10.1192 4.461-4.1011 1.3275-8.2652 2.0015-12.3766 2.0015-4.1085 0-8.2726-.674-12.3767-2.0015-4.1992-1.3572-7.604-2.8579-10.1118-4.4595-2.9102-1.8608-5.5438-3.5591-7.8278-5.048-3.6534-2.382-5.5467-3.1858-7.5044-3.1858-4.9864 0-9.645.8448-13.8486 2.5109-4.2168 1.6704-7.8673 3.9646-10.8506 6.8209-2.8502 2.729-5.3902 6.042-7.5498 9.847-2.08208 3.668-3.76761 7.493-5.00836 11.371-1.19831 3.75-2.20056 7.85-2.97894 12.19-.77254 4.301-1.29488 8.382-1.55386 12.129C1.12876 145.332 1 149.146 1 152.999c0 10.017 3.18232 18.126 9.4577 24.107C16.6556 183.008 24.855 186 34.8292 186h92.3418c9.971 0 18.171-2.992 24.37-8.894 6.277-5.976 9.459-14.088 9.459-24.108-.001-3.867-.132-7.681-.388-11.335zm-16.82 27.296c-4.095 3.9-9.532 5.796-16.623 5.796H34.8292c-7.0918 0-12.5288-1.896-16.6227-5.795-4.0163-3.825-5.9681-9.048-5.9681-15.961 0-3.596.1185-7.146.3555-10.554.2312-3.344.7038-7.017 1.4046-10.92.6921-3.855 1.5729-7.473 2.6205-10.748 1.0052-3.14 2.3761-6.25 4.0763-9.245 1.6226-2.855 3.4896-5.305 5.5497-7.278 1.9269-1.846 4.3557-3.357 7.2176-4.4902 2.6469-1.0483 5.6214-1.6222 8.8506-1.7086.3936.2094 1.0944.6091 2.2298 1.3499 2.3103 1.5069 4.9732 3.2249 7.917 5.1069 3.3184 2.117 7.5937 4.029 12.7015 5.679 5.222 1.689 10.5478 2.547 15.8341 2.547 5.2863 0 10.6136-.858 15.8326-2.546 5.1118-1.653 9.3858-3.563 12.7088-5.683 3.013-1.927 5.601-3.596 7.911-5.1039 1.136-.7394 1.836-1.1405 2.23-1.3499 3.231.0864 6.205.6603 8.854 1.7086 2.86 1.1332 5.289 2.6452 7.216 4.4902 2.06 1.972 3.927 4.421 5.549 7.279 1.702 2.994 3.074 6.105 4.078 9.243 1.049 3.279 1.931 6.895 2.622 10.747.699 3.911 1.174 7.585 1.405 10.923v.003c.238 3.395.358 6.944.36 10.55-.002 6.915-1.954 12.136-5.97 15.96z" stroke="#3B4255" stroke-width="1.8"/>
  <defs>
    <linearGradient id="paint0_linear" x1="133.484" y1="-15.2637" x2="1.501" y2="204.597" gradientUnits="userSpaceOnUse">
      <stop stop-color="#DB0626"/>
      <stop offset="1" stop-color="#FF6B00"/>
    </linearGradient>
    <linearGradient id="paint1_linear" x1="133.484" y1="-15.2637" x2="1.501" y2="204.597" gradientUnits="userSpaceOnUse">
      <stop stop-color="#DB0626"/>
      <stop offset="1" stop-color="#FF6B00"/>
    </linearGradient>
  </defs>
</svg>