<svg width="62" height="83" fill="none" xmlns="http://www.w3.org/2000/svg"><path d="M29.302 71.544h-1.5v1.481l1.481.02.02-1.5zm0-5.58h1.5v-1.475l-1.473-.026-.027 1.5zm-8.414-2.431l-1.413-.505-.379 1.06.913.66.879-1.215zm1.324-3.702l.818-1.257-1.591-1.036-.64 1.788 1.413.505zm7.932 2.374l-.006 1.5h.006v-1.5zm.33-11.989l.566-1.39-.007-.002-.008-.003-.55 1.395zm-.768-18.459l.242 1.48 1.258-.205v-1.275h-1.5zm0-5.547v-1.5h-1.5v1.5h1.5zm3.417 0h1.5v-1.5h-1.5v1.5zm0 5.362h-1.5v1.49l1.49.01.01-1.5zm7.158 1.93l1.404.528.45-1.196-1.109-.634-.745 1.301zm-1.375 3.65l-.769 1.288 1.54.92.633-1.679-1.404-.528zm-6.944-1.879v1.5h.015l-.015-1.5zm.992 11.05l-.575 1.385.008.004.567-1.389zm-.162 19.522l-.25-1.479-1.25.21v1.27h1.5zm0 5.744l-.02 1.5 1.52.02v-1.52h-1.5zM48.28 14.201a1.5 1.5 0 1 0 0 3v-3zm12.072 1.5h1.5a1.5 1.5 0 0 0-1.5-1.5v1.5zm0 65.666v1.5a1.5 1.5 0 0 0 1.5-1.5h-1.5zM2 81.367H.5a1.5 1.5 0 0 0 1.5 1.5v-1.5zm0-65.666v-1.5a1.5 1.5 0 0 0-1.5 1.5H2zm12.072 1.5a1.5 1.5 0 0 0 0-3v3zm24.42-8.998a1.5 1.5 0 0 0 0 3v-3zm9.788 1.5h1.5a1.5 1.5 0 0 0-1.5-1.5v1.5zm0 11.928v1.5a1.5 1.5 0 0 0 1.5-1.5h-1.5zm-34.208 0h-1.5a1.5 1.5 0 0 0 1.5 1.5v-1.5zm0-11.928v-1.5a1.5 1.5 0 0 0-1.5 1.5h1.5zm9.79 1.5a1.5 1.5 0 0 0 0-3v3zm-1.478-1.5a1.5 1.5 0 1 0 3 0h-3zm8.815-7.336v-1.5 1.5zm5.815 7.336a1.5 1.5 0 1 0 3 0h-3zM7.842 26.182a1.5 1.5 0 1 0-3 0h3zm-3 26.29a1.5 1.5 0 0 0 3 0h-3zm7.375-26.29a1.5 1.5 0 1 0-3 0h3zm-3 15.218a1.5 1.5 0 1 0 3 0h-3zm21.585 30.144v-5.58h-3v5.58h3zm-1.473-7.08c-2.975-.053-5.958-.986-7.562-2.146l-1.758 2.43c2.222 1.608 5.847 2.655 9.267 2.715l.053-3zm-7.029-.426l1.324-3.702-2.825-1.01-1.323 3.702 2.824 1.01zm-.907-2.95a16.145 16.145 0 0 0 8.745 2.617l.012-3a13.145 13.145 0 0 1-7.12-2.131l-1.637 2.514zm8.75 2.617c2.243 0 4.244-.643 5.713-1.868 1.488-1.241 2.346-3.015 2.346-5.044h-3c0 1.133-.458 2.065-1.267 2.74-.829.69-2.107 1.172-3.791 1.172v3zm8.059-6.912c0-1.932-.706-3.536-2.019-4.86-1.258-1.271-3.035-2.248-5.143-3.106l-1.13 2.779c1.97.801 3.306 1.594 4.142 2.437.782.79 1.15 1.644 1.15 2.75h3zm-7.177-7.972c-2.755-1.086-4.803-2.187-6.157-3.49-1.291-1.244-1.98-2.698-1.98-4.679h-3c0 2.834 1.048 5.057 2.899 6.84 1.787 1.72 4.283 2.995 7.138 4.12l1.1-2.791zm-8.138-8.169c0-3.73 2.59-6.685 7.06-7.414l-.482-2.961c-5.672.925-9.578 4.935-9.578 10.375h3zm8.32-8.895V26.21h-3v5.547h3zm-1.5-4.047h3.416v-3h-3.417v3zm1.916-1.5v5.362h3V26.21h-3zm1.49 6.862c2.253.014 4.465.61 6.422 1.731l1.491-2.603a16.098 16.098 0 0 0-7.894-2.128l-.02 3zm5.764-.099l-1.375 3.651 2.808 1.057 1.374-3.651-2.807-1.057zm.799 2.892a14.777 14.777 0 0 0-7.73-2.091l.03 3a11.776 11.776 0 0 1 6.161 1.666l1.539-2.575zm-7.715-2.092c-2.428 0-4.294.735-5.56 1.974a5.964 5.964 0 0 0-1.78 4.275h3c0-.753.272-1.537.88-2.132.594-.582 1.648-1.117 3.46-1.117v-3zm-7.34 6.249c0 1.893.716 3.375 2.135 4.612 1.313 1.145 3.23 2.08 5.623 3.074l1.151-2.77c-2.397-.997-3.897-1.775-4.803-2.565-.8-.697-1.105-1.37-1.105-2.351h-3zm7.766 7.69c2.744 1.12 4.635 2.31 5.84 3.683 1.164 1.325 1.771 2.915 1.771 5.055h3c0-2.795-.826-5.109-2.515-7.034-1.648-1.877-4.029-3.284-6.962-4.482l-1.134 2.778zm7.611 8.738c0 3.594-2.467 7.075-7.456 7.916l.5 2.958c6.353-1.071 9.956-5.737 9.956-10.874h-3zm-8.706 9.395v5.744h3v-5.744h-3zm1.52 4.244l-3.49-.045-.039 3 3.49.045.038-3zM48.28 17.201h12.072v-3H48.28v3zm10.572-1.5v65.666h3V15.701h-3zm1.5 64.166H2v3h58.352v-3zM3.5 81.367V15.701h-3v65.666h3zM2 17.201h12.072v-3H2v3zm36.491-5.998h9.79v-3h-9.79v3zm8.29-1.5v11.928h3V9.703h-3zm1.5 10.428h-34.21v3H48.28v-3zm-32.709 1.5V9.703h-3v11.928h3zm-1.5-10.428h9.79v-3h-9.79v3zm11.312-1.5c0-1.549.613-3.034 1.704-4.128l-2.124-2.118a8.847 8.847 0 0 0-2.58 6.246h3zm1.704-4.128a5.804 5.804 0 0 1 4.11-1.708v-3a8.802 8.802 0 0 0-6.234 2.59l2.124 2.118zm4.11-1.708c1.541 0 3.02.614 4.11 1.708l2.125-2.118A8.804 8.804 0 0 0 31.2.867v3zm4.11 1.708a5.847 5.847 0 0 1 1.706 4.128h3a8.847 8.847 0 0 0-2.58-6.246l-2.125 2.118zM4.843 26.182v26.29h3v-26.29h-3zm4.376 0V41.4h3V26.182h-3z" fill="#004FFF"/></svg>