<svg width="62" height="65" fill="none" xmlns="http://www.w3.org/2000/svg"><path d="M61.34 29.049L32.977 1.553a2.122 2.122 0 0 0-2.97 0L1.645 29.047a2.151 2.151 0 0 0-.653 1.545c0 1.186.958 2.148 2.139 2.148H6.9V62.8c0 1.186.957 2.147 2.138 2.147h14.97a2.143 2.143 0 0 0 2.138-2.147V45.622h10.692V62.8c0 1.186.958 2.147 2.139 2.147h14.97a2.143 2.143 0 0 0 2.138-2.147V32.74h3.769c.58 0 1.134-.237 1.537-.655a2.153 2.153 0 0 0-.051-3.036zm-5.255 1.543a2.143 2.143 0 0 0-2.139 2.148V62.8h-14.97V45.622a2.143 2.143 0 0 0-2.138-2.147H26.146a2.143 2.143 0 0 0-2.139 2.147V62.8H9.039V32.74A2.143 2.143 0 0 0 6.9 30.591H3.13L31.493 3.098l28.372 27.494h-3.78z" fill="url(#paint0_linear)"/><defs><linearGradient id="paint0_linear" x1=".992" y1="61.559" x2="65.939" y2="56.186" gradientUnits="userSpaceOnUse"><stop offset="0" stop-color="#053FC1"/><stop offset=".997" stop-color="#5E8FFF"/></linearGradient></defs></svg>