<svg width="64" height="54" fill="none" xmlns="http://www.w3.org/2000/svg"><path d="M63.532 26.01a1.067 1.067 0 0 0-.994-.106L51.87 30.17c-.405.161-.67.553-.671.99h-2.133v-6.4a3.2 3.2 0 0 0-3.2-3.2H9.6a3.2 3.2 0 0 0-3.2 3.2v.652l-4.996-1.665A1.067 1.067 0 0 0 0 24.76v12.8a1.067 1.067 0 0 0 1.404 1.013L6.4 36.908V50.36a3.2 3.2 0 0 0 3.2 3.2h36.267a3.2 3.2 0 0 0 3.2-3.2v-6.4H51.2c0 .437.266.83.67.991l10.668 4.267a1.066 1.066 0 0 0 1.462-.99V26.893c0-.354-.175-.685-.468-.883zM6.4 34.659l-4.267 1.423V26.24L6.4 27.663v6.995zM46.933 50.36c0 .59-.477 1.067-1.066 1.067H9.6c-.59 0-1.067-.477-1.067-1.067v-25.6c0-.589.478-1.066 1.067-1.066h36.267c.589 0 1.066.477 1.066 1.066v25.6zm4.267-8.533h-2.133v-8.533H51.2v8.533zm10.667 4.825l-8.534-3.414V31.883l8.534-3.414v18.183z" fill="#A15CE6"/><path d="M29.867 10.894C29.867 5.003 25.09.227 19.2.227S8.533 5.003 8.533 10.894c0 5.89 4.776 10.666 10.667 10.666 5.888-.006 10.66-4.778 10.667-10.666zM19.2 19.427a8.533 8.533 0 1 1 8.533-8.533 8.543 8.543 0 0 1-8.533 8.533zm27.733-5.333a7.467 7.467 0 1 0-7.466 7.466 7.475 7.475 0 0 0 7.466-7.466zm-7.466 5.333a5.333 5.333 0 1 1 5.333-5.333 5.34 5.34 0 0 1-5.333 5.333zM38.4 27.96H17.067c-.59 0-1.067.478-1.067 1.067v17.067c0 .589.478 1.066 1.067 1.066H38.4c.59 0 1.067-.477 1.067-1.066V29.027c0-.589-.478-1.067-1.067-1.067zm-1.067 17.067h-19.2V30.094h19.2v14.933z" fill="#A15CE6"/></svg>