<svg width="78" height="72" fill="none" xmlns="http://www.w3.org/2000/svg"><path d="M22.879 22.122l11.8 11.141M2.866 69.624s8.091 5.571 21.043-12.77c0 0 7.152-11.545 8.636-11.704 1.484-.16 6.745 7.204 8.23 8.427 1.483 1.224 2.292 2.171 5.53-.68a86.718 86.718 0 0 0 6.475-6.524s2.562-1.064-.528-4.485c-3.09-3.421-21.989-22.15-21.989-22.15s-2.699-3.261-5.937.681a69.497 69.497 0 0 1-6.069 6.523s-2.699.948 1.48 5.029c4.177 4.08 5.667 5.703 5.81 6.113.142.41 2.154 1.628.4 2.719 0 0-7.822 5.91-10.035 7.198-2.213 1.288-8.298 6.524-10.39 9.785a27.787 27.787 0 0 0-3.37 7.273c-.375 1.235-.073 4.193.714 4.565zm31.353-58.707s-2.73 2.128-.607 4.996c2.123 2.868 21.751 21.814 21.751 21.814s2.33 4.076 5.974 0c3.644-4.075 13.553-13.556 13.553-13.556s3.645-3.161-2.324-4.89C66.598 17.55 57.993 7.043 57.993 7.043s-7.79-9.374-18.106-1.425l-5.668 5.299z" stroke="#2FC9C8" stroke-width="3" stroke-linecap="round" stroke-linejoin="round"/></svg>