<svg width="86" height="51" fill="none" xmlns="http://www.w3.org/2000/svg"><path d="M42.858 19.329l-.006-4.422c3.785 0 6.813-2.791 6.813-6.24 0-3.45-3.034-6.247-6.813-6.247-3.78 0-6.808 2.797-6.808 6.246a5.67 5.67 0 0 0 .097 1.064M11.437 41.748h19.32m-12.053-5.229h11.508M7.27 49.419h71.466c5.342 0 7.268-7.025 2.683-9.743L50.713 21.48a15.376 15.376 0 0 0-15.747 0L4.526 39.657C.002 42.419 1.928 49.42 7.27 49.42z" stroke="#FFC219" stroke-width="3" stroke-linecap="round" stroke-linejoin="round"/></svg>