<svg width="54" height="59" fill="none" xmlns="http://www.w3.org/2000/svg"><path d="M53.91 29.747l-2.402-17.62a5.805 5.805 0 0 0-2.616-4.104L37.207.51v.002a.967.967 0 0 0-.713-.137c-.048.01-4.804.95-9.498.95-4.686 0-9.45-.94-9.497-.95a.966.966 0 0 0-.713.137L16.785.51 5.1 8.023a5.805 5.805 0 0 0-2.616 4.104L.082 29.747a4.001 4.001 0 0 0 1.129 3.351 3.954 3.954 0 0 0 2.814 1.166h6.502v23.25a.969.969 0 0 0 .97.968h31a.97.97 0 0 0 .968-.968v-23.25h6.503a3.953 3.953 0 0 0 2.813-1.166 4.001 4.001 0 0 0 1.13-3.351zM26.996 3.264c3.06 0 6.084-.372 7.966-.66l-.893 1.784c-.907.243-3.43.813-7.073.813-3.643 0-6.167-.57-7.073-.813l-.892-1.784c1.881.288 4.905.66 7.965.66zm-14.531 53.28v-1.937h29.062v1.938H12.465zM51.41 31.729a2.028 2.028 0 0 1-1.443.598h-6.503v-6.675l1.914-8.615-1.891-.42-1.179 5.305-.831-2.495-1.838.613 1.887 5.663V52.67H12.465V25.702l1.888-5.663-1.838-.613-.832 2.495-1.179-5.305-1.891.42 1.914 8.615v6.675H4.025a2.027 2.027 0 0 1-1.444-.598 2.053 2.053 0 0 1-.58-1.72l2.403-17.62a3.87 3.87 0 0 1 1.744-2.736l10.777-6.927 1.455 2.91c.114.23.316.404.56.485.124.042 3.112 1.019 8.056 1.019 4.944 0 7.932-.977 8.056-1.019a.969.969 0 0 0 .56-.486l1.455-2.91 10.777 6.928a3.87 3.87 0 0 1 1.744 2.736l2.402 17.62a2.052 2.052 0 0 1-.579 1.72z" fill="#FFC219"/></svg>