<svg width="84" height="54" fill="none" xmlns="http://www.w3.org/2000/svg"><path d="M42.035 31.974h-6.66s-3.765-.3-5.844 2.444c-2.08 2.745-11.062 14.566-11.062 14.566s-5.316 7.378-14.397-1.495c0 0-3.203-3.405-1.645-9.897 1.558-6.492 2.641-18.51 2.641-18.51s.11-7.395 3.243-10.94c2.647-2.987 6.62-6.283 13.975-5.57 1.37.136 2.707.502 3.955 1.083 2.178 1.019 5.664 2.895 6.672 5.01h9.127" stroke="#0B8E42" stroke-width="3" stroke-linecap="round" stroke-linejoin="round"/><path d="M41.965 31.974h6.66s3.764-.3 5.843 2.444c2.08 2.745 11.068 14.566 11.068 14.566s5.316 7.378 14.397-1.495c0 0 3.197-3.405 1.64-9.897C80.013 31.1 78.936 19.1 78.936 19.1s-.104-7.395-3.243-10.94c-2.646-2.988-6.613-6.283-13.974-5.57a12.162 12.162 0 0 0-3.95 1.083c-2.183 1.02-5.67 2.896-6.677 5.01h-9.127M20.543 13.68v10.603m-5.398-5.373H26.15" stroke="#0B8E42" stroke-width="3" stroke-linecap="round" stroke-linejoin="round"/><path d="M40.048 17.427h-3.562v2.924h3.562v-2.924zm7.424 0h-3.561v2.924h3.561v-2.924zm9.006 3.799a2.334 2.334 0 1 0 0-4.668 2.334 2.334 0 0 0 0 4.668zm13.32 0a2.334 2.334 0 1 0 0-4.668 2.334 2.334 0 0 0 0 4.668zm-6.678-6.649a2.334 2.334 0 1 0 0-4.668 2.334 2.334 0 0 0 0 4.668zm0 13.32a2.334 2.334 0 1 0 0-4.668 2.334 2.334 0 0 0 0 4.668z" fill="#0B8E42"/></svg>