<svg width="78" height="80" fill="none" xmlns="http://www.w3.org/2000/svg"><path d="M63.77 26.785c0 13.717-11.061 24.837-24.708 24.837-13.645 0-24.708-11.12-24.708-24.837m49.417 0c0-13.718-11.062-24.838-24.709-24.838-13.645 0-24.708 11.12-24.708 24.838m49.417 0H76m-61.646 0H2m69.237-4.253c.181 1.41.272 2.83.272 4.253a32.762 32.762 0 0 1-2.674 12.956 32.614 32.614 0 0 1-7.574 10.822 32.417 32.417 0 0 1-11.228 6.907 32.291 32.291 0 0 1-25.727-1.647 32.479 32.479 0 0 1-10.265-8.283 32.674 32.674 0 0 1-6.146-11.7 32.78 32.78 0 0 1-1.017-13.193M36.49 76.564V59.4m5.916 17.163V59.23m17.275 18.716H19.444m1.174-49.25L41.895 7.654m-17.59 30.359l8.15-8.106m4.89-4.914L50.9 11.365" stroke="#DB0626" stroke-width="3" stroke-linecap="round" stroke-linejoin="round"/></svg>