<svg width="50" height="80" fill="none" xmlns="http://www.w3.org/2000/svg"><path d="M37.902 60.342a1.5 1.5 0 0 0 3 0h-3zm3-24.238a1.5 1.5 0 0 0-3 0h3zM30.753 60.342a1.5 1.5 0 1 0 3 0h-3zm3-13.604a1.5 1.5 0 0 0-3 0h3zm-19.87-32.485a1.5 1.5 0 0 0 3 0h-3zm1.5-11.78v-1.5a1.5 1.5 0 0 0-1.5 1.5h1.5zm19.067 0h1.5a1.5 1.5 0 0 0-1.5-1.5v1.5zm-1.5 11.78a1.5 1.5 0 1 0 3 0h-3zM8.873 16.967h32.239v-3H8.871v3zm32.239 0a5.376 5.376 0 0 1 5.38 5.372h3c0-4.625-3.754-8.372-8.38-8.372v3zm5.38 5.372v37.778h3V22.339h-3zm0 37.778a5.376 5.376 0 0 1-5.38 5.372v3c4.626 0 8.38-3.747 8.38-8.372h-3zm-5.38 5.372H8.871v3h32.24v-3zm-32.24 0a5.376 5.376 0 0 1-5.38-5.372h-3c0 4.625 3.754 8.372 8.38 8.372v-3zm-5.38-5.372V22.339h-3v37.778h3zm0-37.778a5.376 5.376 0 0 1 5.38-5.372v-3c-4.626 0-8.38 3.747-8.38 8.372h3zm9.106 52.506a2.13 2.13 0 0 1-2.134 2.128v3a5.13 5.13 0 0 0 5.134-5.128h-3zm-2.134 2.128a2.13 2.13 0 0 1-2.133-2.128h-3a5.13 5.13 0 0 0 5.133 5.128v-3zm-2.133-2.128a2.13 2.13 0 0 1 2.133-2.129v-3a5.13 5.13 0 0 0-5.133 5.129h3zm2.133-2.129a2.13 2.13 0 0 1 2.134 2.129h3a5.13 5.13 0 0 0-5.134-5.129v3zm31.071 2.129a2.13 2.13 0 0 1-2.133 2.128v3a5.13 5.13 0 0 0 5.133-5.128h-3zm-2.133 2.128a2.13 2.13 0 0 1-2.133-2.128h-3a5.13 5.13 0 0 0 5.133 5.128v-3zm-2.133-2.128a2.13 2.13 0 0 1 2.133-2.129v-3a5.13 5.13 0 0 0-5.133 5.129h3zm2.133-2.129a2.13 2.13 0 0 1 2.133 2.129h3a5.13 5.13 0 0 0-5.133-5.129v3zm1.5-12.374V36.104h-3v24.238h3zm-7.149 0V46.738h-3v13.604h3zm-16.87-46.09V2.474h-3v11.78h3zm-1.5-10.279H34.45v-3H15.384v3zm17.567-1.5v11.78h3V2.473h-3z" fill="#62DB46"/></svg>