<svg width="52" height="52" fill="none" xmlns="http://www.w3.org/2000/svg"><path d="M29.988 24.553a.852.852 0 0 0 1.144.372c.05-.026 5.053-2.567 7.52-3.347a.85.85 0 0 0-.513-1.622c-2.599.823-7.568 3.347-7.779 3.454a.85.85 0 0 0-.372 1.143zm.759-9.735c.13 0 .262-.03.385-.093.05-.026 5.053-2.567 7.52-3.347a.85.85 0 0 0-.513-1.621c-2.599.822-7.568 3.346-7.779 3.453a.85.85 0 0 0 .387 1.607z" fill="#DB0626"/><path d="M51.147 13.117a.85.85 0 0 0-.85.85v33.15a2.553 2.553 0 0 1-2.55 2.55h-20.4v-1.956c1.24-.433 4.467-1.444 7.65-1.444 7.404 0 12.432 1.64 12.482 1.657a.85.85 0 0 0 1.118-.807v-37.4a.849.849 0 0 0-.666-.83s-.666-.148-1.805-.357a.851.851 0 0 0-.308 1.672c.434.08.798.15 1.079.207v35.578c-1.926-.504-6.203-1.42-11.9-1.42-3.704 0-7.342 1.216-8.467 1.629-1-.442-4.025-1.629-7.683-1.629-5.855 0-10.678.966-12.75 1.456V10.375c1.697-.417 6.71-1.508 12.75-1.508 3.099 0 5.757.965 6.8 1.401v33.45a.85.85 0 0 0 1.288.728c.084-.05 8.505-5.08 15.98-7.572a.85.85 0 0 0 .582-.807V1.217a.85.85 0 0 0-1.15-.796c-6.8 2.551-13.682 6.833-13.75 6.876a.85.85 0 0 0 .9 1.441c.063-.04 6.05-3.764 12.3-6.278v33c-5.802 2.016-11.86 5.308-14.45 6.782V9.718a.85.85 0 0 0-.47-.761c-.146-.072-3.63-1.79-8.03-1.79-7.68 0-13.586 1.662-13.834 1.734a.85.85 0 0 0-.616.817v37.4a.853.853 0 0 0 .85.85.838.838 0 0 0 .233-.034c.059-.016 5.936-1.667 13.367-1.667 3.107 0 5.763.968 6.8 1.402v1.998h-20.4a2.553 2.553 0 0 1-2.55-2.55v-33.15a.85.85 0 0 0-1.7 0v33.15a4.255 4.255 0 0 0 4.25 4.25h42.5a4.255 4.255 0 0 0 4.25-4.25v-33.15a.85.85 0 0 0-.85-.85z" fill="#DB0626"/><path d="M29.988 19.453a.853.853 0 0 0 1.144.372c.05-.026 5.053-2.567 7.52-3.347a.85.85 0 0 0-.513-1.622c-2.599.822-7.568 3.347-7.779 3.454a.85.85 0 0 0-.372 1.143zm0 10.2a.853.853 0 0 0 1.144.372c.05-.026 5.053-2.567 7.52-3.347a.85.85 0 0 0-.513-1.622c-2.599.822-7.568 3.347-7.779 3.454a.85.85 0 0 0-.372 1.143zM21.59 16.142c-5.249-1.232-11.213.337-11.464.404a.85.85 0 0 0 .44 1.643c.057-.017 5.8-1.527 10.636-.392a.85.85 0 1 0 .387-1.655zm0 5.1c-5.249-1.23-11.213.337-11.464.404a.85.85 0 0 0 .44 1.643c.057-.017 5.8-1.527 10.636-.392a.85.85 0 1 0 .387-1.655zm8.398 13.511a.852.852 0 0 0 1.144.372c.05-.026 5.053-2.568 7.52-3.347a.85.85 0 0 0-.513-1.622c-2.599.822-7.568 3.347-7.779 3.454a.85.85 0 0 0-.372 1.143zm-8.398-8.411c-5.249-1.231-11.213.336-11.464.404a.85.85 0 0 0 .44 1.643c.057-.017 5.8-1.527 10.636-.392a.85.85 0 1 0 .387-1.655zm0 10.2c-5.249-1.232-11.213.337-11.464.404a.85.85 0 0 0 .44 1.642c.057-.016 5.8-1.526 10.636-.392a.85.85 0 1 0 .387-1.655zm0-5.1c-5.249-1.232-11.213.336-11.464.404a.85.85 0 0 0 .44 1.642c.057-.016 5.8-1.526 10.636-.392a.85.85 0 1 0 .387-1.655z" fill="#DB0626"/></svg>