<svg width="79" height="69" fill="none" xmlns="http://www.w3.org/2000/svg"><path d="M61.63 46.294l-1.48-.25-.004.026-.003.026 1.486.198zm-3.816 3.463v1.5h.028l.028-.002-.056-1.498zm-44.77 0l-.04 1.499h.04v-1.5zM9.32 46.816l1.45-.383-.005-.02-.006-.02-1.44.423zM2.186 22.565l1.439-.423v-.001l-1.44.424zm53.366-5.501v1.5h.13l.13-.023-.26-1.477zm4.083-10.715h-1.5v.1l.013.1 1.487-.2zm13.343 4.349v-1.5h-.055l-.054.004.109 1.496zm-63.51 11.84a1.5 1.5 0 0 0 0 3v-3zm15.642 3a1.5 1.5 0 1 0 0-3v3zm-13.604 3.017a1.5 1.5 0 1 0 0 3v-3zm7.179 3a1.5 1.5 0 1 0 0-3v3zm45.548-9.766L60.15 46.045l2.959.498 4.082-24.256-2.958-.498zm-4.09 24.307a2.487 2.487 0 0 1-.795 1.514l2.016 2.221a5.487 5.487 0 0 0 1.752-3.34l-2.973-.395zm-.795 1.514a2.51 2.51 0 0 1-1.59.648l.112 2.997a5.506 5.506 0 0 0 3.494-1.424l-2.016-2.221zm-1.534.647h-44.77v3h44.77v-3zm-44.731 0a2.464 2.464 0 0 1-1.463-.529l-1.86 2.354a5.463 5.463 0 0 0 3.244 1.174l.079-2.999zm-1.463-.529a2.446 2.446 0 0 1-.849-1.295l-2.9.765a5.44 5.44 0 0 0 1.89 2.884l1.86-2.354zm-.86-1.336l-7.135-24.25-2.878.846L7.882 47.24l2.878-.847zM3.625 22.141c-.563-1.91.807-3.577 2.278-3.577v-3c-3.783 0-6.195 3.9-5.156 7.425l2.878-.848zm2.278-3.577h49.65v-3H5.902v3zm49.65-1.5c.258 1.477.26 1.477.26 1.477h.003l.006-.002.011-.002.026-.005a2.372 2.372 0 0 0 .233-.06c.131-.039.297-.098.487-.185a5.064 5.064 0 0 0 1.35-.925c.998-.939 1.965-2.506 2.45-5.07l-2.949-.557c-.387 2.052-1.097 3.01-1.556 3.442a2.08 2.08 0 0 1-.546.383.808.808 0 0 1-.1.04c-.004 0 0 0 .01-.003a.96.96 0 0 1 .021-.005l.016-.003.008-.001.005-.001h.003s.002 0 .261 1.477zm4.825-4.772c.442-2.34.633-3.807.713-4.71.04-.453.052-.772.052-.994a4.589 4.589 0 0 0-.018-.405.745.745 0 0 0-.002-.018v-.009l-.001-.004V6.15s0-.002-1.487.199l-1.487.199v-.002l-.001-.004v-.008c-.002-.004-.002-.009-.002-.013l-.003-.02V6.49l.001.093c0 .12-.007.35-.04.737-.069.775-.243 2.14-.673 4.416l2.948.557zm.757-5.943c0-1.684 1.238-2.849 2.528-2.849v-3c-3.159 0-5.528 2.728-5.528 5.849h3zM63.663 3.5h9.315v-3h-9.315v3zm9.315 0c1.285 0 2.522 1.166 2.522 2.849h3C78.5 3.237 76.14.5 72.978.5v3zM75.5 6.349c0 1.687-1.236 2.849-2.522 2.849v3c3.16 0 5.522-2.73 5.522-5.85h-3zm-2.522 4.349a272.66 272.66 0 0 0-.11-1.496h-.008a3.749 3.749 0 0 0-.067.006l-.171.018a12.49 12.49 0 0 0-2.41.518c-1.29.418-3.22 1.312-3.97 3.244l2.798 1.084c.227-.585.964-1.107 2.098-1.475a9.5 9.5 0 0 1 1.926-.401l.023-.002h.002-.002l-.11-1.496zm-6.735 2.29c-.542 1.397-1.045 3.646-1.403 5.444a102.187 102.187 0 0 0-.606 3.345l-.002.014a.055.055 0 0 0-.001.005l1.48.236 1.482.236v-.003a.28.28 0 0 0 .003-.012l.007-.048a71.366 71.366 0 0 1 .15-.89c.104-.592.252-1.407.429-2.297.363-1.824.824-3.826 1.258-4.946l-2.797-1.084zM19.61 61.194a4.313 4.313 0 0 1-4.32 4.306v3c4.04 0 7.321-3.267 7.321-7.306h-3zM15.29 65.5a4.313 4.313 0 0 1-4.321-4.306h-3c0 4.039 3.281 7.306 7.321 7.306v-3zm-4.321-4.306a4.313 4.313 0 0 1 4.321-4.306v-3c-4.04 0-7.321 3.268-7.321 7.306h3zm4.321-4.306a4.313 4.313 0 0 1 4.321 4.306h3c0-4.038-3.281-7.306-7.321-7.306v3zm41.44 4.306a4.313 4.313 0 0 1-4.322 4.306v3c4.04 0 7.321-3.267 7.321-7.306h-3zM52.406 65.5a4.313 4.313 0 0 1-4.321-4.306h-3c0 4.039 3.282 7.306 7.321 7.306v-3zm-4.321-4.306a4.313 4.313 0 0 1 4.321-4.306v-3c-4.04 0-7.321 3.268-7.321 7.306h3zm4.321-4.306a4.313 4.313 0 0 1 4.321 4.306h3c0-4.038-3.281-7.306-7.32-7.306v3zm-42.94-31.35H25.11v-3H9.468v3zm2.04 6.017h7.178v-3h-7.179v3z" fill="#61DB45"/></svg>