<svg width="50" height="59" fill="none" xmlns="http://www.w3.org/2000/svg"><path d="M33.264 7.534C32.68 3.45 29.123.367 24.992.367A8.387 8.387 0 0 0 18.24 3.8a.983.983 0 1 0 1.587 1.16 6.418 6.418 0 0 1 5.163-2.626c3.161 0 5.88 2.356 6.326 5.478a.984.984 0 0 0 1.947-.277zm14.198 11.005l-2.95-4.915a.982.982 0 0 0-.843-.478h-2.826a.983.983 0 0 0 0 1.966h2.27l1.77 2.95H5.1l1.77-2.95h1.041a.983.983 0 0 0 0-1.966H6.314a.982.982 0 0 0-.843.478l-2.95 4.915a.984.984 0 0 0 .843 1.49H46.62a.983.983 0 0 0 .843-1.49z" fill="#2B74B9"/><path d="M42.562 9.475a.982.982 0 0 0-.612-.44l-13.4-3.133a.985.985 0 0 0-1.182.733l-1.01 4.32a.982.982 0 1 0 1.914.447l.787-3.362 11.486 2.686-1.805 7.717a.982.982 0 1 0 1.914.448l2.03-8.674a.98.98 0 0 0-.122-.742zm-17.05 2.324l-.896-7.576a.981.981 0 0 0-1.092-.862L7.082 5.305a.983.983 0 0 0-.86 1.092l1.493 12.635a.983.983 0 1 0 1.952-.23L8.29 7.142l14.49-1.713.78 6.6a.984.984 0 0 0 1.953-.23z" fill="#2B74B9"/><path d="M33.286 18.672l-1.95-8.115a.986.986 0 0 0-1.187-.725L14.313 13.64a.983.983 0 0 0-.726 1.186l.975 4.056a.982.982 0 1 0 1.912-.46l-.746-3.1 13.925-3.348 1.721 7.158a.983.983 0 1 0 1.912-.46z" fill="#2B74B9"/><path d="M47.602 18.995a.983.983 0 0 0-.982-.933H3.364a.983.983 0 0 0-.982.933L.417 57.334a.983.983 0 0 0 .982 1.033h47.186a.985.985 0 0 0 .983-1.033l-1.966-38.339zM2.433 56.401L4.3 20.028h41.386l1.865 36.373H2.433z" fill="#2B74B9"/><path d="M32.365 21.994a2.952 2.952 0 0 0-2.95 2.95 2.952 2.952 0 0 0 2.95 2.948 2.952 2.952 0 0 0 2.949-2.949 2.952 2.952 0 0 0-2.95-2.949zm0 3.933a.984.984 0 1 1 .001-1.968.984.984 0 0 1-.001 1.968zm-14.746-3.933a2.952 2.952 0 0 0-2.95 2.95 2.952 2.952 0 0 0 2.95 2.948 2.952 2.952 0 0 0 2.949-2.949 2.952 2.952 0 0 0-2.95-2.949zm0 3.933a.984.984 0 0 1 0-1.966.984.984 0 0 1 0 1.966z" fill="#2B74B9"/><path d="M32.365 24.943h-.076a.983.983 0 0 0-.907 1.362v5.028a6.397 6.397 0 0 1-6.39 6.39 6.397 6.397 0 0 1-6.39-6.39v-5.406a.983.983 0 0 0-1.966 0v5.406c0 4.608 3.748 8.356 8.356 8.356 4.607 0 8.355-3.748 8.355-8.356v-5.406a.984.984 0 0 0-.982-.984z" fill="#2B74B9"/></svg>