<svg width="65" height="58" fill="none" xmlns="http://www.w3.org/2000/svg"><mask id="a" maskUnits="userSpaceOnUse" x="0" y="0" width="65" height="58" fill="#000"><path fill="#fff" d="M0 0h65v58H0z"/><path d="M61.988 32.513H3.012A2.015 2.015 0 0 1 1 30.503V25.49a2.016 2.016 0 0 1 2.012-2.014h58.976A2.015 2.015 0 0 1 64 25.491v5.008a2.016 2.016 0 0 1-2.012 2.014zM3.012 25.282a.213.213 0 0 0-.212.209v5.008a.213.213 0 0 0 .212.212h58.976a.214.214 0 0 0 .212-.209v-5.011a.213.213 0 0 0-.212-.213l-58.976.004z"/><path d="M51.682 57H13.318a4.479 4.479 0 0 1-4.443-3.795L5.462 31.757a.9.9 0 0 1 .889-1.045H58.65a.9.9 0 0 1 .888 1.042L56.126 53.21A4.48 4.48 0 0 1 51.682 57zM7.405 32.513l3.246 20.41a2.689 2.689 0 0 0 2.667 2.276h38.364a2.688 2.688 0 0 0 2.666-2.276l3.247-20.41H7.405z"/><path d="M43.628 50.51a.9.9 0 0 1-.892-1.03l1.668-11.5a.901.901 0 0 1 1.619-.418.9.9 0 0 1 .162.677l-1.667 11.5a.9.9 0 0 1-.89.772zm-11.128 0a.9.9 0 0 1-.9-.9v-11.5a.9.9 0 0 1 1.8 0v11.5a.9.9 0 0 1-.9.9zm-11.128 0a.9.9 0 0 1-.889-.77l-1.67-11.502a.9.9 0 1 1 1.782-.258l1.668 11.5a.9.9 0 0 1-.89 1.03zM54.61 25.282a.9.9 0 0 1-.819-.525L44.39 4.254a2.493 2.493 0 0 0-3.303-1.226 2.52 2.52 0 0 0-1.454 2.276c0 .358.077.711.228 1.036l8.113 17.665a.902.902 0 0 1-.784 1.276.9.9 0 0 1-.852-.524L38.224 7.092a4.247 4.247 0 0 1-.393-1.79 4.33 4.33 0 0 1 2.5-3.91 4.29 4.29 0 0 1 5.692 2.112l9.405 20.502a.9.9 0 0 1-.818 1.276zm-44.22 0a.899.899 0 0 1-.817-1.276l9.402-20.503a4.292 4.292 0 0 1 5.688-2.113 4.329 4.329 0 0 1 2.505 3.913 4.245 4.245 0 0 1-.393 1.791l-8.112 17.663a.9.9 0 1 1-1.636-.752L25.14 6.341c.151-.325.23-.68.23-1.038a2.521 2.521 0 0 0-1.46-2.278 2.491 2.491 0 0 0-3.299 1.228l-9.402 20.504a.9.9 0 0 1-.82.524z"/></mask><path d="M61.988 32.513H3.012A2.015 2.015 0 0 1 1 30.503V25.49a2.016 2.016 0 0 1 2.012-2.014h58.976A2.015 2.015 0 0 1 64 25.491v5.008a2.016 2.016 0 0 1-2.012 2.014zM3.012 25.282a.213.213 0 0 0-.212.209v5.008a.213.213 0 0 0 .212.212h58.976a.214.214 0 0 0 .212-.209v-5.011a.213.213 0 0 0-.212-.213l-58.976.004z" fill="#A15CE6"/><path d="M51.682 57H13.318a4.479 4.479 0 0 1-4.443-3.795L5.462 31.757a.9.9 0 0 1 .889-1.045H58.65a.9.9 0 0 1 .888 1.042L56.126 53.21A4.48 4.48 0 0 1 51.682 57zM7.405 32.513l3.246 20.41a2.689 2.689 0 0 0 2.667 2.276h38.364a2.688 2.688 0 0 0 2.666-2.276l3.247-20.41H7.405z" fill="#A15CE6"/><path d="M43.628 50.51a.9.9 0 0 1-.892-1.03l1.668-11.5a.901.901 0 0 1 1.619-.418.9.9 0 0 1 .162.677l-1.667 11.5a.9.9 0 0 1-.89.772zm-11.128 0a.9.9 0 0 1-.9-.9v-11.5a.9.9 0 0 1 1.8 0v11.5a.9.9 0 0 1-.9.9zm-11.128 0a.9.9 0 0 1-.889-.77l-1.67-11.502a.9.9 0 1 1 1.782-.258l1.668 11.5a.9.9 0 0 1-.89 1.03zM54.61 25.282a.9.9 0 0 1-.819-.525L44.39 4.254a2.493 2.493 0 0 0-3.303-1.226 2.52 2.52 0 0 0-1.454 2.276c0 .358.077.711.228 1.036l8.113 17.665a.902.902 0 0 1-.784 1.276.9.9 0 0 1-.852-.524L38.224 7.092a4.247 4.247 0 0 1-.393-1.79 4.33 4.33 0 0 1 2.5-3.91 4.29 4.29 0 0 1 5.692 2.112l9.405 20.502a.9.9 0 0 1-.818 1.276zm-44.22 0a.899.899 0 0 1-.817-1.276l9.402-20.503a4.292 4.292 0 0 1 5.688-2.113 4.329 4.329 0 0 1 2.505 3.913 4.245 4.245 0 0 1-.393 1.791l-8.112 17.663a.9.9 0 1 1-1.636-.752L25.14 6.341c.151-.325.23-.68.23-1.038a2.521 2.521 0 0 0-1.46-2.278 2.491 2.491 0 0 0-3.299 1.228l-9.402 20.504a.9.9 0 0 1-.82.524z" fill="#A15CE6"/><path d="M61.988 32.513H3.012A2.015 2.015 0 0 1 1 30.503V25.49a2.016 2.016 0 0 1 2.012-2.014h58.976A2.015 2.015 0 0 1 64 25.491v5.008a2.016 2.016 0 0 1-2.012 2.014zM3.012 25.282a.213.213 0 0 0-.212.209v5.008a.213.213 0 0 0 .212.212h58.976a.214.214 0 0 0 .212-.209v-5.011a.213.213 0 0 0-.212-.213l-58.976.004z" stroke="#3B4255" stroke-width=".6" mask="url(#a)"/><path d="M51.682 57H13.318a4.479 4.479 0 0 1-4.443-3.795L5.462 31.757a.9.9 0 0 1 .889-1.045H58.65a.9.9 0 0 1 .888 1.042L56.126 53.21A4.48 4.48 0 0 1 51.682 57zM7.405 32.513l3.246 20.41a2.689 2.689 0 0 0 2.667 2.276h38.364a2.688 2.688 0 0 0 2.666-2.276l3.247-20.41H7.405z" stroke="#3B4255" stroke-width=".6" mask="url(#a)"/><path d="M43.628 50.51a.9.9 0 0 1-.892-1.03l1.668-11.5a.901.901 0 0 1 1.619-.418.9.9 0 0 1 .162.677l-1.667 11.5a.9.9 0 0 1-.89.772zm-11.128 0a.9.9 0 0 1-.9-.9v-11.5a.9.9 0 0 1 1.8 0v11.5a.9.9 0 0 1-.9.9zm-11.128 0a.9.9 0 0 1-.889-.77l-1.67-11.502a.9.9 0 1 1 1.782-.258l1.668 11.5a.9.9 0 0 1-.89 1.03zM54.61 25.282a.9.9 0 0 1-.819-.525L44.39 4.254a2.493 2.493 0 0 0-3.303-1.226 2.52 2.52 0 0 0-1.454 2.276c0 .358.077.711.228 1.036l8.113 17.665a.902.902 0 0 1-.784 1.276.9.9 0 0 1-.852-.524L38.224 7.092a4.247 4.247 0 0 1-.393-1.79 4.33 4.33 0 0 1 2.5-3.91 4.29 4.29 0 0 1 5.692 2.112l9.405 20.502a.9.9 0 0 1-.818 1.276zm-44.22 0a.899.899 0 0 1-.817-1.276l9.402-20.503a4.292 4.292 0 0 1 5.688-2.113 4.329 4.329 0 0 1 2.505 3.913 4.245 4.245 0 0 1-.393 1.791l-8.112 17.663a.9.9 0 1 1-1.636-.752L25.14 6.341c.151-.325.23-.68.23-1.038a2.521 2.521 0 0 0-1.46-2.278 2.491 2.491 0 0 0-3.299 1.228l-9.402 20.504a.9.9 0 0 1-.82.524z" stroke="#3B4255" stroke-width=".6" mask="url(#a)"/></svg>