<svg width="63" height="64" fill="none" xmlns="http://www.w3.org/2000/svg"><path d="M24.15 43.521h-4.198v-4.2a1.05 1.05 0 0 0-1.05-1.049h-4.2c-.58 0-1.05.47-1.05 1.05v4.2H9.454c-.58 0-1.05.47-1.05 1.05v4.198c0 .58.47 1.05 1.05 1.05h4.2v4.2c0 .58.47 1.05 1.05 1.05h4.199c.58 0 1.05-.47 1.05-1.05v-4.2h4.199c.58 0 1.05-.47 1.05-1.05v-4.199c0-.58-.47-1.05-1.05-1.05zm-1.049 4.2h-4.2c-.58 0-1.05.47-1.05 1.05v4.199h-2.099v-4.2c0-.58-.47-1.05-1.05-1.05h-4.2v-2.1h4.2c.58 0 1.05-.47 1.05-1.049v-4.2h2.1v4.2c0 .58.47 1.05 1.05 1.05h4.2v2.1z" fill="#0B8E42"/><path d="M62.89 44.753c-.805-7.234-7.6-14.003-14.84-14.774a17.411 17.411 0 0 0-1.852-.105H34.65v-4.2h-2.1v-2.1a4.2 4.2 0 0 0-4.2-4.199h-5.249a2.1 2.1 0 1 1 0-4.2H39.9a4.2 4.2 0 1 0 0-8.398h-5.25a2.1 2.1 0 0 1-2.1-2.1v-4.2h-2.1v4.2a4.2 4.2 0 0 0 4.2 4.2h5.249a2.1 2.1 0 1 1 0 4.199H23.1a4.2 4.2 0 0 0 0 8.399h5.25c1.16 0 2.1.94 2.1 2.1v2.1h-2.1v4.198H16.801c-.62.002-1.238.037-1.854.105C7.704 30.756.914 37.525.111 44.758c-1.055 9.217 5.562 17.544 14.778 18.599 3.754.43 7.542-.42 10.754-2.408a10.281 10.281 0 0 1 4.608-1.628 16.183 16.183 0 0 1 2.44-.009 10.36 10.36 0 0 1 4.68 1.647c7.892 4.877 18.243 2.433 23.12-5.459a16.798 16.798 0 0 0 2.4-10.747zm-32.44-16.98h2.1v2.1h-2.1v-2.1zM57.153 56.47a14.688 14.688 0 0 1-18.675 2.704 12.388 12.388 0 0 0-5.636-1.956 18.563 18.563 0 0 0-2.757.008 12.35 12.35 0 0 0-5.552 1.938C17.63 63.435 8.572 61.302 4.301 54.4a14.698 14.698 0 0 1-2.103-9.408c.69-6.217 6.752-12.256 12.976-12.924.54-.06 1.084-.092 1.628-.094h29.396c.544 0 1.087.03 1.628.087 6.223.67 12.283 6.708 12.976 12.925a14.593 14.593 0 0 1-3.649 11.485z" fill="#0B8E42"/><path d="M46.198 36.172a4.2 4.2 0 1 0 0 8.4 4.2 4.2 0 0 0 0-8.4zm0 6.3a2.1 2.1 0 1 1 0-4.2 2.1 2.1 0 0 1 0 4.2zm0 6.298a4.2 4.2 0 1 0 0 8.4 4.2 4.2 0 0 0 0-8.4zm0 6.3a2.1 2.1 0 1 1 0-4.2 2.1 2.1 0 0 1 0 4.2zm-7.349-12.599a4.2 4.2 0 1 0 0 8.4 4.2 4.2 0 0 0 0-8.4zm0 6.3a2.1 2.1 0 1 1 0-4.2 2.1 2.1 0 0 1 0 4.2zm14.698-6.3a4.2 4.2 0 1 0 0 8.4 4.2 4.2 0 0 0 0-8.4zm0 6.3a2.1 2.1 0 1 1 0-4.2 2.1 2.1 0 0 1 0 4.2z" fill="#0B8E42"/></svg>