<svg width="58" height="58" fill="none" xmlns="http://www.w3.org/2000/svg"><path d="M53.32 21.416a.936.936 0 0 0 .935-.936v-2.806h2.806v-1.87H.933v1.87H3.74v2.806c0 .517.419.936.935.936h.936v29.935h-.936a.936.936 0 0 0-.935.935v3.742H.933V57.9h56.128v-1.87h-2.806v-3.743a.936.936 0 0 0-.936-.935h-.935V21.416h.935zm-29-3.742h9.355v1.871H24.32v-1.87zm7.484 3.742v29.935H26.19V21.416h5.613zM5.61 17.674h9.354v1.871H5.611v-1.87zm7.483 3.742v29.935H7.482V21.416h5.612zm1.871 33.677H5.611v-1.871h9.354v1.87zm7.484-2.807v3.742h-5.613v-3.742a.935.935 0 0 0-.935-.935h-.936V21.416h.936a.935.935 0 0 0 .935-.936v-2.806h5.613v2.806c0 .517.419.936.935.936h.936v29.935h-.936a.936.936 0 0 0-.935.935zm11.226 2.807H24.32v-1.871h9.355v1.87zm7.483-2.807v3.742h-5.612v-3.742a.936.936 0 0 0-.936-.935h-.935V21.416h.935a.936.936 0 0 0 .936-.936v-2.806h5.612v2.806c0 .517.42.936.936.936h.935v29.935h-.935a.935.935 0 0 0-.936.935zm11.226 2.807h-9.355v-1.871h9.355v1.87zM44.9 51.35V21.416h5.613v29.935H44.9zm-1.87-31.806v-1.87h9.354v1.87h-9.355zm14.405-6.471L29.371.913a.935.935 0 0 0-.742 0L.565 13.072a.935.935 0 0 0 .368 1.795h56.128a.935.935 0 0 0 .374-1.795zm-51.991-.076L28.997 2.79 52.55 12.997H5.444z" fill="#053FC1"/></svg>