<svg width="69" height="79" fill="none" xmlns="http://www.w3.org/2000/svg"><path d="M2.591 23.728l.846 1.239.008-.006-.854-1.233zM33.621 2.24l.854 1.234.004-.003-.858-1.23zm1.533 0l-.858 1.23.008.006.85-1.236zM66.4 23.733l-.85 1.236.85-1.236zm.592 1.132h1.5-1.5zm-.592 1.132l-.85-1.236-.005.003.855 1.233zm-31.138 21.59l.854 1.233-.854-1.233zm-.77.24v-1.5 1.5zm-.768-.24l-.855 1.233.855-1.233zM2.585 26.002l.855-1.232-.004-.003-.851 1.235zM66.4 38.156l.852-1.234-.002-.002-.85 1.236zm.592 1.134h1.5-1.5zm-.592 1.135l-.853-1.234-.002.001.855 1.233zM35.267 62.004l.855 1.233-.855-1.233zm-.769.24v-1.5 1.5zm-.77-.24l-.854 1.233.855-1.233zM2.587 40.408l-.857 1.231.002.002.855-1.233zm-.588-1.131h1.5-1.5zm.588-1.132l-.854-1.233-.003.002.857 1.23zM66.4 52.9l.852-1.234-.002-.002-.85 1.236zm0 2.27l-.853-1.235-.002.001.855 1.233zM35.262 76.76l.854 1.232-.854-1.233zm-.77.24v-1.5V77zm-.768-.24l-.855 1.232.855-1.233zM2.58 55.163l-.858 1.23.003.002.855-1.232zm-.589-1.132h-1.5 1.5zm.589-1.132l-.854-1.233-.004.002.858 1.23zm22.935-37.192a1.5 1.5 0 1 0-1.788-2.409l1.788 2.409zM9.703 23.712a1.5 1.5 0 0 0 1.788 2.41l-1.788-2.41zm3.973 3.271a1.5 1.5 0 1 0 1.768 2.424l-1.769-2.424zm10-3.582a1.5 1.5 0 0 0-1.768-2.423l1.768 2.423zm-20.23 1.56L34.474 3.475l-1.708-2.467-31.03 21.486 1.708 2.467zM34.478 3.47a.16.16 0 0 1-.091.029v-3a2.84 2.84 0 0 0-1.625.511l1.716 2.46zm-.091.029a.16.16 0 0 1-.092-.028l1.716-2.461A2.84 2.84 0 0 0 34.388.5v3zm-.084-.023L65.549 24.97l1.7-2.472L36.005 1.005l-1.7 2.472zM65.55 24.97a.135.135 0 0 1-.044-.049l2.658-1.391a2.865 2.865 0 0 0-.914-1.032l-1.7 2.472zm-.044-.049a.12.12 0 0 1-.014-.055h3a2.88 2.88 0 0 0-.328-1.336l-2.658 1.392zm-.014-.055a.12.12 0 0 1 .014-.055l2.658 1.391a2.88 2.88 0 0 0 .328-1.336h-3zm.014-.055a.135.135 0 0 1 .044-.049l1.7 2.472a2.88 2.88 0 0 0 .914-1.032l-2.658-1.392zm.039-.046l-31.138 21.59 1.71 2.466 31.137-21.59-1.71-2.466zm-31.137 21.59a.15.15 0 0 1 .085-.026v3a2.85 2.85 0 0 0 1.623-.508l-1.708-2.466zm.085-.026a.15.15 0 0 1 .085.026l-1.709 2.466a2.85 2.85 0 0 0 1.624.508v-3zm.085.026L3.441 24.77l-1.71 2.465L32.87 48.82l1.71-2.466zM3.438 24.767a.13.13 0 0 1 .041.047L.82 26.201c.216.414.53.77.916 1.036l1.702-2.47zm.041.047a.114.114 0 0 1 .013.053l-3-.007c0 .466.111.927.327 1.34l2.66-1.386zm.013.053a.114.114 0 0 1-.013.053l-2.654-1.4a2.886 2.886 0 0 0-.333 1.34l3 .007zm-.013.053a.13.13 0 0 1-.042.047l-1.691-2.478a2.87 2.87 0 0 0-.92 1.032l2.653 1.4zm53.271 8.416l8.8 6.055 1.7-2.471-8.8-6.055-1.7 2.472zm8.797 6.054a.13.13 0 0 1-.042-.047l2.66-1.388a2.87 2.87 0 0 0-.913-1.033l-1.705 2.468zm-.042-.047a.114.114 0 0 1-.013-.053h3c0-.465-.112-.923-.328-1.335l-2.659 1.388zm-.013-.053c0-.017.004-.035.013-.053l2.66 1.389c.215-.413.327-.871.327-1.336h-3zm.013-.053a.131.131 0 0 1 .042-.046l1.705 2.468a2.87 2.87 0 0 0 .913-1.033l-2.66-1.389zm.04-.045l-31.132 21.58 1.709 2.465 31.132-21.58-1.709-2.465zM34.413 60.771a.15.15 0 0 1 .085-.026v3a2.85 2.85 0 0 0 1.624-.508l-1.709-2.466zm.085-.026a.15.15 0 0 1 .085.026l-1.708 2.466a2.85 2.85 0 0 0 1.623.508v-3zm.086.026L3.44 39.176 1.73 41.64l31.143 21.596 1.71-2.466zM3.444 39.178a.13.13 0 0 1 .04.046l-2.66 1.384c.214.411.524.766.906 1.031l1.714-2.462zm.04.046a.114.114 0 0 1 .014.053h-3c0 .463.11.92.325 1.33l2.662-1.383zm.014.053a.114.114 0 0 1-.013.052L.823 37.945a2.886 2.886 0 0 0-.325 1.332h3zm-.013.052a.13.13 0 0 1-.042.047L1.73 36.914c-.382.265-.692.62-.906 1.031l2.662 1.384zm-.045.049l8.772-6.077-1.708-2.466-8.772 6.077 1.708 2.466zm53.078 8.545l9.031 6.213 1.7-2.472-9.03-6.213-1.701 2.472zm9.029 6.21a.13.13 0 0 1-.042-.046l2.66-1.388a2.87 2.87 0 0 0-.913-1.033l-1.705 2.468zm-.042-.046a.114.114 0 0 1-.013-.053h3c0-.464-.112-.923-.328-1.335l-2.659 1.388zm-.013-.053c0-.017.004-.035.013-.052l2.66 1.388c.215-.412.327-.87.327-1.335h-3zm.013-.052a.13.13 0 0 1 .042-.047l1.705 2.468a2.87 2.87 0 0 0 .913-1.033l-2.66-1.388zm.04-.046l-31.138 21.59 1.71 2.466 31.137-21.59-1.71-2.466zm-31.137 21.59a.15.15 0 0 1 .085-.026v3a2.85 2.85 0 0 0 1.623-.508l-1.708-2.466zm.085-.026a.15.15 0 0 1 .085.026l-1.709 2.466a2.85 2.85 0 0 0 1.624.508v-3zm.085.026L3.435 53.931l-1.71 2.465L32.87 77.992l1.71-2.466zM3.438 53.933a.13.13 0 0 1 .041.046L.817 55.363c.214.411.525.766.906 1.032l1.715-2.462zm.041.046a.114.114 0 0 1 .013.053h-3c0 .463.111.92.325 1.33L3.48 53.98zm.013.053a.114.114 0 0 1-.013.052L.817 52.701a2.886 2.886 0 0 0-.325 1.33h3zm-.013.052a.131.131 0 0 1-.041.047l-1.715-2.462A2.87 2.87 0 0 0 .817 52.7l2.662 1.383zm-.044.05l9.004-6.236-1.708-2.466-9.004 6.235 1.708 2.466zm20.293-40.835L9.703 23.712l1.788 2.41 14.025-10.414-1.788-2.409zm-8.285 16.108l8.233-6.006-1.768-2.423-8.233 6.005 1.768 2.424z" fill="#2FC9C8"/></svg>