<svg width="56" height="81" fill="none" xmlns="http://www.w3.org/2000/svg"><path d="M8.202 59.797V2.367m0 0h46.154V60.52M8.202 2.368s-5.53-.187-5.998 6.71c-.468 6.895 0 56.627 0 56.627m10.699 5.909H7.93a5.723 5.723 0 0 1-5.293-3.544 5.739 5.739 0 0 1-.434-2.195v-.345a5.736 5.736 0 0 1 1.68-4.05 5.724 5.724 0 0 1 4.047-1.677h46.425v11.816h-34.16m0-11.822v19.57h-7.293v-19.57m7.649-41.826h20.727m-20.727 5.541h20.727m-25.05-11.636h29.108v16.986H16.228V11.876z" stroke="#DB0626" stroke-width="3" stroke-linecap="round" stroke-linejoin="round"/></svg>