<svg width="67" height="80" fill="none" xmlns="http://www.w3.org/2000/svg"><path d="M2.74 66.16H64.2m-4.293-32.23H26.919m11.897 7.11h21.632M18.39 22.505v-6.131a8.597 8.597 0 0 1 1.622-5.037c4.002-5.519 14.937-17.075 27.299 0a8.69 8.69 0 0 1 1.655 5.092v6.054m10.145 55.884H7.829a5.8 5.8 0 0 1-2.411-.534 5.86 5.86 0 0 1-1.98-1.492 5.943 5.943 0 0 1-1.196-2.185 5.988 5.988 0 0 1-.2-2.489l5.733-44.016A5.943 5.943 0 0 1 9.72 23.97a5.818 5.818 0 0 1 3.863-1.47h39.824c1.42 0 2.793.522 3.86 1.47a5.938 5.938 0 0 1 1.942 3.681l5.733 44.016c.11.838.04 1.69-.203 2.5a5.943 5.943 0 0 1-1.207 2.19 5.863 5.863 0 0 1-1.995 1.49 5.801 5.801 0 0 1-2.425.52z" stroke="#A15CE6" stroke-width="3" stroke-linecap="round" stroke-linejoin="round"/></svg>