<svg width="56" height="79" fill="none" xmlns="http://www.w3.org/2000/svg"><path d="M14.59 28.047H2l5.313 48.847h41.01l5.661-48.847H14.591zm0 0l2.774 48.847M2 23.16s-.116-3.839 4.753-5.582c0 0-1.848-9.305 6.813-7.795 0 0 1.616-9.07 9.359-4.185 0 0 4.62-8.257 10.166-.117 0 0 7.859-4.785 9.591 4.419 0 0 8.661-.93 5.773 8.14 0 0 5.545 1.398 5.545 5.7m-39.642 0s2.546-4.652 6.01-3.605m6.93-6.63s4.278-1.393 5.894 3.605m-5.197 10.937l-.116 48.847m10.05 0l1.267-21.401m0-5.35l1.506-22.096" stroke="#A15CE6" stroke-width="3" stroke-linecap="round" stroke-linejoin="round"/></svg>