<svg width="58" height="57" fill="none" xmlns="http://www.w3.org/2000/svg"><path d="M14.723 17.006a2.898 2.898 0 0 0 2.741-1.97h12.108a.923.923 0 0 0 0-1.846H17.464a2.898 2.898 0 0 0-2.741-1.97 2.896 2.896 0 0 0-2.893 2.893 2.896 2.896 0 0 0 2.893 2.893zm0-3.94a1.048 1.048 0 0 1 0 2.093 1.048 1.048 0 0 1 0-2.092z" fill="#FF7F00"/><path d="M57.073 25.993h-13.85V23.9h4.986a2.896 2.896 0 0 0 2.893-2.893v-5.909c0-8.112-6.6-14.712-14.712-14.712H11.097C5.657.386 1.127 4.668 1 9.932a9.756 9.756 0 0 0 2.438 6.707A9.765 9.765 0 0 0 9.1 19.813l.363 1.108c.1.305.247.585.43.831a.925.925 0 0 0-.027.145l-2.733 26.42a4.012 4.012 0 0 1-1.58 2.79l-1.429 1.072a2.907 2.907 0 0 0-1.157 2.314v.985c0 .51.413.923.923.923h48.26c.51 0 .923-.413.923-.923v-.985a3.882 3.882 0 0 0-3.878-3.878h-.844c-.292-.102-.844-.395-1.093-1.461a4.574 4.574 0 0 1-.108-.785c5.585-.91 9.862-5.766 9.862-11.604V27.84h.062a.923.923 0 0 0 0-1.847zm-15.697 0h-13.85a.923.923 0 0 0 0 1.847h.062v8.925c0 5.839 4.278 10.696 9.864 11.604-.034.575-.176 1.322-.584 1.808-10.403-2.073-18.267-11.273-18.267-22.276v-5.909a.925.925 0 0 0-.03-.231c.183-.245.33-.522.431-.824l.326-.976h14.17v1.046A2.896 2.896 0 0 0 36.39 23.9h4.986v2.093zm6.833-3.94H36.39a1.047 1.047 0 0 1-1.046-1.046v-1.046h13.911v1.046c0 .577-.47 1.047-1.046 1.047zM4.822 15.418a7.913 7.913 0 0 1-1.977-5.44c.103-4.27 3.805-7.744 8.252-7.744H36.39c6.446 0 11.799 4.765 12.724 10.957H28.51a.923.923 0 1 0 0 1.846h20.743l.001.062v3.016H18.662a.923.923 0 0 0-.876.631l-.536 1.608a1.045 1.045 0 0 1-.992.716h-4.046c-.454 0-.854-.29-.995-.722l-.541-1.654a.923.923 0 0 0-.776-.631 7.918 7.918 0 0 1-5.078-2.645zm46.403 39.076v.062H4.812v-.062c0-.327.157-.64.42-.837l1.429-1.072a5.864 5.864 0 0 0 2.308-4.077l2.654-25.654c.19.04.388.063.589.063h4.046c.168 0 .334-.016.496-.044v5.03c0 13.542 11.018 24.56 24.56 24.56h7.881c1.12 0 2.031.911 2.031 2.031zm-5.78-4.978c.09.402.22.77.385 1.1h-4.515c-.838 0-1.665-.047-2.48-.136.19-.418.325-.891.4-1.41a6.96 6.96 0 0 0 .056-.547h6.017c.019.297.058.637.137.993zm9.72-12.75c0 5.465-4.446 9.91-9.91 9.91h-5.91c-5.465 0-9.91-4.445-9.91-9.91V27.84h11.941v.755c-.903 1.305-4.924 7.327-4.924 11.125a5.854 5.854 0 0 0 5.848 5.848 5.854 5.854 0 0 0 5.847-5.848c0-3.69-4.03-9.81-4.924-11.121v-.76h11.942v8.926zM38.298 39.72c0-2.059 1.632-5.294 3.078-7.711v11.603a4.007 4.007 0 0 1-3.078-3.892zm4.925-7.678c1.447 2.441 3.078 5.685 3.078 7.678a4.007 4.007 0 0 1-3.078 3.892v-11.57z" fill="#FF7F00"/><path d="M38.175 6.352a8.947 8.947 0 0 1 5.944 4.285.923.923 0 1 0 1.597-.926 10.796 10.796 0 0 0-7.172-5.169.923.923 0 1 0-.369 1.81zm12.512 34.752a.923.923 0 0 0 1.267-.314 7.797 7.797 0 0 0 1.118-4.025v-5.909a.923.923 0 0 0-1.847 0v5.91a5.951 5.951 0 0 1-.852 3.07.923.923 0 0 0 .314 1.268z" fill="#FF7F00"/></svg>