<svg width="78" height="79" viewBox="0 0 78 79" fill="none" xmlns="http://www.w3.org/2000/svg">
<path d="M43.9922 24.9468L54.9922 35.9468M41.9922 13.9468L59.9922 33.9468M2.29664 38.3328L37.1817 2.50363C37.3506 2.32992 37.5522 2.19132 37.7747 2.09579C37.9972 2.00026 38.2364 1.94966 38.4784 1.9469C38.7205 1.94413 38.9607 1.98926 39.1854 2.07969C39.41 2.17012 39.6146 2.30407 39.7875 2.47388L75.6698 37.8391C75.8217 37.9862 75.9261 38.1754 75.9696 38.3825C76.013 38.5896 75.9936 38.8049 75.9137 39.0008C75.8339 39.1967 75.6972 39.3641 75.5215 39.4815C75.3458 39.5988 75.139 39.6607 74.9278 39.6591H65.8934L65.4542 76.9468H10.6721V40.0933L3.06235 40.135C2.85285 40.1377 2.64726 40.0779 2.47174 39.9632C2.29622 39.8486 2.15869 39.6842 2.07662 39.4911C1.99454 39.2979 1.97165 39.0846 2.01082 38.8784C2.05 38.6722 2.14948 38.4822 2.29664 38.3328Z" stroke="#004FFF" stroke-width="3" stroke-linecap="round" stroke-linejoin="round"/>
</svg>
