<svg width="61" height="60" fill="none" xmlns="http://www.w3.org/2000/svg"><path d="M52.502 27.547a14.694 14.694 0 0 0-1.08-.974 14.454 14.454 0 0 0 3.687-9.655v-3.205a.984.984 0 0 0-.984-.985h-5.906V6.822a.984.984 0 0 0-.985-.984H44.03c-1.183 0-2.361.144-3.51.43a14.612 14.612 0 0 0-2.18-2.784l-2.212-2.27a.985.985 0 0 0-1.399-.012l-7.19 7.149c-.35.35-.682.717-.994 1.1a14.452 14.452 0 0 0-9.573-3.613h-3.205a.984.984 0 0 0-.985.984v5.906H6.875a.984.984 0 0 0-.984.985v3.205c0 1.139.134 2.274.398 3.381A14.66 14.66 0 0 0 3.46 22.51l-2.203 2.203a.984.984 0 0 0 0 1.392l7.241 7.241c.343.343.705.668 1.08.975a14.454 14.454 0 0 0-3.687 9.655v3.205a.984.984 0 0 0 .984.985h5.906v5.906a.984.984 0 0 0 .985.984h3.205c1.183 0 2.361-.144 3.51-.43a14.613 14.613 0 0 0 2.18 2.784l2.212 2.27a.986.986 0 0 0 .697.298h.008c.26 0 .51-.103.694-.286l7.19-7.15c.35-.35.68-.717.993-1.101a14.452 14.452 0 0 0 9.574 3.615h3.205a.984.984 0 0 0 .985-.984v-5.906h5.906a.984.984 0 0 0 .984-.985v-3.205c0-1.139-.134-2.274-.398-3.381 1.03-.618 1.98-1.36 2.828-2.21l2.204-2.204a.984.984 0 0 0 0-1.392l-7.241-7.242zm.639-10.63a12.559 12.559 0 0 1-12.545 12.545h-2.285a7.833 7.833 0 0 0-1.594-3.84l1.618-1.618a14.406 14.406 0 0 0 4.214-9.218c.491-.058.985-.088 1.48-.09h9.112v2.222zM30.5 36.354a5.906 5.906 0 1 1 5.906-5.906 5.913 5.913 0 0 1-5.906 5.906zM44.029 7.806h2.221v4.922h-2.221c-.492 0-.984.026-1.474.075a14.434 14.434 0 0 0-1.113-4.727 12.6 12.6 0 0 1 2.587-.27zM35.411 3.3l1.523 1.563.009.009a12.56 12.56 0 0 1 0 17.74l-1.618 1.619a7.833 7.833 0 0 0-3.84-1.594V20.35a14.452 14.452 0 0 0-3.544-9.493c.307-.39.636-.761.987-1.112l6.483-6.447zM14.75 7.806h2.221a12.558 12.558 0 0 1 12.545 12.545v2.285a7.892 7.892 0 0 0-6.68 6.01 12.594 12.594 0 0 1-8.086-11.728V7.806zm-6.89 9.112v-2.221h4.921v2.22c0 .462.025.92.068 1.372a14.373 14.373 0 0 0-4.746 1.093 12.619 12.619 0 0 1-.244-2.464zm-4.515 8.491l1.508-1.507a12.406 12.406 0 0 1 8.32-3.657 14.612 14.612 0 0 0 6.834 9.223 14.449 14.449 0 0 0-9.011 3.466 12.717 12.717 0 0 1-1.106-.98L3.345 25.41zM7.86 43.976A12.559 12.559 0 0 1 20.404 31.43h2.285a7.833 7.833 0 0 0 1.594 3.84l-1.618 1.619a14.406 14.406 0 0 0-4.214 9.217c-.491.059-.985.089-1.48.09H7.859v-2.221zm9.112 9.111H14.75v-4.921h2.221c.492 0 .984-.026 1.474-.075a14.434 14.434 0 0 0 1.113 4.727c-.85.18-1.718.27-2.587.27zm8.618 4.508l-1.523-1.563-.009-.01a12.545 12.545 0 0 1 0-17.74l1.618-1.618a7.835 7.835 0 0 0 3.84 1.594v2.285a14.45 14.45 0 0 0 3.543 9.492c-.306.39-.635.762-.986 1.113l-6.483 6.447zm20.661-4.508H44.03a12.559 12.559 0 0 1-12.545-12.544v-2.285a7.892 7.892 0 0 0 6.68-6.01 12.593 12.593 0 0 1 8.086 11.728v9.111zm6.89-9.111v2.22H48.22v-2.22c0-.462-.025-.919-.068-1.372a14.375 14.375 0 0 0 4.746-1.092c.162.811.243 1.637.244 2.464zm3.007-6.984a12.411 12.411 0 0 1-8.32 3.657 14.612 14.612 0 0 0-6.834-9.223 14.448 14.448 0 0 0 9.011-3.466c.387.305.757.632 1.106.98l6.545 6.545-1.508 1.507z" fill="#DB0626"/></svg>