<svg width="81" height="77" fill="none" xmlns="http://www.w3.org/2000/svg"><path d="M32.56 55.32l-11.239 10.2m10.477-1.969l-3.497 3.946m-9.821-27.24c0 7.14-3.691 12.928-8.244 12.928s-8.244-5.788-8.244-12.928c0-7.14 3.691-12.927 8.244-12.927s8.244 5.788 8.244 12.927zm19.175-24.132c0 7.412-3.97 13.42-8.866 13.42-4.896 0-8.865-6.008-8.865-13.42 0-7.411 3.97-13.42 8.866-13.42 4.896 0 8.865 6.009 8.865 13.42zm25.567.333c0 8.044-4.43 14.564-9.895 14.564s-9.895-6.52-9.895-14.564 4.43-14.564 9.895-14.564 9.895 6.52 9.895 14.564zM76.11 31.932c3.43 1.783 3.86 7.706.96 13.23s-8.03 8.556-11.46 6.773c-3.43-1.782-3.86-7.706-.961-13.23 2.9-5.524 8.03-8.556 11.46-6.773zM25.7 74.516s12.985-5.755 29.479-1.437c0 0 9.28 2.056 11.954-3.899 2.675-5.955-4.533-9.435-8.243-10.646-3.711-1.21-8.244-8.822-8.244-8.822s-6.806-15.795-19.175-3.08C19.1 59.346 21.154 57.077 16.835 59.972c-4.32 2.894-4.139 17.432 8.866 14.544z" stroke="#0B8E42" stroke-width="3" stroke-linecap="round" stroke-linejoin="round"/></svg>