<svg width="88" height="41" fill="none" xmlns="http://www.w3.org/2000/svg"><path d="M28.1 11.535h-9.64v9.594h9.64v-9.594zm20.028 0h-9.64v9.594h9.64v-9.594zm20.367 0h-9.64v9.594h9.64v-9.594zM58.83 21.843h-9.64v9.594h9.64v-9.594zm-20.372 0h-9.64v9.594h9.64v-9.594z" stroke="#A15CE6" stroke-width="3" stroke-linecap="round" stroke-linejoin="round"/><path d="M16.246 1.947h55.512c3.776 0 7.398 1.493 10.068 4.15a14.135 14.135 0 0 1 4.17 10.02v22.83h-84V16.122c0-1.862.367-3.706 1.083-5.427a14.165 14.165 0 0 1 3.09-4.6 14.243 14.243 0 0 1 4.624-3.072 14.298 14.298 0 0 1 5.453-1.076z" stroke="#A15CE6" stroke-width="3" stroke-linecap="round" stroke-linejoin="round"/></svg>