<svg width="63" height="30" fill="none" xmlns="http://www.w3.org/2000/svg"><path d="M1.746 3.363c0-.93.741-1.666 1.635-1.666h9.538c.893 0 1.635.736 1.635 1.666v9.667c0 .93-.742 1.667-1.635 1.667H3.381c-.894 0-1.635-.737-1.635-1.667V3.363zm11.923 14.5c0-.93.741-1.666 1.635-1.666h9.538c.894 0 1.635.736 1.635 1.666v9.667c0 .93-.741 1.667-1.635 1.667h-9.538c-.894 0-1.635-.737-1.635-1.667v-9.667zm11.923-14.5c0-.93.742-1.666 1.635-1.666h9.538c.894 0 1.635.736 1.635 1.666v9.667c0 .93-.741 1.667-1.635 1.667h-9.538c-.893 0-1.635-.737-1.635-1.667V3.363zm11.923 14.5c0-.93.742-1.666 1.635-1.666h9.538c.894 0 1.635.736 1.635 1.666v9.667c0 .93-.741 1.667-1.635 1.667H39.15c-.893 0-1.635-.737-1.635-1.667v-9.667zm11.923-14.5c0-.93.742-1.666 1.635-1.666h9.538c.894 0 1.635.736 1.635 1.666v9.667c0 .93-.741 1.667-1.635 1.667h-9.538c-.893 0-1.635-.737-1.635-1.667V3.363z" stroke="#A15CE6" stroke-width="1.5"/></svg>