<svg width="49" height="58" fill="none" xmlns="http://www.w3.org/2000/svg"><path d="M42.52 8.728v.5h2.227a3.135 3.135 0 0 1 3.133 3.13v11.23a3.135 3.135 0 0 1-3.133 3.13H22.425v5.773h3.606c.339 0 .613.274.613.613v20.828a2.992 2.992 0 0 1-2.987 2.988h-3.69a2.992 2.992 0 0 1-2.987-2.988V33.104c0-.339.275-.613.613-.613H21.2v-6.387c0-.338.275-.613.613-.613h22.935c1.05 0 1.906-.852 1.906-1.903v-11.23a1.906 1.906 0 0 0-1.906-1.903H42.52v4.959c0 2.089-1.7 3.79-3.79 3.79H4.895a3.795 3.795 0 0 1-3.79-3.79V4.709a3.795 3.795 0 0 1 3.79-3.79H38.73c2.09 0 3.79 1.701 3.79 3.79v4.02zm-23.813 24.99h-.5v20.214c0 .972.79 1.761 1.76 1.761h3.69c.971 0 1.76-.79 1.76-1.76V33.716h-6.71zM38.73 17.976a2.565 2.565 0 0 0 2.563-2.563V4.709a2.565 2.565 0 0 0-2.563-2.563H4.895A2.565 2.565 0 0 0 2.331 4.71v10.705a2.565 2.565 0 0 0 2.563 2.563H38.73z" fill="#2FC9C8" stroke="#2FC9C8"/></svg>