<svg width="79" height="79" fill="none" xmlns="http://www.w3.org/2000/svg"><path d="M11.124 34.223s6.194 1.405 14.712-2.88a15.099 15.099 0 0 0 1.908-1.18c2.703-1.95 13.102-8.155 26.09 1.082.972.744 2.017 1.39 3.119 1.924 2.248.79 9.388 1.578 10.961 1.292m-.275 12.226H54.602s-7.778.216-8.335 7.605a95.235 95.235 0 0 0 0 13.766M11.124 46.687h13.042s7.772.216 8.33 7.605a95.235 95.235 0 0 1 0 13.766M77 39.92c0 20.71-16.79 37.5-37.5 37.5S2 60.63 2 39.92s16.79-37.5 37.5-37.5S77 19.21 77 39.92zm-8.567 0c0 15.98-12.954 28.933-28.933 28.933-15.98 0-28.933-12.954-28.933-28.933 0-15.98 12.954-28.933 28.933-28.933 15.98 0 28.933 12.954 28.933 28.933zm-22.166 0a6.767 6.767 0 1 1-13.534 0 6.767 6.767 0 0 1 13.534 0z" stroke="#0B8E42" stroke-width="3" stroke-linecap="round" stroke-linejoin="round"/></svg>