<svg width="66" height="61" fill="none" xmlns="http://www.w3.org/2000/svg"><path d="M49.897 40.45c-1.19-1.189-4.076-4.408-6.353-9.629a10.839 10.839 0 0 0-10.033-6.686 10.838 10.838 0 0 0-10.031 6.688c-2.857 6.551-6.76 10.018-6.797 10.051l-.013.012a10.886 10.886 0 0 0-3.622 8.1c0 3.773 1.797 7.054 4.914 9.133a12.045 12.045 0 0 0 9.875 1.594c1.69-.463 3.645-.707 5.655-.707 2.045 0 4.029.252 5.739.73 3.272.917 6.864.415 9.829-1.544 3.153-2.084 4.98-5.396 4.98-9.207 0-3.351-1.508-6.457-4.143-8.534zM47.66 56.074a9.432 9.432 0 0 1-7.745 1.219c-1.93-.54-4.15-.825-6.423-.825-2.234 0-4.421.276-6.327.797a9.507 9.507 0 0 1-7.794-1.257c-2.393-1.596-3.784-4.092-3.784-7.022a8.344 8.344 0 0 1 2.771-6.203c.271-.238 4.391-3.926 7.453-10.955l.009-.02a8.306 8.306 0 0 1 7.69-5.133 8.306 8.306 0 0 1 7.694 5.132l.008.02c2.487 5.706 5.688 9.23 6.949 10.48.036.035.075.069.115.1a8.28 8.28 0 0 1 3.225 6.58c0 2.953-1.413 5.483-3.841 7.087z" fill="#0B8E42"/><path d="M42.029 38.67a1.27 1.27 0 1 0-2.128 1.385c1.932 2.966 3.763 4.941 4.683 5.855a1.27 1.27 0 0 0 1.79-1.802c-.849-.842-2.542-2.67-4.346-5.439zM29.378 17.945c1.22-2.132 1.728-4.964 1.395-7.768-.645-5.461-4.41-10.036-8.618-9.53-1.9.224-3.59 1.472-4.758 3.511-1.219 2.13-1.727 4.963-1.395 7.77 1.053 8.918 9.355 13.041 13.376 6.017zM19.6 5.42c.695-1.214 1.78-2.27 3.177-2.27 2.498 0 5.005 3.354 5.474 7.325.27 2.277-.123 4.54-1.078 6.21-2.926 5.11-7.959.801-8.65-5.055-.27-2.279.123-4.542 1.077-6.21zM17.217 31.6c.368-2.263-.079-4.765-1.257-7.046-1.18-2.282-2.962-4.095-5.02-5.104-2.186-1.072-4.425-1.128-6.304-.156-1.879.97-3.128 2.828-3.519 5.231-.367 2.263.08 4.765 1.258 7.047 1.179 2.28 2.962 4.093 5.02 5.102 2.043 1.002 4.306 1.19 6.303.158 1.88-.971 3.13-2.83 3.52-5.232zm-4.684 2.976c-1.146.592-2.574.528-4.02-.181-1.573-.772-2.952-2.188-3.882-3.989-.93-1.8-1.288-3.745-1.007-5.474.258-1.59 1.031-2.79 2.178-3.383 1.268-.655 2.736-.45 4.02.18 1.573.772 2.951 2.189 3.882 3.99.93 1.8 1.288 3.745 1.007 5.474-.258 1.59-1.032 2.79-2.178 3.383zm30.481-13.058c3.848 0 7.361-4.201 7.997-9.566C51.687 6.237 48.808.635 44.235.635c-3.85 0-7.362 4.202-7.997 9.566-.677 5.726 2.211 11.317 6.776 11.317zM38.758 10.5c.47-3.971 2.978-7.326 5.476-7.326.117 0 .219.006.31.018 1.353.15 2.401 1.333 3.018 2.541.84 1.643 1.178 3.8.927 5.92-.488 4.114-3.215 7.643-5.786 7.309l-.014-.002c-1.154-.136-2.25-1.061-3.004-2.54-.84-1.642-1.177-3.8-.926-5.92zm27.109 14.03c-.803-4.944-5.272-7.308-9.822-5.075-4.257 2.088-7.038 7.467-6.278 12.15.813 5.003 5.327 7.28 9.822 5.075 4.258-2.089 7.038-7.467 6.278-12.15zm-7.396 9.87c-1.445.709-2.873.773-4.02.18-1.146-.592-1.92-1.793-2.178-3.382-.58-3.575 1.63-7.864 4.89-9.464 2.987-1.465 5.664-.086 6.198 3.203.58 3.568-1.624 7.861-4.89 9.463z" fill="#0B8E42"/></svg>