<svg width="57" height="46" fill="none" xmlns="http://www.w3.org/2000/svg"><path d="M56.996 33.938a3.285 3.285 0 0 0-3.281-3.282H52.62v-3.525c.045-.04.091-.077.135-.117.71-.647 2.193-1.06 3.16-1.073a1.094 1.094 0 0 0-.013-2.188h-.014c-.939.012-2.186.262-3.268.773V21.66c1.332-.545 2.217-1.916 2.027-3.438C53.358 7.85 44.493.03 34.028.03H23.964c-10.466 0-19.33 7.82-20.62 18.19-.19 1.517.689 2.891 2.026 3.438v2.819c-1.086-.492-2.336-.738-3.295-.724a1.094 1.094 0 0 0 .014 2.187h.014c.978-.015 2.496.393 3.237 1.069l.03.026v3.62H4.277a3.28 3.28 0 0 0-.538 6.518 3.11 3.11 0 0 0-.037 2.112 9.842 9.842 0 0 0 9.325 6.683h31.938a9.842 9.842 0 0 0 9.325-6.684 3.11 3.11 0 0 0-.037-2.11 3.281 3.281 0 0 0 2.743-3.237zM5.515 18.49C6.669 9.214 14.6 2.219 23.965 2.219h10.062c9.364 0 17.296 6.995 18.45 16.272.08.633-.414 1.183-1.023 1.224a.658.658 0 0 1-.078.004H6.616c-.644 0-1.184-.568-1.101-1.228zm40.679 6.907c-2.404-2.192-5.633-2.192-8.037 0-1.569 1.43-3.519 1.43-5.088 0-2.404-2.192-5.633-2.192-8.037 0-1.569 1.43-3.519 1.43-5.088 0-2.403-2.192-5.633-2.192-8.037 0-1.33 1.214-2.923 1.406-4.348.552v-4.044h42.875v4.108c-1.396.776-2.948.561-4.24-.616zm4.24 2.988v2.27H7.559v-2.303a5.5 5.5 0 0 0 1.804.307c1.412 0 2.82-.552 4.019-1.646 1.569-1.431 3.519-1.431 5.088 0 2.404 2.192 5.633 2.192 8.037 0 1.569-1.431 3.519-1.431 5.088 0 2.404 2.192 5.633 2.192 8.037 0 1.569-1.431 3.519-1.431 5.088 0 1.673 1.526 3.774 1.995 5.714 1.372zm1.785 10.198a7.655 7.655 0 0 1-7.254 5.197H13.027a7.655 7.655 0 0 1-7.253-5.197c-.227-.67.352-1.365 1.07-1.365h44.305c.72 0 1.295.698 1.07 1.365zm1.496-3.553H4.277a1.095 1.095 0 0 1 0-2.187h49.438a1.094 1.094 0 0 1 0 2.187z" fill="#FF7F00"/></svg>