<svg width="32" height="57" fill="none" xmlns="http://www.w3.org/2000/svg"><path d="M27.437.473H5.555a4.586 4.586 0 0 0-3.222 1.325A4.5 4.5 0 0 0 .996 4.99v46.967a4.5 4.5 0 0 0 1.337 3.192 4.586 4.586 0 0 0 3.222 1.324h21.882a4.586 4.586 0 0 0 3.222-1.324 4.5 4.5 0 0 0 1.337-3.192V4.99a4.5 4.5 0 0 0-1.337-3.192A4.586 4.586 0 0 0 27.437.473zM22.678 2.28l-.547.681h-11.27l-.547-.681h12.364zm7.495 49.677a2.7 2.7 0 0 1-.802 1.915 2.751 2.751 0 0 1-1.934.795H5.555c-.725 0-1.42-.287-1.933-.795a2.7 2.7 0 0 1-.802-1.915V4.99a2.7 2.7 0 0 1 .802-1.916 2.752 2.752 0 0 1 1.933-.794h2.9l.765 1.762a.902.902 0 0 0 .316.521.917.917 0 0 0 .578.205h12.764a.917.917 0 0 0 .578-.205.902.902 0 0 0 .317-.521l.765-1.762h2.9c.725 0 1.42.286 1.933.794a2.7 2.7 0 0 1 .802 1.916v46.967z" fill="#FFC219"/><path d="M19.215 51.054h-5.47a.916.916 0 0 0-.645.265.899.899 0 0 0 0 1.277c.171.17.403.265.645.265h5.47a.916.916 0 0 0 .645-.265.899.899 0 0 0 0-1.277.916.916 0 0 0-.645-.265z" fill="#FFC219"/></svg>