<svg width="65" height="55" fill="none" xmlns="http://www.w3.org/2000/svg"><path d="M59.465 20.659L52.05 3.304A4.049 4.049 0 0 0 48.318.841H16.682a4.062 4.062 0 0 0-3.733 2.463L5.535 20.66C2.272 22.157 0 25.458 0 29.279v10.829a4.074 4.074 0 0 0 4.063 4.062H5.42v6.767A4.074 4.074 0 0 0 9.483 55h5.421a4.074 4.074 0 0 0 4.063-4.063V44.17h27.079v6.767A4.074 4.074 0 0 0 50.108 55h5.421a4.074 4.074 0 0 0 4.063-4.063V44.17h1.346A4.074 4.074 0 0 0 65 40.108v-10.83c0-3.82-2.273-7.121-5.535-8.62zM15.437 4.37a1.36 1.36 0 0 1 1.245-.826h31.636a1.35 1.35 0 0 1 1.245.813l6.601 15.45a10.787 10.787 0 0 0-.635-.025H9.483c-.215 0-.431.012-.634.025L15.437 4.37zm.813 46.566a1.36 1.36 0 0 1-1.358 1.358H9.483a1.36 1.36 0 0 1-1.358-1.358V44.17h8.125v6.767zm39.267 1.358h-5.421a1.36 1.36 0 0 1-1.359-1.358V44.17h8.125v6.767h.013a1.36 1.36 0 0 1-1.358 1.358zm5.42-10.829H4.063a1.36 1.36 0 0 1-1.359-1.358v-10.83a6.773 6.773 0 0 1 6.767-6.766h46.046a6.773 6.773 0 0 1 6.766 6.767v10.829h.013a1.36 1.36 0 0 1-1.358 1.358z" fill="#798C00"/><path d="M12.188 25.216a6.773 6.773 0 0 0-6.767 6.767 6.773 6.773 0 0 0 6.766 6.766 6.773 6.773 0 0 0 6.767-6.766 6.773 6.773 0 0 0-6.767-6.767zm0 10.83a4.074 4.074 0 0 1-4.063-4.063 4.074 4.074 0 0 1 4.063-4.063 4.074 4.074 0 0 1 4.062 4.063 4.074 4.074 0 0 1-4.063 4.062zm40.625-10.83a6.773 6.773 0 0 0-6.767 6.767 6.773 6.773 0 0 0 6.767 6.766 6.773 6.773 0 0 0 6.766-6.766 6.773 6.773 0 0 0-6.766-6.767zm0 10.83a4.074 4.074 0 0 1-4.063-4.063 4.074 4.074 0 0 1 4.063-4.063 4.074 4.074 0 0 1 4.062 4.063 4.074 4.074 0 0 1-4.062 4.062zm-10.83-2.705H23.017a1.36 1.36 0 0 0-1.359 1.359c0 .749.61 1.358 1.358 1.358h18.955a1.36 1.36 0 0 0 1.358-1.358 1.35 1.35 0 0 0-1.346-1.359zm0-5.421H23.017a1.36 1.36 0 0 0-1.359 1.359c0 .749.61 1.358 1.358 1.358h18.955a1.36 1.36 0 0 0 1.358-1.358 1.35 1.35 0 0 0-1.346-1.359z" fill="#798C00"/></svg>