<svg width="43" height="64" fill="none" xmlns="http://www.w3.org/2000/svg"><path d="M40.211 16.648a6.112 6.112 0 0 0-4.355-1.81h-4.015V4.319c0-1.018-.339-1.98-.961-2.658A3.31 3.31 0 0 0 28.335.473H14.649a3.31 3.31 0 0 0-2.545 1.188c-.622.679-.961 1.64-.961 2.658v10.462H7.128c-1.697 0-3.28.679-4.355 1.81a6.111 6.111 0 0 0-1.81 4.355v30.708c0 1.696.679 3.28 1.81 4.354a6.117 6.117 0 0 0 3.28 1.697v1.3c0 1.245.51 2.376 1.3 3.168a4.488 4.488 0 0 0 3.168 1.3h.17a4.488 4.488 0 0 0 3.166-1.3 4.488 4.488 0 0 0 1.301-3.167v-1.188h12.668v1.188c0 1.244.509 2.375 1.3 3.167a4.488 4.488 0 0 0 3.168 1.3h.17c1.187 0 2.318-.452 3.11-1.244l.056-.056a4.488 4.488 0 0 0 1.301-3.167v-1.301c1.244-.226 2.375-.848 3.28-1.697a6.111 6.111 0 0 0 1.81-4.354V21.002c0-1.697-.679-3.28-1.81-4.354zM13.35 4.319c0-.452.17-.905.452-1.188.226-.282.509-.395.848-.395h13.686c.34 0 .622.17.848.395.283.283.453.736.453 1.188v10.462h-2.602V7.938c0-.735-.17-1.413-.509-1.922-.396-.68-1.018-1.075-1.753-1.075h-6.56c-.735 0-1.357.396-1.753 1.075-.34.509-.51 1.187-.51 1.922v6.9h-2.6V4.319zm4.863 3.62c0-.34.057-.566.17-.792h6.22c.114.17.17.452.17.735v6.9h-6.56V7.937zm-5.316 51.18c0 .622-.226 1.187-.679 1.583-.396.396-.961.679-1.583.679h-.17c-.622 0-1.187-.226-1.583-.679-.396-.396-.679-.961-.679-1.583V57.93h4.694v1.188zm21.886 0c0 .622-.226 1.187-.679 1.583l-.056.057a2.185 2.185 0 0 1-1.527.622h-.17c-.622 0-1.187-.226-1.583-.679-.396-.396-.679-.961-.679-1.583V57.93h4.694v1.188zm5.09-7.409c0 1.075-.453 2.093-1.188 2.771-.735.736-1.696 1.188-2.77 1.188H7.07c-1.074 0-2.092-.452-2.771-1.188-.735-.735-1.188-1.696-1.188-2.77v-30.71c0-1.074.453-2.092 1.188-2.771.735-.735 1.697-1.188 2.771-1.188H35.8c1.188 0 2.149.453 2.884 1.188.735.735 1.188 1.697 1.188 2.771V51.71z" fill="#61DB45"/></svg>