<svg width="64" height="76" fill="none" xmlns="http://www.w3.org/2000/svg"><path d="M52.184 67.087l.112-24.091c3.466-3.373 7.825-15.642 7.825-15.642s8.941-24.768-17.883-25.44C15.413 1.24 1.996 17.898 1.996 17.898s6.036 4.389 6.26 14.183c.224 9.795.22 35.005.22 35.005m51.62-16.237l-7.856 4.728M29.606 36.41l-8.667-.052m8.667 7.65h-8.667m8.667 7.32h-8.667M6.365 66.937h49.244a3.151 3.151 0 0 1 2.243.935 3.194 3.194 0 0 1 .928 2.258v3.763H3.214V70.13c0-.844.332-1.653.922-2.25a3.16 3.16 0 0 1 2.229-.943zm37.214-54.116V33.18c0 .406.123.803.352 1.137.23.335.556.59.934.733a1.97 1.97 0 0 0 2.19-.556c2.121-2.47 4.588-6.16 5.572-10.74.06-.284.089-.575.087-.867v-6.96a6.118 6.118 0 0 0-.673-2.8 6.07 6.07 0 0 0-1.876-2.175c-2.1-1.499-4.965-2.618-6.408.873a2.582 2.582 0 0 0-.178.996zm-14.59 47.956a8.021 8.021 0 0 1-5.689-2.376 8.134 8.134 0 0 1-2.355-5.73V35.337a8.134 8.134 0 0 1 2.359-5.728 8.021 8.021 0 0 1 5.69-2.373c2.134 0 4.18.854 5.69 2.373a8.134 8.134 0 0 1 2.36 5.728v17.335c0 1.065-.209 2.12-.614 3.103a8.109 8.109 0 0 1-1.746 2.63 8.046 8.046 0 0 1-2.613 1.757 8.002 8.002 0 0 1-3.082.616z" stroke="#FF6B00" stroke-width="3" stroke-linecap="round" stroke-linejoin="round"/></svg>