<svg width="56" height="79" fill="none" xmlns="http://www.w3.org/2000/svg"><path d="M50.01 29.993v1.5h.03l-.03-1.5zm3.916 4.659l1.47.296.003-.013-1.473-.283zm-7.9 39.209l1.466.314.002-.009.002-.009-1.47-.296zM42.11 77l.016-1.5h-.016V77zm-28.545 0v-1.5h-.015l.014 1.5zm-3.922-3.162l-1.472.285.002.01.002.011 1.468-.306zM2.057 34.623l-1.477.262.002.012.002.01 1.473-.284zm3.92-4.606l-.027 1.5h.028v-1.5zm36.768.403a1.5 1.5 0 1 0-2.966.45l2.966-.45zm-1.448 1.099l-1.496-.106-.004.053v.053h1.5zm-27.884 0h1.5v-.042l-.002-.041-1.498.083zm1.528-.673a1.5 1.5 0 0 0-2.963-.471l2.963.471zm-9.403-1.431a1.5 1.5 0 0 0 2.994-.183l-2.994.183zM5.606 5.96v-1.5A1.5 1.5 0 0 0 4.11 6.05l1.497-.091zm7.773 0l1.5.02a1.5 1.5 0 0 0-1.5-1.52v1.5zm-1.831 23.785a1.5 1.5 0 0 0 3 .042l-3-.042zm7.493 10.952a1.5 1.5 0 0 0 3 0h-3zm1.5-28.885h1.5a1.5 1.5 0 0 0-1.477-1.5l-.023 1.5zm6.476 31.972a1.5 1.5 0 1 0 3-.037l-3 .037zm.989-41.702l-.016-1.5A1.5 1.5 0 0 0 26.506 2.1l1.5-.018zM35.993 2h1.5A1.5 1.5 0 0 0 35.978.5l.015 1.5zm-1.5 19.683a1.5 1.5 0 1 0 3 0h-3zm3 5.189a1.5 1.5 0 0 0-3 0h3zm-3 14.162a1.5 1.5 0 0 0 3 0h-3zM20.541 18.791a1.5 1.5 0 0 0 0 3v-3zm7.465 3a1.5 1.5 0 1 0 0-3v3zm7.987-15.305a1.5 1.5 0 0 0 0 3v-3zm7.517 1.5l1.5.026a1.5 1.5 0 0 0-1.5-1.526v1.5zm-1.87 21.311a1.5 1.5 0 1 0 3 .053l-3-.053zm4.523-.29a1.5 1.5 0 0 0 2.933.633l-2.932-.633zm4.824-15.22l1.467.316a1.5 1.5 0 0 0-1.262-1.802l-.205 1.486zM40.838 31.493h9.172v-3h-9.172v3zm9.202 0a2.39 2.39 0 0 1 1.04.215l1.241-2.732a5.401 5.401 0 0 0-2.34-.483l.059 3zm1.04.215c.327.148.617.368.848.644l2.297-1.93a5.411 5.411 0 0 0-1.904-1.446l-1.24 2.732zm.848.644c.232.275.4.6.49.948l2.903-.755a5.422 5.422 0 0 0-1.096-2.124l-2.297 1.93zm.49.948c.09.35.103.715.035 1.07l2.946.565a5.427 5.427 0 0 0-.078-2.39l-2.903.755zm.037 1.056l-7.9 39.209 2.94.592 7.901-39.209-2.94-.592zM44.56 73.547a2.473 2.473 0 0 1-.871 1.413l1.876 2.34a5.473 5.473 0 0 0 1.928-3.125l-2.933-.628zm-.871 1.413a2.456 2.456 0 0 1-1.562.54l-.032 3a5.456 5.456 0 0 0 3.47-1.2l-1.876-2.34zm-1.578.54H13.565v3H42.11v-3zm-28.56 0a2.46 2.46 0 0 1-1.569-.546l-1.883 2.335a5.461 5.461 0 0 0 3.48 1.21l-.028-3zm-1.569-.546a2.479 2.479 0 0 1-.87-1.423l-2.936.613a5.48 5.48 0 0 0 1.923 3.145l1.883-2.335zm-.865-1.401L3.53 34.338l-2.945.57 7.587 39.215 2.945-.57zM3.534 34.36a2.429 2.429 0 0 1 .046-1.06l-2.895-.783a5.428 5.428 0 0 0-.105 2.368l2.954-.525zm.046-1.06c.094-.345.263-.665.494-.937L1.79 30.42a5.422 5.422 0 0 0-1.105 2.098l2.895.783zm.494-.937a2.41 2.41 0 0 1 .844-.635l-1.234-2.734a5.411 5.411 0 0 0-1.894 1.425l2.284 1.944zm.844-.635a2.4 2.4 0 0 1 1.032-.212l.056-3a5.403 5.403 0 0 0-2.322.478l1.234 2.734zm1.06-.212h7.93v-3h-7.93v3zm31.699 26.808c0 1.464-.91 2.986-2.787 4.213-1.864 1.218-4.528 2.02-7.547 2.02v3c3.517 0 6.77-.928 9.188-2.509 2.406-1.572 4.146-3.917 4.146-6.724h-3zm-10.334 6.234c-3.018 0-5.682-.803-7.546-2.021-1.878-1.227-2.787-2.749-2.787-4.213h-3c0 2.807 1.74 5.152 4.146 6.724 2.418 1.58 5.671 2.51 9.188 2.51v-3zm-10.332-6.234c0-1.464.909-2.986 2.786-4.213 1.864-1.218 4.528-2.02 7.546-2.02v-3c-3.516 0-6.769.928-9.187 2.51-2.406 1.571-4.145 3.916-4.145 6.723h3zm10.332-6.233c3.02 0 5.683.802 7.547 2.02 1.877 1.227 2.787 2.75 2.787 4.213h3c0-2.807-1.74-5.152-4.146-6.724-2.418-1.58-5.67-2.51-9.188-2.51v3zM39.78 30.87c.027.179.034.36.022.542l2.992.212a5.456 5.456 0 0 0-.048-1.205l-2.966.45zm.018.648c0 6.14-5.456 11.311-12.442 11.311v3c8.396 0 15.442-6.277 15.442-14.311h-3zM27.355 42.83c-6.985 0-12.442-5.187-12.442-11.311h-3c0 8.015 7.045 14.311 15.442 14.311v-3zM14.911 31.436c-.01-.197 0-.395.03-.59l-2.963-.471a5.775 5.775 0 0 0-.062 1.227l2.995-.166zm-6.379-2.204L7.103 5.868l-2.994.183 1.429 23.364 2.994-.183zM5.606 7.46h7.773v-3H5.606v3zm6.273-1.52l-.076 5.742 3 .04.075-5.742-3-.04zm-.076 5.74l-.255 18.065 3 .042.255-18.064-3-.042zm8.761-1.367l-7.238-.111-.046 3 7.238.11.046-3zm9.453 33.434l-.511-41.684-3 .037.511 41.684 3-.037zM28.02 3.581l7.987-.081-.03-3-7.988.082.031 3zM34.493 2v19.683h3V2h-3zm0 24.872v14.162h3V26.872h-3zm-13.952-5.08h7.465v-3H20.54v3zM35.993 9.485h7.517v-3h-7.517v3zM42.01 7.96l-.081 4.758 3 .05.08-4.757-2.999-.051zm-.081 4.757l-.29 16.58 3 .052.29-16.58-3-.052zm7.166 16.922l3.358-15.537-2.933-.633-3.358 15.537 2.933.633zM51.19 12.3l-7.557-1.042-.41 2.972 7.557 1.043.41-2.972zM22.04 40.697V11.812h-3v28.885h3z" fill="#FF6B00"/></svg>