<svg width="58" height="58" viewBox="0 0 58 58" fill="none" xmlns="http://www.w3.org/2000/svg">
<path d="M53.3194 21.416C53.8361 21.416 54.2549 20.9971 54.2549 20.4805V17.6741H57.0613V15.8032H0.933292V17.6741H3.73969V20.4805C3.73969 20.9971 4.15855 21.416 4.67516 21.416H5.61063V51.3509H4.67516C4.15855 51.3509 3.73969 51.7698 3.73969 52.2864V56.0282H0.933292V57.8992H57.0613V56.0282H54.2549V52.2864C54.2549 51.7698 53.8361 51.3509 53.3194 51.3509H52.384V21.416H53.3194ZM24.32 17.6741H33.6746V19.545H24.32V17.6741ZM31.8037 21.416V51.3509H26.1909V21.416H31.8037ZM5.61063 17.6741H14.9653V19.545H5.61063V17.6741ZM13.0944 21.416V51.3509H7.48156V21.416H13.0944ZM14.9653 55.0928H5.61063V53.2218H14.9653V55.0928ZM22.449 52.2864V56.0282H16.8362V52.2864C16.8362 51.7698 16.4174 51.3509 15.9008 51.3509H14.9653V21.416H15.9008C16.4174 21.416 16.8362 20.9971 16.8362 20.4805V17.6741H22.449V20.4805C22.449 20.9971 22.8679 21.416 23.3845 21.416H24.32V51.3509H23.3845C22.8679 51.3509 22.449 51.7698 22.449 52.2864ZM33.6746 55.0928H24.32V53.2218H33.6746V55.0928ZM41.1584 52.2864V56.0282H35.5456V52.2864C35.5456 51.7698 35.1267 51.3509 34.6101 51.3509H33.6746V21.416H34.6101C35.1267 21.416 35.5456 20.9971 35.5456 20.4805V17.6741H41.1584V20.4805C41.1584 20.9971 41.5772 21.416 42.0938 21.416H43.0293V51.3509H42.0938C41.5772 51.3509 41.1584 51.7698 41.1584 52.2864ZM52.384 55.0928H43.0293V53.2218H52.384V55.0928ZM44.9002 51.3509V21.416H50.513V51.3509H44.9002ZM43.0293 19.545V17.6741H52.384V19.545H43.0293Z" fill="#053FC1"/>
<path d="M57.4354 13.0734L29.3714 0.912362C29.1344 0.809812 28.8657 0.809812 28.6286 0.912362L0.564631 13.0734C0.0903493 13.2783 -0.128082 13.8289 0.076902 14.3032C0.224589 14.645 0.560889 14.8667 0.933205 14.8677H57.0612C57.5778 14.8694 57.9981 14.4521 57.9998 13.9355C58.0012 13.561 57.7792 13.2219 57.4354 13.0734ZM5.44403 12.9967L28.9972 2.79078L52.5504 12.9967H5.44403Z" fill="#053FC1"/>
</svg>
