<svg width="57" height="46" viewBox="0 0 57 46" fill="none" xmlns="http://www.w3.org/2000/svg">
<path d="M56.9961 33.9375C56.9961 32.1282 55.5241 30.6562 53.7148 30.6562H52.6211V27.1311C52.6662 27.0919 52.7121 27.0544 52.7564 27.0141C53.4663 26.3669 54.9493 25.9531 55.9161 25.9409C56.5201 25.9333 57.0036 25.4374 56.996 24.8335C56.9884 24.2342 56.5003 23.7535 55.9026 23.7535C55.898 23.7535 55.8932 23.7535 55.8886 23.7536C54.95 23.7654 53.703 24.0146 52.6211 24.5261V21.6591C53.9528 21.114 54.8382 19.7429 54.6481 18.2209C53.358 7.85113 44.493 0.03125 34.0273 0.03125H23.9648C13.4992 0.03125 4.63423 7.85112 3.34405 18.2204C3.1545 19.738 4.03387 21.112 5.37109 21.6592V24.4779C4.28511 23.9859 3.03517 23.7398 2.07552 23.7536C1.47155 23.7615 0.988328 24.2576 0.996203 24.8617C1.00408 25.4608 1.49222 25.941 2.08963 25.941C2.09444 25.941 2.09936 25.941 2.10428 25.9409C3.08231 25.9259 4.60044 26.3345 5.34091 27.0099C5.35075 27.019 5.36125 27.0275 5.3712 27.0365V30.6562H4.27734C2.46456 30.6562 0.996094 32.1245 0.996094 33.9375C0.996094 35.5634 2.185 36.9161 3.739 37.1738C3.48339 37.8485 3.46502 38.5857 3.70203 39.2862C5.05762 43.2832 8.80514 45.9688 13.0273 45.9688H44.9648C49.187 45.9688 52.9346 43.2832 54.2905 39.2855C54.5273 38.5857 54.5089 37.8489 54.2534 37.1742C55.7781 36.9235 56.9961 35.5967 56.9961 33.9375ZM5.5147 18.4909C6.66905 9.21426 14.6008 2.21875 23.9648 2.21875H34.0273C43.3914 2.21875 51.3231 9.21427 52.4775 18.4915C52.5565 19.1235 52.0633 19.6739 51.4542 19.7147C51.447 19.7151 51.4397 19.7158 51.4325 19.7165C51.4138 19.7181 51.3951 19.7188 51.3764 19.7188H6.61578C5.97156 19.7188 5.43234 19.1515 5.5147 18.4909ZM46.194 25.3975C43.7905 23.2057 40.561 23.2057 38.1575 25.3975C36.588 26.8286 34.6383 26.8286 33.069 25.3975C30.6655 23.2057 27.436 23.2057 25.0325 25.3975C23.463 26.8286 21.5133 26.8286 19.944 25.3975C17.5405 23.2058 14.311 23.2056 11.9072 25.3977C10.5771 26.6116 8.98364 26.8042 7.55859 25.9504V21.9062H50.4336V26.0138C49.0381 26.7903 47.4856 26.5754 46.194 25.3975ZM50.4336 28.386V30.6562H7.55859V28.3531C8.14998 28.5578 8.75691 28.6602 9.36328 28.66C10.7748 28.66 12.1825 28.1079 13.3816 27.0138C14.9509 25.5828 16.9008 25.5828 18.4701 27.0138C20.8736 29.2058 24.1032 29.2057 26.5066 27.0138C28.076 25.5828 30.0259 25.5828 31.5951 27.0138C33.9986 29.2058 37.2282 29.2057 39.6316 27.0138C41.2009 25.5827 43.1507 25.5829 44.7201 27.0138C46.3932 28.5398 48.4938 29.0088 50.4336 28.386ZM52.2186 38.5836C51.1642 41.6924 48.2492 43.7812 44.9648 43.7812H13.0273C9.74303 43.7812 6.82797 41.6924 5.77392 38.5843C5.54697 37.9138 6.12589 37.2188 6.84328 37.2188H51.1489C51.8689 37.2188 52.4441 37.9171 52.2186 38.5836ZM53.7148 35.0312H4.27734C3.67425 35.0312 3.18359 34.5406 3.18359 33.9375C3.18359 33.3336 3.67348 32.8438 4.27734 32.8438H53.7148C54.3179 32.8438 54.8086 33.3344 54.8086 33.9375C54.8086 34.5414 54.3187 35.0312 53.7148 35.0312Z" fill="#FF7F00"/>
</svg>
