<svg width="52" height="52" viewBox="0 0 52 52" fill="none" xmlns="http://www.w3.org/2000/svg">
<path d="M29.9879 24.5532C30.1383 24.8474 30.4375 25.0173 30.7469 25.0173C30.8761 25.0173 31.0087 24.9875 31.132 24.9247C31.1821 24.8992 36.1853 22.3577 38.6528 21.5782C39.0999 21.4363 39.348 20.9586 39.2061 20.5115C39.0649 20.0644 38.5907 19.8154 38.1394 19.9565C35.5401 20.7785 30.571 23.303 30.3602 23.41C29.942 23.6225 29.7754 24.1343 29.9879 24.5532Z" fill="#DB0626"/>
<path d="M30.747 14.8175C30.8762 14.8175 31.0088 14.7877 31.1321 14.7248C31.1822 14.6993 36.1854 12.1578 38.6529 11.3784C39.1 11.2364 39.3481 10.7587 39.2062 10.3117C39.0651 9.86454 38.5908 9.61551 38.1395 9.75666C35.5402 10.5786 30.5711 13.1031 30.3604 13.2102C29.9422 13.4227 29.7755 13.9343 29.988 14.3534C30.1384 14.6474 30.4376 14.8175 30.747 14.8175Z" fill="#DB0626"/>
<path d="M51.1467 13.1175C50.6767 13.1175 50.2967 13.4983 50.2967 13.9675V47.1172C50.2967 48.5231 49.1526 49.6672 47.7468 49.6672H27.3469V47.7114C28.5863 47.2779 31.8145 46.2672 34.9969 46.2672C42.4012 46.2672 47.4289 47.9069 47.479 47.9238C47.7348 48.0088 48.0205 47.9664 48.244 47.8065C48.4658 47.6467 48.5967 47.39 48.5967 47.1171V9.71755C48.5967 9.31892 48.3205 8.97377 47.9311 8.88791C47.9311 8.88791 47.2648 8.7392 46.1257 8.53002C45.6658 8.44505 45.2214 8.75105 45.1363 9.21174C45.0514 9.67412 45.3565 10.117 45.818 10.2019C46.2524 10.2818 46.6162 10.3524 46.8967 10.4085V45.9875C44.9706 45.4826 40.6935 44.5672 34.9968 44.5672C31.2933 44.5672 27.6554 45.7835 26.5299 46.1958C25.5295 45.7538 22.5053 44.5672 18.8468 44.5672C12.992 44.5672 8.16919 45.5328 6.09693 46.0233V10.3754C7.79436 9.95801 12.8077 8.86749 18.8468 8.86749C21.946 8.86749 24.6038 9.8322 25.6468 10.2683V43.7173C25.6468 44.0232 25.8117 44.3063 26.0777 44.4567C26.3438 44.6081 26.6719 44.6038 26.9345 44.4457C27.0187 44.3956 35.4404 39.3653 42.9153 36.8739C43.2629 36.7575 43.4967 36.4337 43.4967 36.0673V1.21755C43.4967 0.938748 43.3598 0.677773 43.1303 0.518898C42.9025 0.359922 42.6102 0.323366 42.3475 0.421182C35.5467 2.97196 28.6652 7.25423 28.5963 7.29676C28.1985 7.54579 28.077 8.07023 28.326 8.46806C28.5742 8.8659 29.0986 8.98742 29.4973 8.7384C29.5601 8.69846 35.5467 4.97379 41.7966 2.46037V35.4588C35.9945 37.475 29.9367 40.767 27.3467 42.2409V9.71755C27.3467 9.39542 27.1648 9.10127 26.8767 8.95684C26.7305 8.88463 23.2472 7.16757 18.8468 7.16757C11.1663 7.16757 5.26141 8.82934 5.01319 8.90066C4.64852 9.00435 4.39691 9.33844 4.39691 9.71755V47.1173C4.39691 47.3834 4.52272 47.635 4.73438 47.7956C4.884 47.9087 5.06419 47.9674 5.24697 47.9674C5.32516 47.9674 5.40336 47.9563 5.47986 47.9342C5.53853 47.918 11.4162 46.2673 18.8468 46.2673C21.9544 46.2673 24.6098 47.2346 25.6468 47.6689V49.6673H5.24697C3.84109 49.6673 2.69699 48.5232 2.69699 47.1173V13.9676C2.69699 13.4984 2.31619 13.1176 1.84703 13.1176C1.37787 13.1176 0.99707 13.4984 0.99707 13.9676V47.1173C0.99707 49.4607 2.90358 51.3673 5.24707 51.3673H47.7468C50.0902 51.3673 51.9968 49.4608 51.9968 47.1173V13.9676C51.9967 13.4983 51.6168 13.1175 51.1467 13.1175Z" fill="#DB0626"/>
<path d="M29.9879 19.4533C30.1383 19.7474 30.4375 19.9173 30.7469 19.9173C30.8761 19.9173 31.0087 19.8875 31.132 19.8247C31.1821 19.7992 36.1853 17.2577 38.6528 16.4782C39.0999 16.3363 39.348 15.8586 39.2061 15.4115C39.0649 14.9644 38.5907 14.7154 38.1394 14.8565C35.5401 15.6785 30.571 18.203 30.3602 18.31C29.942 18.5225 29.7754 19.0343 29.9879 19.4533Z" fill="#DB0626"/>
<path d="M29.9879 29.6533C30.1383 29.9474 30.4375 30.1173 30.7469 30.1173C30.8761 30.1173 31.0087 30.0876 31.132 30.0247C31.1821 29.9992 36.1853 27.4577 38.6528 26.6783C39.0999 26.5363 39.348 26.0586 39.2061 25.6115C39.0649 25.1644 38.5907 24.9154 38.1394 25.0565C35.5401 25.8785 30.571 28.403 30.3602 28.5101C29.942 28.7225 29.7754 29.2343 29.9879 29.6533Z" fill="#DB0626"/>
<path d="M21.59 16.1418C16.3413 14.9101 10.3769 16.4793 10.1262 16.5464C9.67314 16.6679 9.4037 17.1337 9.52522 17.5876C9.62722 17.9675 9.97058 18.2175 10.3455 18.2175C10.4186 18.2175 10.4925 18.2081 10.5665 18.1886C10.6235 18.1724 16.366 16.662 21.2025 17.7967C21.6573 17.903 22.1171 17.6199 22.2242 17.1626C22.3312 16.7062 22.0473 16.2489 21.59 16.1418Z" fill="#DB0626"/>
<path d="M21.59 21.2418C16.3413 20.0111 10.3769 21.5793 10.1262 21.6464C9.67314 21.768 9.4037 22.2338 9.52522 22.6876C9.62722 23.0675 9.97058 23.3175 10.3455 23.3175C10.4186 23.3175 10.4925 23.3081 10.5665 23.2886C10.6235 23.2724 16.366 21.762 21.2025 22.8967C21.6573 23.003 22.1171 22.7199 22.2242 22.2626C22.3312 21.8062 22.0473 21.3489 21.59 21.2418Z" fill="#DB0626"/>
<path d="M29.9879 34.7531C30.1383 35.0473 30.4375 35.2172 30.7469 35.2172C30.8761 35.2172 31.0087 35.1874 31.132 35.1246C31.1821 35.0991 36.1853 32.5575 38.6528 31.7781C39.0999 31.6362 39.348 31.1584 39.2061 30.7114C39.0649 30.2644 38.5907 30.0152 38.1394 30.1564C35.5401 30.9784 30.571 33.5028 30.3602 33.6099C29.942 33.8224 29.7754 34.3342 29.9879 34.7531Z" fill="#DB0626"/>
<path d="M21.59 26.3418C16.3413 25.111 10.3769 26.6784 10.1262 26.7464C9.67314 26.8679 9.4037 27.3338 9.52522 27.7876C9.62722 28.1675 9.97058 28.4183 10.3455 28.4183C10.4186 28.4183 10.4925 28.4082 10.5665 28.3885C10.6235 28.3724 16.366 26.8619 21.2025 27.9967C21.6573 28.103 22.1171 27.8199 22.2242 27.3626C22.3312 26.9062 22.0473 26.4489 21.59 26.3418Z" fill="#DB0626"/>
<path d="M21.59 36.5416C16.3413 35.3099 10.3769 36.8791 10.1262 36.9462C9.67314 37.0677 9.4037 37.5336 9.52522 37.9874C9.62722 38.3673 9.97058 38.6182 10.3455 38.6182C10.4186 38.6182 10.4925 38.608 10.5665 38.5884C10.6235 38.5722 16.366 37.0618 21.2025 38.1965C21.6573 38.3019 22.1171 38.0197 22.2242 37.5624C22.3312 37.106 22.0473 36.6487 21.59 36.5416Z" fill="#DB0626"/>
<path d="M21.59 31.4416C16.3413 30.2099 10.3769 31.7782 10.1262 31.8462C9.67314 31.9677 9.4037 32.4336 9.52522 32.8874C9.62722 33.2673 9.97058 33.5181 10.3455 33.5181C10.4186 33.5181 10.4925 33.5079 10.5665 33.4883C10.6235 33.4722 16.366 31.9617 21.2025 33.0965C21.6573 33.2027 22.1171 32.9197 22.2242 32.4624C22.3312 32.006 22.0473 31.5487 21.59 31.4416Z" fill="#DB0626"/>
</svg>
