<svg width="61" height="60" viewBox="0 0 61 60" fill="none" xmlns="http://www.w3.org/2000/svg">
<path d="M52.5019 27.5474C52.1588 27.2044 51.7967 26.88 51.4218 26.573C53.7989 23.9191 55.1121 20.4808 55.1093 16.9179V13.7125C55.1093 13.4515 55.0056 13.2011 54.821 13.0165C54.6364 12.8319 54.386 12.7282 54.125 12.7282H48.2187V6.82192C48.2187 6.56085 48.115 6.31047 47.9304 6.12587C47.7458 5.94126 47.4954 5.83755 47.2343 5.83755H44.029C42.8461 5.83767 41.6677 5.98205 40.5198 6.26748C39.9084 5.25465 39.1763 4.31983 38.3395 3.48354L36.1268 1.21308C36.036 1.11989 35.9276 1.04563 35.808 0.994584C35.6883 0.943536 35.5597 0.916716 35.4296 0.915675C35.2994 0.91339 35.1701 0.937592 35.0495 0.986813C34.9289 1.03603 34.8196 1.10925 34.7282 1.20201L27.5379 8.35103C27.1881 8.70072 26.8563 9.06787 26.5436 9.45107C23.9002 7.11953 20.4957 5.83443 16.971 5.83755H13.7656C13.5045 5.83755 13.2541 5.94126 13.0695 6.12587C12.8849 6.31047 12.7812 6.56085 12.7812 6.82192V12.7282H6.87497C6.6139 12.7282 6.36352 12.8319 6.17892 13.0165C5.99431 13.2011 5.8906 13.4515 5.8906 13.7125V16.9179C5.89081 18.0567 6.02462 19.1915 6.28927 20.2991C5.25913 20.9173 4.30903 21.66 3.46042 22.5104L1.25702 24.7129C1.07244 24.8975 0.96875 25.1479 0.96875 25.409C0.96875 25.67 1.07244 25.9204 1.25702 26.105L8.49821 33.3461C8.84126 33.6893 9.20339 34.0136 9.57819 34.3206C7.20098 36.9745 5.88775 40.413 5.8906 43.9759V47.1813C5.8906 47.4424 5.99431 47.6927 6.17892 47.8773C6.36352 48.062 6.6139 48.1657 6.87497 48.1657H12.7812V54.0719C12.7812 54.333 12.8849 54.5834 13.0695 54.768C13.2541 54.9526 13.5045 55.0563 13.7656 55.0563H16.971C18.1538 55.0562 19.3322 54.9118 20.4801 54.6264C21.0915 55.6392 21.8236 56.574 22.6604 57.4103L24.8732 59.6808C24.964 59.7739 25.0723 59.8482 25.192 59.8993C25.3116 59.9503 25.4402 59.9771 25.5703 59.9782H25.5781C25.8382 59.9782 26.0878 59.8752 26.2722 59.6918L33.4626 52.5428C33.8117 52.1925 34.1428 51.8247 34.4547 51.4409C37.0983 53.7735 40.5034 55.0593 44.029 55.0563H47.2343C47.4954 55.0563 47.7458 54.9526 47.9304 54.768C48.115 54.5834 48.2187 54.333 48.2187 54.0719V48.1657H54.125C54.386 48.1657 54.6364 48.062 54.821 47.8773C55.0056 47.6927 55.1093 47.4424 55.1093 47.1813V43.9759C55.1091 42.8372 54.9753 41.7024 54.7107 40.5948C55.7408 39.9768 56.6909 39.2343 57.5395 38.3841L59.7429 36.1809C59.9275 35.9963 60.0312 35.7459 60.0312 35.4849C60.0312 35.2238 59.9275 34.9735 59.7429 34.7889L52.5019 27.5474ZM53.1406 16.9179C53.1368 20.2438 51.814 23.4324 49.4622 25.7842C47.1105 28.1359 43.9219 29.4588 40.596 29.4625H38.3112C38.1355 28.0621 37.5847 26.7352 36.717 25.622L38.335 24.0039C40.8097 21.5432 42.307 18.2679 42.5487 14.7864C43.04 14.7278 43.5342 14.6979 44.029 14.6969H53.1406V16.9179ZM30.5 36.3532C29.3318 36.3532 28.1899 36.0068 27.2186 35.3578C26.2474 34.7088 25.4903 33.7864 25.0433 32.7071C24.5963 31.6279 24.4793 30.4404 24.7072 29.2947C24.9351 28.149 25.4976 27.0966 26.3236 26.2706C27.1496 25.4446 28.202 24.8821 29.3477 24.6542C30.4934 24.4263 31.681 24.5432 32.7602 24.9903C33.8394 25.4373 34.7619 26.1943 35.4108 27.1656C36.0598 28.1369 36.4062 29.2788 36.4062 30.4469C36.4044 32.0128 35.7816 33.514 34.6743 34.6213C33.5671 35.7285 32.0659 36.3514 30.5 36.3532ZM44.029 7.8063H46.25V12.7282H44.029C43.5368 12.7285 43.0449 12.7535 42.5552 12.8032C42.4538 11.1757 42.0772 9.57722 41.4417 8.07553C42.2925 7.89676 43.1596 7.80654 44.029 7.8063ZM35.4109 3.29922L36.934 4.86191C36.9369 4.86486 36.9399 4.86794 36.943 4.87089C39.292 7.22532 40.6113 10.4154 40.6113 13.7413C40.6113 17.0672 39.292 20.2572 36.943 22.6117L35.325 24.2296C34.2117 23.362 32.8848 22.8113 31.4843 22.6357V20.3509C31.4875 16.8626 30.2288 13.4908 27.9406 10.8579C28.2476 10.4682 28.5772 10.0969 28.9277 9.74589L35.4109 3.29922ZM14.75 7.8063H16.971C20.2969 7.81004 23.4855 9.13291 25.8372 11.4847C28.189 13.8364 29.5119 17.025 29.5156 20.3509V22.6357C27.9229 22.839 26.4302 23.5232 25.2365 24.5971C24.0429 25.671 23.2052 27.0834 22.8353 28.6458C20.4612 27.7356 18.4182 26.1282 16.975 24.0349C15.5319 21.9416 14.7562 19.4605 14.75 16.9179V7.8063ZM7.85935 16.9179V14.6969H12.7812V16.9179C12.7812 17.3792 12.8058 17.8361 12.849 18.2888C11.2164 18.3805 9.61149 18.7501 8.10323 19.3817C7.94137 18.5704 7.85969 17.7452 7.85935 16.9179ZM3.34513 25.4093L4.85258 23.9018C7.06362 21.6741 10.0369 20.3673 13.1731 20.2447C13.6305 22.1638 14.4718 23.9704 15.6463 25.5556C16.8208 27.1408 18.3041 28.4718 20.0068 29.4682C16.6946 29.5562 13.5133 30.7799 10.9959 32.9343C10.6087 32.6293 10.2395 32.3021 9.89024 31.9542L3.34513 25.4093ZM7.85935 43.9759C7.86309 40.65 9.18596 37.4614 11.5377 35.1097C13.8895 32.7579 17.0781 31.435 20.404 31.4313H22.6887C22.8644 32.8317 23.4152 34.1586 24.2829 35.2718L22.665 36.8899C20.1903 39.3506 18.693 42.6259 18.4512 46.1073C17.96 46.166 17.4657 46.1959 16.971 46.1969H7.85935V43.9759ZM16.971 53.0875H14.75V48.1657H16.971C17.4632 48.1653 17.955 48.1403 18.4447 48.0906C18.5462 49.7181 18.9227 51.3166 19.5583 52.8183C18.7074 52.9971 17.8404 53.0873 16.971 53.0875ZM25.589 57.5946L24.066 56.0319C24.063 56.029 24.0601 56.0259 24.057 56.0229C21.7045 53.6704 20.3828 50.4796 20.3828 47.1526C20.3828 43.8255 21.7045 40.6348 24.057 38.2822L25.6749 36.6642C26.7882 37.5318 28.1152 38.0825 29.5156 38.2582V40.5429C29.5124 44.0307 30.7707 47.402 33.0584 50.0347C32.7518 50.4249 32.4226 50.7967 32.0725 51.1483L25.589 57.5946ZM46.25 53.0875H44.029C40.7031 53.0838 37.5145 51.7609 35.1627 49.4092C32.811 47.0574 31.4881 43.8688 31.4843 40.5429V38.2582C33.077 38.0549 34.5698 37.3706 35.7634 36.2967C36.957 35.2229 37.7947 33.8105 38.1647 32.2481C40.5388 33.1582 42.5817 34.7657 44.0249 36.859C45.468 38.9523 46.2437 41.4334 46.25 43.9759V53.0875ZM53.1406 43.9759V46.1969H48.2187V43.9759C48.2187 43.5144 48.1941 43.0573 48.1509 42.6043C49.7835 42.5128 51.3885 42.1435 52.8968 41.5122C53.0586 42.3234 53.1402 43.1487 53.1406 43.9759ZM56.1474 36.992C53.936 39.2193 50.963 40.526 47.8268 40.6491C47.3694 38.73 46.5281 36.9234 45.3536 35.3382C44.1792 33.753 42.6959 32.4221 40.9932 31.4256C44.3054 31.3377 47.4867 30.1139 50.004 27.9595C50.3913 28.2645 50.7605 28.5917 51.1097 28.9396L57.6548 35.4846L56.1474 36.992Z" fill="#DB0626"/>
</svg>
