<svg width="64" height="54" viewBox="0 0 64 54" fill="none" xmlns="http://www.w3.org/2000/svg">
<path d="M63.5317 26.0105C63.2385 25.8123 62.8661 25.7723 62.5376 25.9039L51.8709 30.1705C51.466 30.3322 51.2003 30.7243 51.2 31.1604H49.0667V24.7604C49.0667 22.993 47.634 21.5604 45.8667 21.5604H39.4667H19.2H9.6C7.83267 21.5604 6.4 22.993 6.4 24.7604V25.4132L1.40373 23.7481C0.8448 23.562 0.2408 23.8641 0.0546667 24.423C0.0184 24.5319 0 24.6457 0 24.7604V37.5604C0 38.1494 0.4776 38.6271 1.06667 38.6271C1.1812 38.6269 1.29493 38.6087 1.40373 38.5727L6.4 36.9076V50.3604C6.4 52.1277 7.83267 53.5604 9.6 53.5604H45.8667C47.634 53.5604 49.0667 52.1277 49.0667 50.3604V43.9604H51.2C51.1999 44.3968 51.4656 44.7895 51.8709 44.9513L62.5376 49.218C62.8661 49.3496 63.2385 49.3096 63.5317 49.1113C63.8249 48.9127 64.0004 48.5813 64 48.2271V26.8937C64 26.5399 63.8247 26.2091 63.5317 26.0105ZM6.4 34.658L2.13333 36.0809V26.2398L6.4 27.6628V34.658ZM46.9333 50.3604C46.9333 50.9495 46.4557 51.4271 45.8667 51.4271H9.6C9.01093 51.4271 8.53333 50.9495 8.53333 50.3604V24.7604C8.53333 24.1713 9.01093 23.6937 9.6 23.6937H45.8667C46.4557 23.6937 46.9333 24.1713 46.9333 24.7604V50.3604ZM51.2 41.827H49.0667V33.2937H51.2V41.827ZM61.8667 46.6516L53.3333 43.2383V31.8825L61.8667 28.4692V46.6516Z" fill="#A15CE6"/>
<path d="M29.8667 10.8937C29.8667 5.00265 25.0911 0.227051 19.2 0.227051C13.3089 0.227051 8.53332 5.00265 8.53332 10.8937C8.53332 16.7848 13.3089 21.5604 19.2 21.5604C25.0884 21.5539 29.8603 16.7821 29.8667 10.8937ZM19.2 19.427C14.4872 19.427 10.6667 15.6065 10.6667 10.8937C10.6667 6.18092 14.4872 2.36038 19.2 2.36038C23.9128 2.36038 27.7333 6.18092 27.7333 10.8937C27.728 15.6044 23.9107 19.4217 19.2 19.427Z" fill="#A15CE6"/>
<path d="M46.9333 14.0937C46.9333 9.96999 43.5904 6.62706 39.4667 6.62706C35.3429 6.62706 32 9.96999 32 14.0937C32 18.2175 35.3429 21.5604 39.4667 21.5604C43.5884 21.5557 46.9287 18.2155 46.9333 14.0937ZM39.4667 19.4271C36.5212 19.4271 34.1333 17.0392 34.1333 14.0937C34.1333 11.1483 36.5212 8.76039 39.4667 8.76039C42.4121 8.76039 44.8 11.1483 44.8 14.0937C44.7965 17.0377 42.4107 19.4236 39.4667 19.4271Z" fill="#A15CE6"/>
<path d="M38.4 27.9604H17.0667C16.4776 27.9604 16 28.438 16 29.0271V46.0937C16 46.6828 16.4776 47.1604 17.0667 47.1604H38.4C38.9891 47.1604 39.4667 46.6828 39.4667 46.0937V29.0271C39.4667 28.438 38.9891 27.9604 38.4 27.9604ZM37.3333 45.0271H18.1333V30.0937H37.3333V45.0271Z" fill="#A15CE6"/>
</svg>
