<svg width="63" height="64" viewBox="0 0 63 64" fill="none" xmlns="http://www.w3.org/2000/svg">
<path d="M24.1509 43.5212H19.9516V39.3218C19.9516 38.7421 19.4815 38.272 18.9017 38.272H14.7023C14.1226 38.272 13.6525 38.7421 13.6525 39.3218V43.5212H9.4531C8.87332 43.5212 8.40325 43.9913 8.40325 44.5711V48.7705C8.40325 49.3502 8.87332 49.8203 9.4531 49.8203H13.6525V54.0197C13.6525 54.5995 14.1226 55.0695 14.7023 55.0695H18.9017C19.4815 55.0695 19.9516 54.5995 19.9516 54.0197V49.8203H24.1509C24.7307 49.8203 25.2008 49.3502 25.2008 48.7705V44.5711C25.2008 43.9913 24.7307 43.5212 24.1509 43.5212ZM23.1011 47.7206H18.9017C18.3219 47.7206 17.8519 48.1907 17.8519 48.7705V52.9698H15.7522V48.7705C15.7522 48.1907 15.2821 47.7206 14.7023 47.7206H10.5029V45.6209H14.7023C15.2821 45.6209 15.7522 45.1508 15.7522 44.5711V40.3717H17.8519V44.5711C17.8519 45.1508 18.3219 45.6209 18.9017 45.6209H23.1011V47.7206Z" fill="#0B8E42"/>
<path d="M62.8904 44.753C62.0851 37.5185 55.2905 30.7501 48.0497 29.9785C47.4348 29.9106 46.8166 29.8756 46.1978 29.8735H34.6495V25.6741H32.5498V23.5744C32.5498 21.2552 30.6697 19.375 28.3504 19.375H23.1012C21.9415 19.375 21.0015 18.435 21.0015 17.2753C21.0015 16.1156 21.9415 15.1756 23.1012 15.1756H39.8987C42.218 15.1756 44.0981 13.2955 44.0981 10.9763C44.0981 8.65701 42.218 6.77686 39.8987 6.77686H34.6495C33.4898 6.77686 32.5498 5.83686 32.5498 4.67717V0.477783H30.4501V4.67717C30.4501 6.99641 32.3302 8.87656 34.6495 8.87656H39.8987C41.0584 8.87656 41.9984 9.81656 41.9984 10.9763C41.9984 12.1359 41.0584 13.0759 39.8987 13.0759H23.1012C20.7819 13.0759 18.9018 14.9561 18.9018 17.2753C18.9018 19.5946 20.7819 21.4747 23.1012 21.4747H28.3504C29.5101 21.4747 30.4501 22.4147 30.4501 23.5744V25.6741H28.3504V29.8735H16.8021C16.1827 29.8749 15.5637 29.91 14.9481 29.9785C7.70413 30.7554 0.913716 37.5237 0.110583 44.7582C-0.944119 53.9751 5.67254 62.3019 14.8895 63.3567C18.6427 63.7862 22.4311 62.9379 25.6429 60.9491C27.0256 60.0439 28.6062 59.4853 30.2506 59.3208C31.063 59.2566 31.8788 59.2537 32.6915 59.3124C34.362 59.4739 35.968 60.0389 37.3717 60.9585C45.2633 65.8356 55.6144 63.392 60.4915 55.5003C62.476 52.2892 63.3211 48.5032 62.8904 44.753ZM30.4501 27.7738H32.5498V29.8735H30.4501V27.7738ZM57.153 56.4703C52.4065 61.7794 44.5354 62.9187 38.4783 59.1737C36.7869 58.0722 34.8519 57.4009 32.8417 57.2178C32.3986 57.1857 31.9514 57.1695 31.5 57.1695C31.0223 57.1695 30.5551 57.1895 30.0848 57.2262C28.1051 57.4158 26.2007 58.0807 24.5332 59.1642C17.6302 63.4351 8.57195 61.3016 4.30092 54.3986C2.56224 51.5884 1.82131 48.2743 2.19768 44.9913C2.88848 38.7741 8.95029 32.7354 15.1738 32.0666C15.7145 32.0061 16.258 31.975 16.8021 31.9732H46.1978C46.7418 31.9736 47.2853 32.0026 47.8261 32.0603C54.0486 32.7291 60.1093 38.7678 60.8022 44.985C61.2972 49.1604 59.9672 53.3464 57.153 56.4703Z" fill="#0B8E42"/>
<path d="M46.1978 36.1723C43.8786 36.1723 41.9984 38.0525 41.9984 40.3717C41.9984 42.691 43.8786 44.5711 46.1978 44.5711C48.517 44.5711 50.3972 42.691 50.3972 40.3717C50.3972 38.0525 48.517 36.1723 46.1978 36.1723ZM46.1978 42.4714C45.0381 42.4714 44.0981 41.5314 44.0981 40.3717C44.0981 39.212 45.0381 38.272 46.1978 38.272C47.3575 38.272 48.2975 39.212 48.2975 40.3717C48.2975 41.5314 47.3574 42.4714 46.1978 42.4714Z" fill="#0B8E42"/>
<path d="M46.1978 48.7704C43.8786 48.7704 41.9984 50.6506 41.9984 52.9698C41.9984 55.289 43.8786 57.1692 46.1978 57.1692C48.517 57.1692 50.3972 55.289 50.3972 52.9698C50.3972 50.6506 48.517 48.7704 46.1978 48.7704ZM46.1978 55.0695C45.0381 55.0695 44.0981 54.1295 44.0981 52.9698C44.0981 51.8101 45.0381 50.8701 46.1978 50.8701C47.3575 50.8701 48.2975 51.8101 48.2975 52.9698C48.2975 54.1295 47.3574 55.0695 46.1978 55.0695Z" fill="#0B8E42"/>
<path d="M38.8488 42.4714C36.5296 42.4714 34.6494 44.3516 34.6494 46.6708C34.6494 48.9901 36.5296 50.8702 38.8488 50.8702C41.168 50.8702 43.0482 48.9901 43.0482 46.6708C43.0482 44.3516 41.168 42.4714 38.8488 42.4714ZM38.8488 48.7705C37.6891 48.7705 36.7491 47.8305 36.7491 46.6708C36.7491 45.5111 37.6891 44.5711 38.8488 44.5711C40.0085 44.5711 40.9485 45.5111 40.9485 46.6708C40.9485 47.8305 40.0084 48.7705 38.8488 48.7705Z" fill="#0B8E42"/>
<path d="M53.5467 42.4714C51.2274 42.4714 49.3473 44.3516 49.3473 46.6708C49.3473 48.9901 51.2274 50.8702 53.5467 50.8702C55.8659 50.8702 57.746 48.9901 57.746 46.6708C57.746 44.3516 55.8659 42.4714 53.5467 42.4714ZM53.5467 48.7705C52.387 48.7705 51.447 47.8305 51.447 46.6708C51.447 45.5111 52.387 44.5711 53.5467 44.5711C54.7063 44.5711 55.6463 45.5111 55.6463 46.6708C55.6463 47.8305 54.7062 48.7705 53.5467 48.7705Z" fill="#0B8E42"/>
</svg>
