<svg width="65" height="55" viewBox="0 0 65 55" fill="none" xmlns="http://www.w3.org/2000/svg">
<path d="M59.4648 20.6587L52.0508 3.3042C51.416 1.80615 49.9434 0.841309 48.3184 0.841309H16.6816C15.0566 0.841309 13.5967 1.80615 12.9492 3.3042L5.53516 20.6587C2.27246 22.1567 0 25.4575 0 29.2788V40.1079C0 42.3423 1.82812 44.1704 4.0625 44.1704H5.4209V50.937C5.4209 53.1714 7.24902 54.9995 9.4834 54.9995H14.9043C17.1387 54.9995 18.9668 53.1714 18.9668 50.937V44.1704H46.0459V50.937C46.0459 53.1714 47.874 54.9995 50.1084 54.9995H55.5293C57.7637 54.9995 59.5918 53.1714 59.5918 50.937V44.1704H60.9375C63.1719 44.1704 65 42.3423 65 40.1079V29.2788C65 25.4575 62.7275 22.1567 59.4648 20.6587ZM15.4375 4.37061C15.6533 3.87549 16.1357 3.54541 16.6816 3.54541H48.3184C48.8643 3.54541 49.3467 3.86279 49.5625 4.35791L56.1641 19.8081C55.9482 19.7954 55.7324 19.7827 55.5293 19.7827H9.4834C9.26758 19.7827 9.05176 19.7954 8.84863 19.8081L15.4375 4.37061ZM16.25 50.937C16.25 51.686 15.6406 52.2954 14.8916 52.2954H9.4834C8.73438 52.2954 8.125 51.686 8.125 50.937V44.1704H16.25V50.937ZM55.5166 52.2954H50.0957C49.3467 52.2954 48.7373 51.686 48.7373 50.937V44.1704H56.8623V50.937H56.875C56.875 51.686 56.2656 52.2954 55.5166 52.2954ZM60.9375 41.4663H4.0625C3.31348 41.4663 2.7041 40.8569 2.7041 40.1079V29.2788C2.7041 25.5464 5.73828 22.5122 9.4707 22.5122H55.5166C59.249 22.5122 62.2832 25.5464 62.2832 29.2788V40.1079H62.2959C62.2959 40.8569 61.6865 41.4663 60.9375 41.4663Z" fill="#798C00"/>
<path d="M12.1875 25.2163C8.45512 25.2163 5.42094 28.2505 5.42094 31.9829C5.42094 35.7153 8.45512 38.7495 12.1875 38.7495C15.92 38.7495 18.9541 35.7153 18.9541 31.9829C18.9541 28.2505 15.92 25.2163 12.1875 25.2163ZM12.1875 36.0454C9.95317 36.0454 8.12504 34.2173 8.12504 31.9829C8.12504 29.7485 9.95317 27.9204 12.1875 27.9204C14.4219 27.9204 16.25 29.7485 16.25 31.9829C16.25 34.2173 14.4219 36.0454 12.1875 36.0454Z" fill="#798C00"/>
<path d="M52.8126 25.2163C49.0801 25.2163 46.046 28.2505 46.046 31.9829C46.046 35.7153 49.0801 38.7495 52.8126 38.7495C56.545 38.7495 59.5792 35.7153 59.5792 31.9829C59.5792 28.2505 56.545 25.2163 52.8126 25.2163ZM52.8126 36.0454C50.5782 36.0454 48.7501 34.2173 48.7501 31.9829C48.7501 29.7485 50.5782 27.9204 52.8126 27.9204C55.0469 27.9204 56.8751 29.7485 56.8751 31.9829C56.8751 34.2173 55.0469 36.0454 52.8126 36.0454Z" fill="#798C00"/>
<path d="M41.9833 33.3413H23.0165C22.2675 33.3413 21.6581 33.9507 21.6581 34.6997C21.6581 35.4487 22.2675 36.0581 23.0165 36.0581H41.9706C42.7197 36.0581 43.329 35.4487 43.329 34.6997C43.329 33.9507 42.7323 33.3413 41.9833 33.3413Z" fill="#798C00"/>
<path d="M41.9833 27.9204H23.0165C22.2675 27.9204 21.6581 28.5297 21.6581 29.2788C21.6581 30.0278 22.2675 30.6372 23.0165 30.6372H41.9706C42.7197 30.6372 43.329 30.0278 43.329 29.2788C43.329 28.5297 42.7323 27.9204 41.9833 27.9204Z" fill="#798C00"/>
</svg>
