<svg width="49" height="58" viewBox="0 0 49 58" fill="none" xmlns="http://www.w3.org/2000/svg">
<path d="M42.5199 8.72823V9.22823H43.0199H44.7467C46.4744 9.22823 47.8799 10.633 47.8799 12.3574V23.5884C47.8799 25.3128 46.4743 26.7175 44.7466 26.7175H22.9255H22.4255V27.2175V31.9907V32.4907H22.9255H26.0311C26.3697 32.4907 26.6444 32.7654 26.6444 33.104V53.9323C26.6444 55.5792 25.3036 56.9199 23.6568 56.9199H19.9676C18.3208 56.9199 16.98 55.5792 16.98 53.9323V33.104C16.98 32.7654 17.2547 32.4907 17.5933 32.4907H20.699H21.199V31.9907V26.1042C21.199 25.7656 21.4737 25.4909 21.8123 25.4909H44.7467C45.7972 25.4909 46.6534 24.6392 46.6534 23.5884V12.3574C46.6534 11.3064 45.7972 10.4548 44.7467 10.4548H43.0199H42.5199V10.9548V15.4139C42.5199 17.5028 40.8195 19.2032 38.7305 19.2032H4.89399C2.80507 19.2032 1.10474 17.5028 1.10474 15.4139V4.70917C1.10474 2.62026 2.80507 0.919922 4.89399 0.919922H38.7305C40.8195 0.919922 42.5199 2.62027 42.5199 4.70917V8.72823ZM18.7066 33.7172H18.2066V34.2172V53.9323C18.2066 54.9038 18.9961 55.6934 19.9676 55.6934H23.6568C24.6283 55.6934 25.4178 54.9038 25.4178 53.9323V34.2172V33.7172H24.9178H18.7066ZM38.7305 17.9767C40.1439 17.9767 41.2933 16.8277 41.2933 15.414V4.70917C41.2933 3.29568 40.1441 2.14648 38.7305 2.14648H4.89399C3.48039 2.14648 2.3313 3.29572 2.3313 4.70917V15.414C2.3313 16.8275 3.48039 17.9767 4.89399 17.9767H38.7305Z" fill="#2FC9C8" stroke="#2FC9C8"/>
</svg>
