<svg width="50" height="59" viewBox="0 0 50 59" fill="none" xmlns="http://www.w3.org/2000/svg">
<path d="M33.2635 7.53413C32.6806 3.44853 29.1243 0.367188 24.9918 0.367188C22.3341 0.367188 19.81 1.64966 18.2407 3.79903C17.9201 4.23737 18.016 4.85225 18.4544 5.1728C18.8913 5.4922 19.5076 5.39744 19.8276 4.95853C21.0288 3.3149 22.959 2.33338 24.9915 2.33338C28.152 2.33338 30.871 4.68867 31.3169 7.81148C31.3871 8.30195 31.8079 8.65591 32.2892 8.65591C32.335 8.65591 32.3822 8.65245 32.4291 8.64611C32.9666 8.56922 33.3401 8.07126 33.2635 7.53413Z" fill="#2B74B9"/>
<path d="M47.4616 18.5389L44.5125 13.6236C44.3351 13.3272 44.0151 13.1464 43.6695 13.1464H40.8433C40.3007 13.1464 39.8604 13.5867 39.8604 14.1293C39.8604 14.6719 40.3007 15.1123 40.8433 15.1123H43.1131L44.8826 18.0614H5.10047L6.86996 15.1123H7.91108C8.45368 15.1123 8.89404 14.6719 8.89404 14.1293C8.89404 13.5867 8.45368 13.1464 7.91108 13.1464H6.31353C5.96793 13.1464 5.64796 13.3272 5.47055 13.6236L2.5214 18.5389C2.3391 18.843 2.33478 19.2212 2.50902 19.5294C2.68326 19.8375 3.00985 20.0282 3.36439 20.0282H46.6186C46.9732 20.0282 47.2995 19.8375 47.474 19.5294C47.6485 19.2212 47.6439 18.8425 47.4616 18.5389Z" fill="#2B74B9"/>
<path d="M42.5617 9.47476C42.424 9.25271 42.2043 9.09517 41.9502 9.03584L28.5492 5.90151C28.2955 5.84189 28.0282 5.88624 27.8064 6.02333C27.5852 6.161 27.4274 6.38074 27.3681 6.63476L26.3575 10.9548C26.2337 11.4833 26.562 12.0121 27.0907 12.1353C27.6192 12.2592 28.1486 11.9308 28.2718 11.4021L29.0587 8.03964L40.5451 10.7264L38.7402 18.4434C38.6163 18.9719 38.9446 19.5007 39.4734 19.624C39.5492 19.6415 39.6243 19.6499 39.6986 19.6499C40.145 19.6499 40.5491 19.344 40.6542 18.891L42.6832 10.2169C42.7431 9.96321 42.6993 9.69594 42.5617 9.47476Z" fill="#2B74B9"/>
<path d="M25.5115 11.7985L24.6158 4.22261C24.5853 3.9637 24.4531 3.72725 24.248 3.56597C24.043 3.40468 23.7841 3.33095 23.524 3.36148L7.08192 5.30493C6.54307 5.36886 6.15772 5.85732 6.22137 6.39674L7.71467 19.0323C7.77399 19.5326 8.19822 19.9003 8.68984 19.9003C8.72815 19.9003 8.7676 19.8977 8.80677 19.8934C9.34534 19.8295 9.73069 19.341 9.66733 18.8016L8.28923 7.14152L22.7789 5.42906L23.5588 12.0286C23.6228 12.5678 24.1089 12.9508 24.6507 12.8898C25.1895 12.8264 25.5749 12.3377 25.5115 11.7985Z" fill="#2B74B9"/>
<path d="M33.2863 18.6715L31.3351 10.5573C31.274 10.3041 31.1147 10.085 30.8927 9.94874C30.6706 9.81367 30.4042 9.77133 30.1493 9.83181L14.3129 13.6404C13.785 13.7671 13.4602 14.2982 13.5869 14.8261L14.5621 18.8817C14.6888 19.4102 15.2199 19.7354 15.7475 19.6078C16.2754 19.4811 16.6003 18.95 16.4735 18.4221L15.7279 15.322L29.6528 11.9737L31.3742 19.1317C31.4822 19.5824 31.8854 19.8848 32.3292 19.8848C32.4056 19.8848 32.4827 19.8759 32.5602 19.8572C33.0881 19.7302 33.413 19.1994 33.2863 18.6715Z" fill="#2B74B9"/>
<path d="M47.6016 18.995C47.5745 18.4726 47.1431 18.0624 46.6195 18.0624H3.36523C2.84164 18.0624 2.41021 18.4723 2.38314 18.995L0.416944 57.3339C0.40312 57.6029 0.500465 57.8662 0.685939 58.0614C0.871701 58.2564 1.12917 58.3673 1.39875 58.3673H48.5851C48.8544 58.3673 49.1122 58.2567 49.2988 58.0614C49.484 57.8662 49.5813 57.6032 49.5678 57.3339L47.6016 18.995ZM2.43325 56.4011L4.29865 20.0283H45.6849L47.5503 56.4011H2.43325Z" fill="#2B74B9"/>
<path d="M32.3646 21.9941C30.7383 21.9941 29.4155 23.3169 29.4155 24.9433C29.4155 26.5696 30.7383 27.8924 32.3646 27.8924C33.991 27.8924 35.3138 26.5696 35.3138 24.9433C35.3138 23.3169 33.991 21.9941 32.3646 21.9941ZM32.3646 25.9265C31.8223 25.9265 31.3817 25.4856 31.3817 24.9436C31.3817 24.4015 31.8226 23.9606 32.3646 23.9606C32.9066 23.9606 33.3476 24.4015 33.3476 24.9436C33.3476 25.4856 32.9066 25.9265 32.3646 25.9265Z" fill="#2B74B9"/>
<path d="M17.6189 21.9941C15.9925 21.9941 14.6697 23.3169 14.6697 24.9433C14.6697 26.5696 15.9925 27.8924 17.6189 27.8924C19.2452 27.8924 20.568 26.5696 20.568 24.9433C20.568 23.3169 19.2452 21.9941 17.6189 21.9941ZM17.6189 25.9265C17.0769 25.9265 16.6359 25.4856 16.6359 24.9436C16.6359 24.4015 17.0769 23.9606 17.6189 23.9606C18.1609 23.9606 18.6018 24.4015 18.6018 24.9436C18.6018 25.4856 18.1609 25.9265 17.6189 25.9265Z" fill="#2B74B9"/>
<path d="M32.3646 24.9432H32.2888C31.7462 24.9432 31.3059 25.3836 31.3059 25.9262C31.3059 26.0604 31.3324 26.1886 31.3816 26.3052V31.3329C31.3816 34.856 28.5151 37.7228 24.9917 37.7228C21.4683 37.7228 18.6018 34.8563 18.6018 31.3329V25.9265C18.6018 25.3839 18.1614 24.9435 17.6188 24.9435C17.0762 24.9435 16.6359 25.3839 16.6359 25.9265V31.3332C16.6359 35.9406 20.3842 39.689 24.9917 39.689C29.5992 39.689 33.3475 35.9406 33.3475 31.3332V25.9265C33.3475 25.3839 32.9072 24.9432 32.3646 24.9432Z" fill="#2B74B9"/>
</svg>
