<svg width="54" height="59" viewBox="0 0 54 59" fill="none" xmlns="http://www.w3.org/2000/svg">
<path d="M53.9105 29.7468L51.5076 12.1264C51.3946 11.2938 51.1023 10.4956 50.6507 9.78709C50.1991 9.07854 49.599 8.47648 48.892 8.0225L37.2074 0.511298L37.2062 0.513236C36.9955 0.376814 36.7399 0.32766 36.4936 0.376157C36.4461 0.385603 31.6896 1.32614 26.9961 1.32614C22.3097 1.32614 17.5459 0.385603 17.4985 0.376157C17.2522 0.327622 16.9967 0.376781 16.7861 0.513236L16.7847 0.511298L5.10051 8.02262C4.39349 8.4766 3.79345 9.07866 3.34186 9.78721C2.89026 10.4958 2.59787 11.2939 2.48489 12.1265L0.08166 29.7468C0.000495519 30.3546 0.0600885 30.9729 0.255837 31.5539C0.451586 32.135 0.778254 32.6632 1.21062 33.098C1.57926 33.4687 2.01779 33.7627 2.50082 33.9628C2.98384 34.1628 3.50177 34.2651 4.02459 34.2636H10.5273V57.5136C10.5273 57.7706 10.6294 58.017 10.8111 58.1987C10.9927 58.3803 11.2392 58.4824 11.4961 58.4824H42.4961C42.753 58.4824 42.9994 58.3803 43.1811 58.1987C43.3628 58.017 43.4648 57.7706 43.4648 57.5136V34.2636H49.9676C50.4903 34.2651 51.0081 34.1628 51.4911 33.9628C51.9741 33.7627 52.4125 33.4689 52.7812 33.0982C53.2136 32.6635 53.5404 32.1352 53.7362 31.5541C53.932 30.973 53.9916 30.3547 53.9105 29.7468ZM26.9961 3.26364C30.056 3.26364 33.0801 2.89176 34.9615 2.60416L34.0693 4.38848C33.1618 4.63079 30.6388 5.20114 26.9961 5.20114C23.3533 5.20114 20.8291 4.63054 19.9229 4.38848L19.0307 2.60416C20.9121 2.89176 23.9362 3.26364 26.9961 3.26364ZM12.4648 56.5449V54.6074H41.5273V56.5449H12.4648ZM51.4115 31.7282C51.2223 31.9184 50.9973 32.0692 50.7494 32.1718C50.5016 32.2745 50.2358 32.3269 49.9676 32.3261H43.4648V25.6512L45.3793 17.0362L43.4878 16.616L42.3091 21.9206L41.4776 19.426L39.6396 20.0388L41.5273 25.7023V52.6699H12.4648V25.7023L14.3526 20.039L12.5146 19.4263L11.683 21.9208L10.5043 16.6163L8.61284 17.0365L10.5273 25.6512V32.3261H4.02459C3.75639 32.3269 3.4907 32.2744 3.24292 32.1718C2.99513 32.0691 2.77016 31.9184 2.58104 31.7282C2.35916 31.5051 2.19153 31.234 2.0911 30.9359C1.99067 30.6377 1.96013 30.3205 2.00184 30.0086L4.40422 12.3883C4.47955 11.8332 4.67448 11.3011 4.97554 10.8287C5.27661 10.3564 5.67663 9.95498 6.14797 9.6523L16.9247 2.72465L18.3797 5.63441C18.4945 5.86421 18.696 6.03897 18.9397 6.12024C19.0644 6.16177 22.0518 7.13864 26.9961 7.13864C31.9403 7.13864 34.9277 6.16177 35.0524 6.12024C35.2962 6.03897 35.4976 5.86421 35.6125 5.63441L37.0674 2.72465L47.8439 9.6523C48.3153 9.95498 48.7153 10.3564 49.0164 10.8287C49.3174 11.3011 49.5124 11.8332 49.5877 12.3883L51.9904 30.0088C52.0322 30.3206 52.0016 30.6378 51.9013 30.9359C51.8009 31.234 51.6333 31.5051 51.4115 31.7282Z" fill="#FFC219"/>
</svg>
