<svg width="63" height="30" viewBox="0 0 63 30" fill="none" xmlns="http://www.w3.org/2000/svg">
<path d="M1.74609 3.36344C1.74609 2.4335 2.48735 1.69678 3.38071 1.69678H12.9192C13.8125 1.69678 14.5538 2.4335 14.5538 3.36344V13.0301C14.5538 13.9601 13.8125 14.6968 12.9192 14.6968H3.38071C2.48734 14.6968 1.74609 13.9601 1.74609 13.0301V3.36344ZM13.6692 17.8634C13.6692 16.9335 14.4104 16.1968 15.3038 16.1968H24.8422C25.7356 16.1968 26.4769 16.9335 26.4769 17.8634V27.5301C26.4769 28.4601 25.7356 29.1968 24.8422 29.1968H15.3038C14.4104 29.1968 13.6692 28.4601 13.6692 27.5301V17.8634ZM25.5922 3.36344C25.5922 2.4335 26.3335 1.69678 27.2269 1.69678H36.7653C37.6587 1.69678 38.3999 2.4335 38.3999 3.36344V13.0301C38.3999 13.9601 37.6587 14.6968 36.7653 14.6968H27.2269C26.3335 14.6968 25.5922 13.9601 25.5922 13.0301V3.36344ZM37.5153 17.8634C37.5153 16.9335 38.2566 16.1968 39.1499 16.1968H48.6884C49.5818 16.1968 50.323 16.9335 50.323 17.8634V27.5301C50.323 28.4601 49.5818 29.1968 48.6884 29.1968H39.1499C38.2566 29.1968 37.5153 28.4601 37.5153 27.5301V17.8634ZM49.4384 3.36344C49.4384 2.4335 50.1797 1.69678 51.073 1.69678H60.6115C61.5048 1.69678 62.2461 2.4335 62.2461 3.36344V13.0301C62.2461 13.9601 61.5048 14.6968 60.6115 14.6968H51.073C50.1797 14.6968 49.4384 13.9601 49.4384 13.0301V3.36344Z" stroke="#A15CE6" stroke-width="1.5"/>
</svg>
