<svg width="62" height="65" viewBox="0 0 62 65" fill="none" xmlns="http://www.w3.org/2000/svg">
<path d="M61.34 29.0486L32.9774 1.55328C32.1511 0.74461 30.8333 0.74461 30.007 1.55328L1.64549 29.0475C1.22795 29.4521 0.992188 30.0097 0.992188 30.5924C0.992188 31.7783 1.94969 32.7395 3.13066 32.7395H6.89973V62.7996C6.89973 63.9855 7.8571 64.9468 9.03821 64.9468H24.0075C25.1887 64.9468 26.146 63.9855 26.146 62.7996V45.6224H36.8384V62.7996C36.8384 63.9855 37.7958 64.9468 38.9769 64.9468H53.9462C55.1273 64.9468 56.0847 63.9855 56.0847 62.7996V32.7395H59.8538C60.4336 32.7395 60.9884 32.5032 61.3913 32.0847C62.2121 31.232 62.1891 29.8727 61.34 29.0486ZM56.0847 30.5924C54.9036 30.5924 53.9462 31.5536 53.9462 32.7395V62.7996H38.9769V45.6224C38.9769 44.4365 38.0195 43.4753 36.8384 43.4753H26.146C24.9649 43.4753 24.0075 44.4365 24.0075 45.6224V62.7996H9.03821V32.7395C9.03821 31.5536 8.08084 30.5924 6.89973 30.5924H3.13066L31.4922 3.09815L59.8645 30.5924H56.0847Z" fill="url(#paint0_linear)"/>
<defs>
<linearGradient id="paint0_linear" x1="0.992189" y1="61.5586" x2="65.939" y2="56.1858" gradientUnits="userSpaceOnUse">
<stop offset="0.0001" stop-color="#053FC1"/>
<stop offset="0.996725" stop-color="#5E8FFF"/>
</linearGradient>
</defs>
</svg>
