<svg width="43" height="64" viewBox="0 0 43 64" fill="none" xmlns="http://www.w3.org/2000/svg">
<path d="M40.2111 16.6475C39.0801 15.5165 37.5531 14.8378 35.8565 14.8378H31.8413V4.31899C31.8413 3.30104 31.502 2.33964 30.8799 1.661C30.2578 0.925812 29.353 0.473389 28.335 0.473389H14.6492C13.6312 0.473389 12.7264 0.925812 12.1043 1.661C11.4822 2.33964 11.1429 3.30104 11.1429 4.31899V14.7813H7.12765C5.43106 14.7813 3.84758 15.4599 2.77307 16.591C1.64201 17.722 0.963379 19.249 0.963379 20.9456V51.6538C0.963379 53.3504 1.64201 54.9339 2.77307 56.0084C3.62137 56.8567 4.75243 57.4788 6.05314 57.705V59.0057C6.05314 60.2499 6.56212 61.3809 7.35386 62.1727C8.1456 62.9644 9.27666 63.4734 10.5208 63.4734H10.6905C11.9347 63.4734 13.0657 62.9644 13.8575 62.1727C14.6492 61.3809 15.1582 60.2499 15.1582 59.0057V57.8181H27.826V59.0057C27.826 60.2499 28.335 61.3809 29.1267 62.1727C29.9185 62.9644 31.0495 63.4734 32.2937 63.4734H32.4634C33.651 63.4734 34.782 63.021 35.5738 62.2292L35.6303 62.1727C36.4221 61.3809 36.9311 60.2499 36.9311 59.0057V57.705C38.1752 57.4788 39.3063 56.8567 40.2111 56.0084C41.3422 54.8773 42.0208 53.3504 42.0208 51.6538V21.0021C42.0208 19.3055 41.3422 17.722 40.2111 16.6475ZM13.3485 4.31899C13.3485 3.86657 13.5181 3.41414 13.8009 3.13138C14.0271 2.84861 14.3099 2.73551 14.6492 2.73551H28.335C28.6743 2.73551 28.9571 2.90517 29.1833 3.13138C29.4661 3.41414 29.6357 3.86657 29.6357 4.31899V14.7813H27.0343V7.93838C27.0343 7.20319 26.8646 6.52456 26.5253 6.01558C26.1294 5.33694 25.5074 4.94107 24.7722 4.94107H18.212C17.4768 4.94107 16.8548 5.33694 16.4589 6.01558C16.1196 6.52456 15.9499 7.20319 15.9499 7.93838V14.8378H13.3485V4.31899ZM18.212 7.93838C18.212 7.59906 18.2686 7.37285 18.3817 7.14664H24.6025C24.7156 7.3163 24.7722 7.59906 24.7722 7.88183V14.7813H18.212V7.93838ZM12.8961 59.1188C12.8961 59.7409 12.6698 60.3064 12.2174 60.7023C11.8215 61.0982 11.256 61.3809 10.6339 61.3809H10.4643C9.84219 61.3809 9.27666 61.1547 8.88079 60.7023C8.48492 60.3064 8.20216 59.7409 8.20216 59.1188V57.9312H12.8961V59.1188ZM34.782 59.1188C34.782 59.7409 34.5558 60.3064 34.1034 60.7023L34.0469 60.7588C33.651 61.1547 33.0855 61.3809 32.5199 61.3809H32.3503C31.7282 61.3809 31.1627 61.1547 30.7668 60.7023C30.3709 60.3064 30.0882 59.7409 30.0882 59.1188V57.9312H34.782V59.1188ZM39.8718 51.7104C39.8718 52.7849 39.4194 53.8028 38.6842 54.4815C37.949 55.2167 36.9876 55.6691 35.9131 55.6691H7.0711C5.99659 55.6691 4.97864 55.2167 4.3 54.4815C3.56481 53.7463 3.11239 52.7849 3.11239 51.7104V21.0021C3.11239 19.9276 3.56481 18.9097 4.3 18.231C5.03519 17.4958 5.99659 17.0434 7.0711 17.0434H35.8C36.9876 17.0434 37.949 17.4958 38.6842 18.231C39.4194 18.9662 39.8718 19.9276 39.8718 21.0021V51.7104Z" fill="#61DB45"/>
</svg>
