<svg width="61" height="16" viewBox="0 0 61 16" fill="none" xmlns="http://www.w3.org/2000/svg">
<path d="M15.9922 8C15.9922 11.866 12.8582 15 8.99219 15C5.12619 15 1.99219 11.866 1.99219 8C1.99219 4.13401 5.12619 1 8.99219 1C12.8582 1 15.9922 4.13401 15.9922 8ZM37.9922 8C37.9922 11.866 34.8582 15 30.9922 15C27.1262 15 23.9922 11.866 23.9922 8C23.9922 4.13401 27.1262 1 30.9922 1C34.8582 1 37.9922 4.13401 37.9922 8ZM59.9922 8C59.9922 11.866 56.8582 15 52.9922 15C49.1262 15 45.9922 11.866 45.9922 8C45.9922 4.13401 49.1262 1 52.9922 1C56.8582 1 59.9922 4.13401 59.9922 8Z" stroke="#2FC9C8" stroke-width="2"/>
</svg>
