<svg width="58" height="57" viewBox="0 0 58 57" fill="none" xmlns="http://www.w3.org/2000/svg">
<path d="M14.7229 17.0061C15.9953 17.0061 17.0777 16.18 17.464 15.0363H29.5717C30.0816 15.0363 30.495 14.6229 30.495 14.113C30.495 13.6031 30.0816 13.1897 29.5717 13.1897H17.464C17.0777 12.046 15.9953 11.2199 14.7229 11.2199C13.1276 11.2199 11.8298 12.5177 11.8298 14.113C11.8298 15.7082 13.1276 17.0061 14.7229 17.0061ZM14.7229 13.0666C15.2999 13.0666 15.7693 13.536 15.7693 14.113C15.7693 14.69 15.2999 15.1594 14.7229 15.1594C14.1458 15.1594 13.6764 14.69 13.6764 14.113C13.6764 13.536 14.1458 13.0666 14.7229 13.0666Z" fill="#FF7F00"/>
<path d="M57.0728 25.9932H43.2229V23.9003H48.2089C49.8041 23.9003 51.1019 22.6025 51.1019 21.0073V15.098C51.1019 6.98578 44.5023 0.38623 36.3902 0.38623H11.0971C5.65618 0.38623 1.12622 4.66848 0.998927 9.93205C0.939219 12.4052 1.80505 14.787 3.437 16.6385C4.91936 18.3201 6.91214 19.4331 9.09931 19.8126L9.46187 20.9213C9.56159 21.2264 9.7087 21.5055 9.89263 21.7524C9.88007 21.7992 9.8701 21.8472 9.86493 21.897L7.13177 48.3173C7.0174 49.4229 6.44186 50.4395 5.55252 51.1064L4.12309 52.1787C3.39846 52.7221 2.96585 53.5873 2.96585 54.4931V55.478C2.96585 55.9879 3.37926 56.4014 3.88918 56.4014H52.1483C52.6582 56.4014 53.0716 55.9879 53.0716 55.478V54.4931C53.0716 52.3549 51.3319 50.6152 49.1936 50.6152H48.3501C48.0582 50.5128 47.5057 50.2196 47.257 49.1538C47.192 48.8753 47.1616 48.602 47.149 48.3688C52.734 47.4599 57.0111 42.6031 57.0111 36.7653V27.8399H57.0726C57.5826 27.8399 57.996 27.4265 57.996 26.9165C57.996 26.4066 57.5827 25.9932 57.0728 25.9932ZM41.3763 25.9932H27.5263C27.0164 25.9932 26.603 26.4066 26.603 26.9165C26.603 27.4265 27.0164 27.8399 27.5263 27.8399H27.5878V36.7653C27.5878 42.6037 31.8658 47.461 37.4515 48.3692C37.4183 48.9437 37.2761 49.6909 36.8682 50.177C26.4654 48.104 18.6008 38.9044 18.6008 27.9014V21.9921C18.6008 21.9121 18.5895 21.8348 18.5704 21.7607C18.7542 21.5159 18.9017 21.2394 19.0024 20.9372L19.3279 19.9608H33.4971V21.0073C33.4971 22.6025 34.7949 23.9003 36.3902 23.9003H41.3761L41.3763 25.9932ZM48.2089 22.0537H36.3903C35.8133 22.0537 35.3439 21.5843 35.3439 21.0073V19.9608H49.2553V21.0073C49.2553 21.5843 48.7859 22.0537 48.2089 22.0537ZM4.82247 15.4173C3.49892 13.9158 2.7967 11.9836 2.84521 9.97661C2.94825 5.70667 6.65016 2.23288 11.0971 2.23288H36.3902C42.8356 2.23288 48.1888 6.9976 49.1135 13.1897H28.5112C28.0012 13.1897 27.5878 13.6031 27.5878 14.113C27.5878 14.6229 28.0012 15.0363 28.5112 15.0363H49.2544C49.2546 15.0569 49.2552 15.0773 49.2552 15.0979V18.1141H18.6624C18.2648 18.1141 17.9121 18.3684 17.7864 18.7454L17.2505 20.3532C17.1079 20.7811 16.709 21.0687 16.2578 21.0687H12.2118C11.7579 21.0687 11.3581 20.7789 11.217 20.3474L10.676 18.6927C10.5635 18.3483 10.26 18.1017 9.90002 18.0619C7.9374 17.8448 6.13409 16.9056 4.82247 15.4173ZM51.2251 54.4931V54.5547H4.8125V54.4931C4.8125 54.1656 4.96897 53.8526 5.23108 53.656L6.66063 52.5838C7.9603 51.6092 8.80151 50.1234 8.96869 48.5074L11.6226 22.8532C11.8138 22.8927 12.0105 22.9155 12.2118 22.9155H16.2578C16.4264 22.9155 16.5921 22.8997 16.7542 22.8716V27.9014C16.7542 41.4441 27.772 52.4618 41.3146 52.4618H48.2058L48.2092 52.4621L48.2122 52.4618H49.1937C50.3138 52.4618 51.2251 53.373 51.2251 54.4931ZM45.4454 49.5151C45.5348 49.917 45.6648 50.2841 45.8303 50.6152H41.3147C40.4769 50.6152 39.6501 50.5682 38.8356 50.4794C39.0254 50.0607 39.16 49.5877 39.2351 49.0682C39.263 48.8752 39.2803 48.6916 39.2909 48.5217C39.3089 48.5218 39.3269 48.5224 39.3448 48.5224H45.2541C45.2721 48.5224 45.2899 48.5218 45.3079 48.5217C45.3265 48.8191 45.3664 49.1592 45.4454 49.5151ZM55.1646 36.7653C55.1646 42.2299 50.7188 46.6757 45.2542 46.6757H39.3449C33.8803 46.6757 29.4346 42.2299 29.4346 36.7653V27.8399H41.3763V28.5949C40.4729 29.8999 36.4519 35.9221 36.4519 39.72C36.4519 42.9443 39.0752 45.5677 42.2996 45.5677C45.524 45.5677 48.1473 42.9443 48.1473 39.72C48.1473 36.0302 44.1164 29.9102 43.2229 28.599V27.8399H55.1646V36.7653ZM38.2984 39.72C38.2984 37.6613 39.9298 34.4262 41.3761 32.0086V43.6123C39.6138 43.1941 38.2984 41.6082 38.2984 39.72ZM43.2229 32.042C44.6698 34.4834 46.3007 37.7272 46.3007 39.72C46.3007 41.6083 44.9852 43.1942 43.2229 43.6123V32.042Z" fill="#FF7F00"/>
<path d="M38.175 6.35165C40.6679 6.85948 42.8342 8.4215 44.1185 10.6369C44.2897 10.9323 44.5996 11.0973 44.9182 11.0973C45.0754 11.0973 45.2347 11.057 45.3803 10.9726C45.8216 10.7168 45.9719 10.1518 45.7162 9.7107C44.1675 7.03922 41.5531 5.15539 38.5435 4.54218C38.0441 4.44025 37.5563 4.76292 37.4545 5.26262C37.3527 5.7622 37.6753 6.24972 38.175 6.35165Z" fill="#FF7F00"/>
<path d="M50.687 41.1039C50.8361 41.1937 51.0003 41.2365 51.1626 41.2365C51.4757 41.2365 51.781 41.0773 51.9543 40.7896C52.6852 39.5767 53.0715 38.1851 53.0715 36.7654V30.8561C53.0715 30.3462 52.6581 29.9328 52.1482 29.9328C51.6383 29.9328 51.2249 30.3462 51.2249 30.8561V36.7654C51.2249 37.8492 50.9302 38.9113 50.3727 39.8366C50.1095 40.2732 50.2503 40.8407 50.687 41.1039Z" fill="#FF7F00"/>
</svg>
