<svg width="32" height="57" viewBox="0 0 32 57" fill="none" xmlns="http://www.w3.org/2000/svg">
<path d="M27.4373 0.473389H5.55492C4.34626 0.474733 3.18749 0.95097 2.33284 1.79762C1.47819 2.64426 0.997451 3.79218 0.996094 4.98952V51.9573C0.997451 53.1546 1.47819 54.3025 2.33284 55.1492C3.18749 55.9958 4.34626 56.472 5.55492 56.4734H27.4373C28.6459 56.472 29.8047 55.9958 30.6593 55.1492C31.514 54.3025 31.9947 53.1546 31.9961 51.9573V4.98952C31.9947 3.79218 31.514 2.64426 30.6593 1.79762C29.8047 0.95097 28.6459 0.474733 27.4373 0.473389ZM22.6781 2.27984L22.131 2.96122H10.8613L10.3142 2.27984H22.6781ZM30.1726 51.9573C30.1717 52.6757 29.8833 53.3644 29.3705 53.8724C28.8577 54.3804 28.1625 54.6661 27.4373 54.6669H5.55492C4.82972 54.6661 4.13446 54.3804 3.62167 53.8724C3.10888 53.3644 2.82044 52.6757 2.81962 51.9573V4.98952C2.82044 4.27111 3.10888 3.58237 3.62167 3.07438C4.13446 2.56639 4.82972 2.28065 5.55492 2.27984H8.45444L9.21964 4.04159C9.26098 4.24635 9.37266 4.43059 9.53567 4.56297C9.69868 4.69534 9.90296 4.76768 10.1137 4.76767H22.8784C23.0892 4.76768 23.2935 4.69534 23.4565 4.56297C23.6195 4.43059 23.7312 4.24635 23.7725 4.04159L24.5377 2.27984H27.4373C28.1625 2.28065 28.8577 2.56639 29.3705 3.07438C29.8833 3.58237 30.1717 4.27111 30.1726 4.98952V51.9573Z" fill="#FFC219"/>
<path d="M19.2154 51.054H13.7448C13.503 51.054 13.2711 51.1492 13.1001 51.3186C12.9291 51.488 12.833 51.7177 12.833 51.9573C12.833 52.1968 12.9291 52.4265 13.1001 52.5959C13.2711 52.7653 13.503 52.8605 13.7448 52.8605H19.2154C19.4572 52.8605 19.6891 52.7653 19.8601 52.5959C20.0311 52.4265 20.1272 52.1968 20.1272 51.9573C20.1272 51.7177 20.0311 51.488 19.8601 51.3186C19.6891 51.1492 19.4572 51.054 19.2154 51.054Z" fill="#FFC219"/>
</svg>
