<svg width="66" height="61" viewBox="0 0 66 61" fill="none" xmlns="http://www.w3.org/2000/svg">
<path d="M49.8971 40.4508C48.707 39.2614 45.821 36.0421 43.5442 30.8213C41.8512 26.759 37.9142 24.1348 33.5113 24.1348C29.1094 24.1348 25.1731 26.7594 23.4796 30.8226C20.6232 37.3741 16.7209 40.8412 16.6834 40.874C16.6789 40.8779 16.6744 40.882 16.67 40.8859C14.3683 42.9467 13.0482 45.8989 13.0482 48.9854C13.0482 52.7586 14.845 56.0399 17.962 58.1191C20.8662 60.0566 24.4657 60.6376 27.8369 59.7132C29.5264 59.2503 31.4819 59.0056 33.4923 59.0056C35.5366 59.0056 37.521 59.2585 39.231 59.7368C42.5032 60.6528 46.0948 60.1506 49.0598 58.1915C52.2126 56.1084 54.0405 52.796 54.0405 48.9854C54.0405 45.6339 52.5315 42.528 49.8971 40.4508ZM47.6598 56.0731C45.3717 57.5848 42.5489 58.0289 39.915 57.2917C37.9852 56.7518 35.7643 56.4665 33.4919 56.4665C31.2581 56.4665 29.0705 56.7425 27.1653 57.2645C24.5036 57.9944 21.6627 57.536 19.3706 56.0069C16.9776 54.4105 15.5869 51.9147 15.5869 48.9853C15.5869 46.6222 16.597 44.3615 18.3582 42.7819C18.6291 42.5444 22.749 38.8559 25.8111 31.8271C25.8139 31.8205 25.8168 31.8139 25.8195 31.8073C27.1154 28.6888 30.1344 26.6738 33.5108 26.6738C36.8886 26.6737 39.9082 28.6883 41.2037 31.8061C41.2064 31.8127 41.2093 31.8193 41.2121 31.8259C43.6986 37.5324 46.9001 41.0554 48.161 42.3054C48.1973 42.3412 48.2357 42.3749 48.2758 42.4062C50.3256 43.9988 51.501 46.3968 51.501 48.9853C51.5013 51.9391 50.088 54.4688 47.6598 56.0731Z" fill="#0B8E42"/>
<path d="M42.0285 38.6694C41.6459 38.082 40.8596 37.9156 40.2719 38.2983C39.6842 38.6812 39.5182 39.4677 39.9008 40.0551C41.8327 43.0211 43.6643 44.9965 44.5845 45.9101C45.0819 46.4039 45.8858 46.4013 46.38 45.9036C46.874 45.4061 46.8711 44.6022 46.3735 44.1081C45.525 43.2656 43.8322 41.4389 42.0285 38.6694Z" fill="#0B8E42"/>
<path d="M29.3776 17.9454C30.5975 15.8132 31.106 12.9813 30.7729 10.1765C30.1285 4.71586 26.3624 0.14135 22.1548 0.646625C20.2548 0.871459 18.5656 2.11865 17.3975 4.15841C16.1784 6.28894 15.6698 9.12089 16.0022 11.9277C17.0547 20.8455 25.3566 24.9694 29.3776 17.9454ZM19.6012 5.41969C20.2961 4.20564 21.3801 3.14989 22.7775 3.14989C25.2761 3.14989 27.7829 6.50387 28.2516 10.475C28.522 12.7516 28.1292 15.0148 27.174 16.6843C24.2482 21.7959 19.215 17.4864 18.5236 11.6296C18.2538 9.35118 18.6467 7.08773 19.6012 5.41969Z" fill="#0B8E42"/>
<path d="M17.2171 31.5998C17.5846 29.3372 17.138 26.8348 15.9596 24.5536C14.7807 22.2718 12.998 20.4593 10.9397 19.4498C8.75371 18.3775 6.51501 18.3222 4.6361 19.2937C2.75719 20.2646 1.50772 22.1223 1.11746 24.5251C0.749934 26.7879 1.19656 29.2902 2.37494 31.5717C3.55395 33.8528 5.33663 35.6649 7.39493 36.6744C9.43761 37.6763 11.7007 37.8636 13.6982 36.8316C15.5773 35.8608 16.8271 34.0027 17.2171 31.5998ZM12.5329 34.5758C11.3865 35.1684 9.959 35.104 8.51313 34.3948C6.94018 33.6234 5.56147 32.2066 4.63077 30.406C3.70058 28.6051 3.34283 26.6614 3.62365 24.9321C3.88175 23.3429 4.6554 22.1418 5.80192 21.5495C5.80179 21.5496 5.80204 21.5493 5.80192 21.5495C7.06967 20.894 8.5384 21.0999 9.82164 21.7293C11.3945 22.5008 12.7732 23.9178 13.7039 25.719C14.6341 27.5198 14.9918 29.4639 14.711 31.193C14.453 32.7822 13.6794 33.9834 12.5329 34.5758Z" fill="#0B8E42"/>
<path d="M43.0135 21.5184C46.8621 21.5184 50.3752 17.3165 51.0114 11.952C51.6874 6.23737 48.8081 0.635044 44.2346 0.635044C40.3854 0.635044 36.8726 4.83707 36.238 10.2014C35.5612 15.9265 38.449 21.5184 43.0135 21.5184ZM38.7595 10.4996C39.2295 6.52873 41.7368 3.17398 44.2349 3.17398C44.3524 3.17398 44.4538 3.1797 44.5445 3.1915C45.8982 3.34194 46.9461 4.52502 47.5633 5.73298C48.403 7.37589 48.7407 9.53384 48.4901 11.6533C48.0022 15.7671 45.2755 19.2955 42.704 18.9618C42.6993 18.9613 42.6946 18.9606 42.6899 18.96C41.5355 18.8242 40.4405 17.8987 39.6859 16.4209C38.8465 14.7779 38.5089 12.6197 38.7595 10.4996Z" fill="#0B8E42"/>
<path d="M65.867 24.5302C65.0641 19.5859 60.5946 17.2222 56.0447 19.4548C51.7881 21.543 49.0068 26.922 49.7674 31.605C50.5798 36.6079 55.0939 38.8851 59.5895 36.6796C63.8474 34.5911 66.6274 29.2127 65.867 24.5302ZM58.4713 34.3999C57.0256 35.109 55.5981 35.1731 54.4516 34.5808C53.3051 33.9883 52.5314 32.787 52.2735 31.198C51.693 27.6235 53.9033 23.3337 57.1629 21.7342C60.1502 20.2687 62.8267 21.6485 63.3608 24.9371C63.9402 28.505 61.7369 32.7983 58.4713 34.3999Z" fill="#0B8E42"/>
</svg>
