<svg width="65" height="58" viewBox="0 0 65 58" fill="none" xmlns="http://www.w3.org/2000/svg">
<mask id="path-1-outside-1" maskUnits="userSpaceOnUse" x="0" y="0" width="65" height="58" fill="black">
<rect fill="white" width="65" height="58"/>
<path d="M61.9876 32.5126H3.0124C2.47936 32.5119 1.96833 32.2999 1.59116 31.9232C1.21399 31.5464 1.00143 31.0355 1 30.5023V25.4905C1.00071 24.9568 1.21296 24.4452 1.59021 24.0679C1.96745 23.6905 2.4789 23.4782 3.0124 23.4775H61.9876C62.5211 23.4782 63.0326 23.6905 63.4098 24.0679C63.787 24.4452 63.9993 24.9568 64 25.4905V30.4987C63.9995 31.0325 63.7874 31.5443 63.4101 31.9219C63.0328 32.2994 62.5213 32.5119 61.9876 32.5126ZM3.0124 25.2816C2.95676 25.2818 2.9034 25.3038 2.86372 25.3428C2.82404 25.3818 2.80117 25.4348 2.8 25.4905V30.4987C2.80024 30.555 2.82269 30.6089 2.86247 30.6487C2.90225 30.6885 2.95614 30.7109 3.0124 30.7112H61.9876C62.0432 30.7109 62.0966 30.689 62.1363 30.6499C62.176 30.6109 62.1988 30.5579 62.2 30.5023V25.4905C62.1998 25.4342 62.1773 25.3803 62.1375 25.3405C62.0977 25.3007 62.0439 25.2782 61.9876 25.278L3.0124 25.2816Z"/>
<path d="M51.6818 57H13.3184C12.2464 57.004 11.2084 56.6233 10.3931 55.927C9.57783 55.2307 9.03921 54.265 8.87508 53.2053L5.46228 31.7572C5.44128 31.6284 5.44852 31.4966 5.48349 31.3709C5.51847 31.2452 5.58035 31.1286 5.66484 31.0292C5.74934 30.9298 5.85443 30.8499 5.97283 30.7951C6.09124 30.7404 6.22013 30.712 6.35058 30.712H58.6496C58.7797 30.7121 58.9082 30.7404 59.0263 30.7949C59.1444 30.8495 59.2493 30.929 59.3337 31.028C59.4182 31.127 59.4801 31.2432 59.5154 31.3684C59.5506 31.4937 59.5583 31.6251 59.5379 31.7536L56.126 53.2098C55.9609 54.2689 55.4217 55.2336 54.6063 55.929C53.7909 56.6244 52.7533 57.0044 51.6818 57ZM7.40538 32.5126L10.6508 52.9226C10.7494 53.5587 11.0729 54.1382 11.5624 54.556C12.0519 54.9738 12.6749 55.2021 13.3184 55.1994H51.6818C52.3249 55.2019 52.9477 54.9736 53.437 54.556C53.9262 54.1385 54.2497 53.5593 54.3485 52.9235L57.5948 32.5126H7.40538Z"/>
<path d="M43.6276 50.5109C43.5839 50.5109 43.5403 50.5079 43.4971 50.5019C43.2609 50.4676 43.048 50.3408 42.9053 50.1496C42.7625 49.9583 42.7015 49.7181 42.7357 49.4818L44.4043 37.9809C44.4194 37.8623 44.458 37.7479 44.5177 37.6444C44.5775 37.5409 44.6573 37.4503 44.7524 37.378C44.8475 37.3057 44.9561 37.253 45.0718 37.2231C45.1875 37.1932 45.308 37.1866 45.4262 37.2037C45.5445 37.2209 45.6582 37.2614 45.7606 37.323C45.863 37.3846 45.9522 37.4659 46.0228 37.5623C46.0935 37.6587 46.1443 37.7682 46.1722 37.8844C46.2001 38.0006 46.2046 38.1213 46.1854 38.2392L44.5177 49.7393C44.4868 49.9535 44.3798 50.1493 44.2163 50.291C44.0529 50.4326 43.8439 50.5107 43.6276 50.5109Z"/>
<path d="M32.5001 50.5109C32.2614 50.5109 32.0324 50.416 31.8637 50.2472C31.6949 50.0784 31.6001 49.8494 31.6001 49.6106V38.1087C31.6001 37.87 31.6949 37.641 31.8637 37.4721C32.0324 37.3033 32.2614 37.2085 32.5001 37.2085C32.7388 37.2085 32.9677 37.3033 33.1365 37.4721C33.3052 37.641 33.4001 37.87 33.4001 38.1087V49.6106C33.4001 49.8494 33.3052 50.0784 33.1365 50.2472C32.9677 50.416 32.7388 50.5109 32.5001 50.5109Z"/>
<path d="M21.3724 50.5108C21.1564 50.5105 20.9477 50.4325 20.7845 50.291C20.6212 50.1495 20.5143 49.954 20.4832 49.7402L18.8137 38.2383C18.7945 38.1203 18.799 37.9997 18.8269 37.8835C18.8548 37.7673 18.9056 37.6578 18.9763 37.5614C19.0469 37.465 19.1361 37.3836 19.2385 37.3221C19.3409 37.2605 19.4546 37.22 19.5728 37.2028C19.6911 37.1856 19.8116 37.1922 19.9273 37.2221C20.043 37.2521 20.1516 37.3047 20.2467 37.3771C20.3418 37.4494 20.4216 37.54 20.4814 37.6435C20.5411 37.747 20.5797 37.8614 20.5948 37.9799L22.2634 49.4809C22.2976 49.7172 22.2366 49.9573 22.0938 50.1486C21.951 50.3399 21.7382 50.4666 21.502 50.5009C21.4591 50.5072 21.4158 50.5105 21.3724 50.5108Z"/>
<path d="M54.6104 25.2816C54.4379 25.2818 54.2691 25.2324 54.1239 25.1394C53.9787 25.0463 53.8633 24.9135 53.7914 24.7567L44.3891 4.25394C44.1134 3.65337 43.6107 3.18684 42.9913 2.95692C42.3719 2.72699 41.6866 2.75248 41.0861 3.02777C40.6528 3.23002 40.2859 3.55141 40.0284 3.9544C39.7709 4.3574 39.6333 4.82537 39.6317 5.30366C39.6311 5.66164 39.7091 6.01537 39.8603 6.33987L47.9729 24.005C48.0222 24.1125 48.0499 24.2286 48.0544 24.3468C48.0588 24.465 48.04 24.5829 47.9989 24.6938C47.9579 24.8047 47.8954 24.9064 47.815 24.9931C47.7346 25.0798 47.6379 25.1499 47.5305 25.1992C47.4231 25.2486 47.307 25.2763 47.1888 25.2808C47.0707 25.2852 46.9528 25.2664 46.842 25.2253C46.7311 25.1842 46.6294 25.1217 46.5427 25.0413C46.456 24.9609 46.386 24.8642 46.3367 24.7567L38.2241 7.0925C37.9643 6.53166 37.8301 5.92086 37.8308 5.30276C37.8332 4.48079 38.0695 3.67649 38.5121 2.98393C38.9547 2.29137 39.5852 1.73919 40.3301 1.39198C40.8424 1.1565 41.3962 1.02434 41.9596 1.00306C42.5231 0.981772 43.0852 1.07177 43.6139 1.26792C44.1425 1.46407 44.6274 1.76251 45.0407 2.14619C45.454 2.52988 45.7876 2.99128 46.0226 3.50402L55.4285 24.0059C55.4913 24.143 55.5188 24.2937 55.5082 24.4442C55.4977 24.5946 55.4496 24.7401 55.3682 24.8671C55.2869 24.994 55.1749 25.0986 55.0426 25.171C54.9104 25.2434 54.7611 25.2815 54.6104 25.2816Z"/>
<path d="M10.3897 25.2815C10.2389 25.2814 10.0906 25.2434 9.95832 25.1709C9.82606 25.0985 9.71411 24.994 9.63275 24.867C9.5514 24.74 9.50325 24.5946 9.49272 24.4441C9.4822 24.2937 9.50963 24.143 9.57251 24.0059L18.9748 3.50306C19.4491 2.46851 20.3148 1.66475 21.3815 1.26852C22.4481 0.87229 23.6284 0.91603 24.6628 1.39012C25.409 1.73665 26.041 2.28873 26.4848 2.98169C26.9286 3.67465 27.1657 4.47977 27.1684 5.30271C27.1693 5.92141 27.0351 6.53284 26.7751 7.09425L18.6634 24.7567C18.5638 24.9737 18.382 25.1423 18.1581 25.2253C17.9342 25.3082 17.6865 25.2989 17.4696 25.1992C17.2526 25.0995 17.0841 24.9177 17.0011 24.6937C16.9182 24.4698 16.9276 24.222 17.0272 24.005L25.1398 6.34072C25.2915 6.01573 25.3698 5.66136 25.3693 5.30271C25.3677 4.82362 25.2295 4.35492 24.9712 3.95153C24.7128 3.54813 24.3448 3.22675 23.9104 3.02502C23.31 2.75097 22.6254 2.72635 22.0069 2.95656C21.3883 3.18677 20.8863 3.65301 20.611 4.25299L11.2087 24.7567C11.1368 24.9135 11.0214 25.0463 10.8762 25.1393C10.731 25.2324 10.5621 25.2817 10.3897 25.2815Z"/>
</mask>
<path d="M61.9876 32.5126H3.0124C2.47936 32.5119 1.96833 32.2999 1.59116 31.9232C1.21399 31.5464 1.00143 31.0355 1 30.5023V25.4905C1.00071 24.9568 1.21296 24.4452 1.59021 24.0679C1.96745 23.6905 2.4789 23.4782 3.0124 23.4775H61.9876C62.5211 23.4782 63.0326 23.6905 63.4098 24.0679C63.787 24.4452 63.9993 24.9568 64 25.4905V30.4987C63.9995 31.0325 63.7874 31.5443 63.4101 31.9219C63.0328 32.2994 62.5213 32.5119 61.9876 32.5126ZM3.0124 25.2816C2.95676 25.2818 2.9034 25.3038 2.86372 25.3428C2.82404 25.3818 2.80117 25.4348 2.8 25.4905V30.4987C2.80024 30.555 2.82269 30.6089 2.86247 30.6487C2.90225 30.6885 2.95614 30.7109 3.0124 30.7112H61.9876C62.0432 30.7109 62.0966 30.689 62.1363 30.6499C62.176 30.6109 62.1988 30.5579 62.2 30.5023V25.4905C62.1998 25.4342 62.1773 25.3803 62.1375 25.3405C62.0977 25.3007 62.0439 25.2782 61.9876 25.278L3.0124 25.2816Z" fill="#A15CE6"/>
<path d="M51.6818 57H13.3184C12.2464 57.004 11.2084 56.6233 10.3931 55.927C9.57783 55.2307 9.03921 54.265 8.87508 53.2053L5.46228 31.7572C5.44128 31.6284 5.44852 31.4966 5.48349 31.3709C5.51847 31.2452 5.58035 31.1286 5.66484 31.0292C5.74934 30.9298 5.85443 30.8499 5.97283 30.7951C6.09124 30.7404 6.22013 30.712 6.35058 30.712H58.6496C58.7797 30.7121 58.9082 30.7404 59.0263 30.7949C59.1444 30.8495 59.2493 30.929 59.3337 31.028C59.4182 31.127 59.4801 31.2432 59.5154 31.3684C59.5506 31.4937 59.5583 31.6251 59.5379 31.7536L56.126 53.2098C55.9609 54.2689 55.4217 55.2336 54.6063 55.929C53.7909 56.6244 52.7533 57.0044 51.6818 57ZM7.40538 32.5126L10.6508 52.9226C10.7494 53.5587 11.0729 54.1382 11.5624 54.556C12.0519 54.9738 12.6749 55.2021 13.3184 55.1994H51.6818C52.3249 55.2019 52.9477 54.9736 53.437 54.556C53.9262 54.1385 54.2497 53.5593 54.3485 52.9235L57.5948 32.5126H7.40538Z" fill="#A15CE6"/>
<path d="M43.6276 50.5109C43.5839 50.5109 43.5403 50.5079 43.4971 50.5019C43.2609 50.4676 43.048 50.3408 42.9053 50.1496C42.7625 49.9583 42.7015 49.7181 42.7357 49.4818L44.4043 37.9809C44.4194 37.8623 44.458 37.7479 44.5177 37.6444C44.5775 37.5409 44.6573 37.4503 44.7524 37.378C44.8475 37.3057 44.9561 37.253 45.0718 37.2231C45.1875 37.1932 45.308 37.1866 45.4262 37.2037C45.5445 37.2209 45.6582 37.2614 45.7606 37.323C45.863 37.3846 45.9522 37.4659 46.0228 37.5623C46.0935 37.6587 46.1443 37.7682 46.1722 37.8844C46.2001 38.0006 46.2046 38.1213 46.1854 38.2392L44.5177 49.7393C44.4868 49.9535 44.3798 50.1493 44.2163 50.291C44.0529 50.4326 43.8439 50.5107 43.6276 50.5109Z" fill="#A15CE6"/>
<path d="M32.5001 50.5109C32.2614 50.5109 32.0324 50.416 31.8637 50.2472C31.6949 50.0784 31.6001 49.8494 31.6001 49.6106V38.1087C31.6001 37.87 31.6949 37.641 31.8637 37.4721C32.0324 37.3033 32.2614 37.2085 32.5001 37.2085C32.7388 37.2085 32.9677 37.3033 33.1365 37.4721C33.3052 37.641 33.4001 37.87 33.4001 38.1087V49.6106C33.4001 49.8494 33.3052 50.0784 33.1365 50.2472C32.9677 50.416 32.7388 50.5109 32.5001 50.5109Z" fill="#A15CE6"/>
<path d="M21.3724 50.5108C21.1564 50.5105 20.9477 50.4325 20.7845 50.291C20.6212 50.1495 20.5143 49.954 20.4832 49.7402L18.8137 38.2383C18.7945 38.1203 18.799 37.9997 18.8269 37.8835C18.8548 37.7673 18.9056 37.6578 18.9763 37.5614C19.0469 37.465 19.1361 37.3836 19.2385 37.3221C19.3409 37.2605 19.4546 37.22 19.5728 37.2028C19.6911 37.1856 19.8116 37.1922 19.9273 37.2221C20.043 37.2521 20.1516 37.3047 20.2467 37.3771C20.3418 37.4494 20.4216 37.54 20.4814 37.6435C20.5411 37.747 20.5797 37.8614 20.5948 37.9799L22.2634 49.4809C22.2976 49.7172 22.2366 49.9573 22.0938 50.1486C21.951 50.3399 21.7382 50.4666 21.502 50.5009C21.4591 50.5072 21.4158 50.5105 21.3724 50.5108Z" fill="#A15CE6"/>
<path d="M54.6104 25.2816C54.4379 25.2818 54.2691 25.2324 54.1239 25.1394C53.9787 25.0463 53.8633 24.9135 53.7914 24.7567L44.3891 4.25394C44.1134 3.65337 43.6107 3.18684 42.9913 2.95692C42.3719 2.72699 41.6866 2.75248 41.0861 3.02777C40.6528 3.23002 40.2859 3.55141 40.0284 3.9544C39.7709 4.3574 39.6333 4.82537 39.6317 5.30366C39.6311 5.66164 39.7091 6.01537 39.8603 6.33987L47.9729 24.005C48.0222 24.1125 48.0499 24.2286 48.0544 24.3468C48.0588 24.465 48.04 24.5829 47.9989 24.6938C47.9579 24.8047 47.8954 24.9064 47.815 24.9931C47.7346 25.0798 47.6379 25.1499 47.5305 25.1992C47.4231 25.2486 47.307 25.2763 47.1888 25.2808C47.0707 25.2852 46.9528 25.2664 46.842 25.2253C46.7311 25.1842 46.6294 25.1217 46.5427 25.0413C46.456 24.9609 46.386 24.8642 46.3367 24.7567L38.2241 7.0925C37.9643 6.53166 37.8301 5.92086 37.8308 5.30276C37.8332 4.48079 38.0695 3.67649 38.5121 2.98393C38.9547 2.29137 39.5852 1.73919 40.3301 1.39198C40.8424 1.1565 41.3962 1.02434 41.9596 1.00306C42.5231 0.981772 43.0852 1.07177 43.6139 1.26792C44.1425 1.46407 44.6274 1.76251 45.0407 2.14619C45.454 2.52988 45.7876 2.99128 46.0226 3.50402L55.4285 24.0059C55.4913 24.143 55.5188 24.2937 55.5082 24.4442C55.4977 24.5946 55.4496 24.7401 55.3682 24.8671C55.2869 24.994 55.1749 25.0986 55.0426 25.171C54.9104 25.2434 54.7611 25.2815 54.6104 25.2816Z" fill="#A15CE6"/>
<path d="M10.3897 25.2815C10.2389 25.2814 10.0906 25.2434 9.95832 25.1709C9.82606 25.0985 9.71411 24.994 9.63275 24.867C9.5514 24.74 9.50325 24.5946 9.49272 24.4441C9.4822 24.2937 9.50963 24.143 9.57251 24.0059L18.9748 3.50306C19.4491 2.46851 20.3148 1.66475 21.3815 1.26852C22.4481 0.87229 23.6284 0.91603 24.6628 1.39012C25.409 1.73665 26.041 2.28873 26.4848 2.98169C26.9286 3.67465 27.1657 4.47977 27.1684 5.30271C27.1693 5.92141 27.0351 6.53284 26.7751 7.09425L18.6634 24.7567C18.5638 24.9737 18.382 25.1423 18.1581 25.2253C17.9342 25.3082 17.6865 25.2989 17.4696 25.1992C17.2526 25.0995 17.0841 24.9177 17.0011 24.6937C16.9182 24.4698 16.9276 24.222 17.0272 24.005L25.1398 6.34072C25.2915 6.01573 25.3698 5.66136 25.3693 5.30271C25.3677 4.82362 25.2295 4.35492 24.9712 3.95153C24.7128 3.54813 24.3448 3.22675 23.9104 3.02502C23.31 2.75097 22.6254 2.72635 22.0069 2.95656C21.3883 3.18677 20.8863 3.65301 20.611 4.25299L11.2087 24.7567C11.1368 24.9135 11.0214 25.0463 10.8762 25.1393C10.731 25.2324 10.5621 25.2817 10.3897 25.2815Z" fill="#A15CE6"/>
<path d="M61.9876 32.5126H3.0124C2.47936 32.5119 1.96833 32.2999 1.59116 31.9232C1.21399 31.5464 1.00143 31.0355 1 30.5023V25.4905C1.00071 24.9568 1.21296 24.4452 1.59021 24.0679C1.96745 23.6905 2.4789 23.4782 3.0124 23.4775H61.9876C62.5211 23.4782 63.0326 23.6905 63.4098 24.0679C63.787 24.4452 63.9993 24.9568 64 25.4905V30.4987C63.9995 31.0325 63.7874 31.5443 63.4101 31.9219C63.0328 32.2994 62.5213 32.5119 61.9876 32.5126ZM3.0124 25.2816C2.95676 25.2818 2.9034 25.3038 2.86372 25.3428C2.82404 25.3818 2.80117 25.4348 2.8 25.4905V30.4987C2.80024 30.555 2.82269 30.6089 2.86247 30.6487C2.90225 30.6885 2.95614 30.7109 3.0124 30.7112H61.9876C62.0432 30.7109 62.0966 30.689 62.1363 30.6499C62.176 30.6109 62.1988 30.5579 62.2 30.5023V25.4905C62.1998 25.4342 62.1773 25.3803 62.1375 25.3405C62.0977 25.3007 62.0439 25.2782 61.9876 25.278L3.0124 25.2816Z" stroke="#3B4255" stroke-width="0.6" mask="url(#path-1-outside-1)"/>
<path d="M51.6818 57H13.3184C12.2464 57.004 11.2084 56.6233 10.3931 55.927C9.57783 55.2307 9.03921 54.265 8.87508 53.2053L5.46228 31.7572C5.44128 31.6284 5.44852 31.4966 5.48349 31.3709C5.51847 31.2452 5.58035 31.1286 5.66484 31.0292C5.74934 30.9298 5.85443 30.8499 5.97283 30.7951C6.09124 30.7404 6.22013 30.712 6.35058 30.712H58.6496C58.7797 30.7121 58.9082 30.7404 59.0263 30.7949C59.1444 30.8495 59.2493 30.929 59.3337 31.028C59.4182 31.127 59.4801 31.2432 59.5154 31.3684C59.5506 31.4937 59.5583 31.6251 59.5379 31.7536L56.126 53.2098C55.9609 54.2689 55.4217 55.2336 54.6063 55.929C53.7909 56.6244 52.7533 57.0044 51.6818 57ZM7.40538 32.5126L10.6508 52.9226C10.7494 53.5587 11.0729 54.1382 11.5624 54.556C12.0519 54.9738 12.6749 55.2021 13.3184 55.1994H51.6818C52.3249 55.2019 52.9477 54.9736 53.437 54.556C53.9262 54.1385 54.2497 53.5593 54.3485 52.9235L57.5948 32.5126H7.40538Z" stroke="#3B4255" stroke-width="0.6" mask="url(#path-1-outside-1)"/>
<path d="M43.6276 50.5109C43.5839 50.5109 43.5403 50.5079 43.4971 50.5019C43.2609 50.4676 43.048 50.3408 42.9053 50.1496C42.7625 49.9583 42.7015 49.7181 42.7357 49.4818L44.4043 37.9809C44.4194 37.8623 44.458 37.7479 44.5177 37.6444C44.5775 37.5409 44.6573 37.4503 44.7524 37.378C44.8475 37.3057 44.9561 37.253 45.0718 37.2231C45.1875 37.1932 45.308 37.1866 45.4262 37.2037C45.5445 37.2209 45.6582 37.2614 45.7606 37.323C45.863 37.3846 45.9522 37.4659 46.0228 37.5623C46.0935 37.6587 46.1443 37.7682 46.1722 37.8844C46.2001 38.0006 46.2046 38.1213 46.1854 38.2392L44.5177 49.7393C44.4868 49.9535 44.3798 50.1493 44.2163 50.291C44.0529 50.4326 43.8439 50.5107 43.6276 50.5109Z" stroke="#3B4255" stroke-width="0.6" mask="url(#path-1-outside-1)"/>
<path d="M32.5001 50.5109C32.2614 50.5109 32.0324 50.416 31.8637 50.2472C31.6949 50.0784 31.6001 49.8494 31.6001 49.6106V38.1087C31.6001 37.87 31.6949 37.641 31.8637 37.4721C32.0324 37.3033 32.2614 37.2085 32.5001 37.2085C32.7388 37.2085 32.9677 37.3033 33.1365 37.4721C33.3052 37.641 33.4001 37.87 33.4001 38.1087V49.6106C33.4001 49.8494 33.3052 50.0784 33.1365 50.2472C32.9677 50.416 32.7388 50.5109 32.5001 50.5109Z" stroke="#3B4255" stroke-width="0.6" mask="url(#path-1-outside-1)"/>
<path d="M21.3724 50.5108C21.1564 50.5105 20.9477 50.4325 20.7845 50.291C20.6212 50.1495 20.5143 49.954 20.4832 49.7402L18.8137 38.2383C18.7945 38.1203 18.799 37.9997 18.8269 37.8835C18.8548 37.7673 18.9056 37.6578 18.9763 37.5614C19.0469 37.465 19.1361 37.3836 19.2385 37.3221C19.3409 37.2605 19.4546 37.22 19.5728 37.2028C19.6911 37.1856 19.8116 37.1922 19.9273 37.2221C20.043 37.2521 20.1516 37.3047 20.2467 37.3771C20.3418 37.4494 20.4216 37.54 20.4814 37.6435C20.5411 37.747 20.5797 37.8614 20.5948 37.9799L22.2634 49.4809C22.2976 49.7172 22.2366 49.9573 22.0938 50.1486C21.951 50.3399 21.7382 50.4666 21.502 50.5009C21.4591 50.5072 21.4158 50.5105 21.3724 50.5108Z" stroke="#3B4255" stroke-width="0.6" mask="url(#path-1-outside-1)"/>
<path d="M54.6104 25.2816C54.4379 25.2818 54.2691 25.2324 54.1239 25.1394C53.9787 25.0463 53.8633 24.9135 53.7914 24.7567L44.3891 4.25394C44.1134 3.65337 43.6107 3.18684 42.9913 2.95692C42.3719 2.72699 41.6866 2.75248 41.0861 3.02777C40.6528 3.23002 40.2859 3.55141 40.0284 3.9544C39.7709 4.3574 39.6333 4.82537 39.6317 5.30366C39.6311 5.66164 39.7091 6.01537 39.8603 6.33987L47.9729 24.005C48.0222 24.1125 48.0499 24.2286 48.0544 24.3468C48.0588 24.465 48.04 24.5829 47.9989 24.6938C47.9579 24.8047 47.8954 24.9064 47.815 24.9931C47.7346 25.0798 47.6379 25.1499 47.5305 25.1992C47.4231 25.2486 47.307 25.2763 47.1888 25.2808C47.0707 25.2852 46.9528 25.2664 46.842 25.2253C46.7311 25.1842 46.6294 25.1217 46.5427 25.0413C46.456 24.9609 46.386 24.8642 46.3367 24.7567L38.2241 7.0925C37.9643 6.53166 37.8301 5.92086 37.8308 5.30276C37.8332 4.48079 38.0695 3.67649 38.5121 2.98393C38.9547 2.29137 39.5852 1.73919 40.3301 1.39198C40.8424 1.1565 41.3962 1.02434 41.9596 1.00306C42.5231 0.981772 43.0852 1.07177 43.6139 1.26792C44.1425 1.46407 44.6274 1.76251 45.0407 2.14619C45.454 2.52988 45.7876 2.99128 46.0226 3.50402L55.4285 24.0059C55.4913 24.143 55.5188 24.2937 55.5082 24.4442C55.4977 24.5946 55.4496 24.7401 55.3682 24.8671C55.2869 24.994 55.1749 25.0986 55.0426 25.171C54.9104 25.2434 54.7611 25.2815 54.6104 25.2816Z" stroke="#3B4255" stroke-width="0.6" mask="url(#path-1-outside-1)"/>
<path d="M10.3897 25.2815C10.2389 25.2814 10.0906 25.2434 9.95832 25.1709C9.82606 25.0985 9.71411 24.994 9.63275 24.867C9.5514 24.74 9.50325 24.5946 9.49272 24.4441C9.4822 24.2937 9.50963 24.143 9.57251 24.0059L18.9748 3.50306C19.4491 2.46851 20.3148 1.66475 21.3815 1.26852C22.4481 0.87229 23.6284 0.91603 24.6628 1.39012C25.409 1.73665 26.041 2.28873 26.4848 2.98169C26.9286 3.67465 27.1657 4.47977 27.1684 5.30271C27.1693 5.92141 27.0351 6.53284 26.7751 7.09425L18.6634 24.7567C18.5638 24.9737 18.382 25.1423 18.1581 25.2253C17.9342 25.3082 17.6865 25.2989 17.4696 25.1992C17.2526 25.0995 17.0841 24.9177 17.0011 24.6937C16.9182 24.4698 16.9276 24.222 17.0272 24.005L25.1398 6.34072C25.2915 6.01573 25.3698 5.66136 25.3693 5.30271C25.3677 4.82362 25.2295 4.35492 24.9712 3.95153C24.7128 3.54813 24.3448 3.22675 23.9104 3.02502C23.31 2.75097 22.6254 2.72635 22.0069 2.95656C21.3883 3.18677 20.8863 3.65301 20.611 4.25299L11.2087 24.7567C11.1368 24.9135 11.0214 25.0463 10.8762 25.1393C10.731 25.2324 10.5621 25.2817 10.3897 25.2815Z" stroke="#3B4255" stroke-width="0.6" mask="url(#path-1-outside-1)"/>
</svg>
