<svg width="119" height="98" fill="none" xmlns="http://www.w3.org/2000/svg"><path d="M3.529 55.964h4.016l4.542 27.294c1.405 8.448 8.631 14.579 17.181 14.579H89.5c8.544 0 16.03-6.268 17.413-14.579l4.542-27.294h4.016a3.487 3.487 0 0 0 3.484-3.489V38.517a3.487 3.487 0 0 0-3.484-3.489H89.342l-19.887-33.2a3.48 3.48 0 0 0-4.78-1.196 3.493 3.493 0 0 0-1.195 4.787l17.737 29.61H37.783L55.52 5.418A3.493 3.493 0 0 0 54.325.632a3.48 3.48 0 0 0-4.78 1.197l-19.887 33.2H3.528a3.487 3.487 0 0 0-3.483 3.488v13.958c0 1.927 1.56 3.49 3.484 3.49zm96.512 26.147c-.83 4.987-5.361 8.747-10.541 8.747H29.268c-5.13 0-9.466-3.678-10.309-8.747l-4.35-26.147h89.783l-4.351 26.147zM7.013 42.007h104.975v6.979H7.013v-6.98z" fill="#61DB45"/><path d="M33.965 80.68a3.485 3.485 0 0 0 3.761 3.187 3.488 3.488 0 0 0 3.182-3.767l-1.16-13.957a3.484 3.484 0 1 0-6.944.58l1.161 13.957zm47.309 3.187a3.485 3.485 0 0 0 3.761-3.187l1.161-13.958a3.484 3.484 0 0 0-6.943-.58L78.092 80.1a3.488 3.488 0 0 0 3.182 3.767zM59.5 83.88a3.487 3.487 0 0 0 3.484-3.49V66.432a3.487 3.487 0 0 0-3.484-3.489 3.487 3.487 0 0 0-3.484 3.49V80.39c0 1.927 1.56 3.49 3.484 3.49z" fill="#61DB45"/></svg>