<svg fill="none" xmlns="http://www.w3.org/2000/svg" viewBox="0 0 170 187"><path d="M164.578 42.108h-42.737V28.895a27.796 27.796 0 0 0-3.854-14.137A27.934 27.934 0 0 0 107.471 4.52a28.067 28.067 0 0 0-28.366.67 28.065 28.065 0 0 0-28.366-.67 27.934 27.934 0 0 0-10.517 10.238 27.798 27.798 0 0 0-3.854 14.137v13.213H5.421a4.43 4.43 0 0 0-3.126 1.29A4.396 4.396 0 0 0 1 46.513v135.069c0 1.168.466 2.289 1.295 3.115a4.43 4.43 0 0 0 3.126 1.29H117.42c.169-.001.338-.011.506-.031.043-.005.086-.014.13-.02.127-.018.252-.041.375-.069.02-.005.041-.007.061-.012l22.507-5.605 22.506 5.605c2.68.745 5.569-1.494 5.494-4.273V46.512a4.394 4.394 0 0 0-1.295-3.114 4.424 4.424 0 0 0-3.126-1.29zm-51.579-13.213v13.213H92.368V28.895a27.693 27.693 0 0 0-6.203-17.482 19.212 19.212 0 0 1 18.166 1.506 19.104 19.104 0 0 1 6.364 6.894 19.01 19.01 0 0 1 2.304 9.082zm-33.894-12.18a18.955 18.955 0 0 1 4.42 12.18v13.213h-8.841V28.895a18.954 18.954 0 0 1 4.42-12.18zM45.21 28.894a19.02 19.02 0 0 1 2.304-9.082 19.104 19.104 0 0 1 6.364-6.894 19.212 19.212 0 0 1 18.166-1.506 27.694 27.694 0 0 0-6.203 17.482v13.213h-20.63V28.895zM9.842 177.178V50.918h26.526v24.958c0 1.168.466 2.288 1.295 3.114a4.43 4.43 0 0 0 6.252 0 4.396 4.396 0 0 0 1.295-3.114V50.917h38.316v24.959c0 1.168.465 2.288 1.295 3.114a4.43 4.43 0 0 0 6.252 0 4.396 4.396 0 0 0 1.295-3.114V50.917h20.631v126.261H9.842zm150.315-1.237l-18.086-4.504a4.443 4.443 0 0 0-2.144 0l-18.086 4.504V50.917h14.737v24.959c0 1.168.466 2.288 1.295 3.114a4.43 4.43 0 0 0 6.252 0 4.397 4.397 0 0 0 1.295-3.114V50.917h14.737v125.024z" fill="url(#paint0_linear)"/><path d="M140.999 100.834a4.428 4.428 0 0 0-3.126 1.29 4.396 4.396 0 0 0-1.295 3.115v52.853c0 1.168.466 2.288 1.295 3.114a4.43 4.43 0 0 0 6.252 0 4.396 4.396 0 0 0 1.295-3.114v-52.853a4.396 4.396 0 0 0-1.295-3.115 4.43 4.43 0 0 0-3.126-1.29z" fill="url(#paint1_linear)"/><path d="M90.715 90.38l-58.947 58.725c-4.116 3.983 2.257 10.328 6.252 6.229l58.947-58.726a4.396 4.396 0 0 0-.025-6.204 4.43 4.43 0 0 0-6.227-.025z" fill="url(#paint2_linear)"/><path d="M82.052 124.324c-3.206 0-6.34.948-9.006 2.722a16.165 16.165 0 0 0-5.97 7.248 16.094 16.094 0 0 0-.923 9.331 16.136 16.136 0 0 0 4.436 8.269 16.254 16.254 0 0 0 17.666 3.5 16.195 16.195 0 0 0 7.275-5.948 16.104 16.104 0 0 0 2.732-8.972 16.135 16.135 0 0 0-4.753-11.414 16.26 16.26 0 0 0-11.457-4.736zm0 23.491a7.393 7.393 0 0 1-4.094-1.237 7.347 7.347 0 0 1-2.713-3.295 7.313 7.313 0 0 1-.42-4.241 7.335 7.335 0 0 1 2.017-3.759 7.387 7.387 0 0 1 11.336 1.113 7.32 7.32 0 0 1 1.242 4.078 7.335 7.335 0 0 1-2.16 5.188 7.387 7.387 0 0 1-5.208 2.153z" fill="url(#paint3_linear)"/><path d="M46.684 121.388c3.206 0 6.34-.947 9.006-2.722a16.158 16.158 0 0 0 5.97-7.247 16.094 16.094 0 0 0 .923-9.331 16.131 16.131 0 0 0-4.437-8.269 16.23 16.23 0 0 0-8.3-4.42 16.267 16.267 0 0 0-9.366.92 16.198 16.198 0 0 0-7.275 5.947 16.106 16.106 0 0 0-2.732 8.973 16.138 16.138 0 0 0 4.754 11.414 16.263 16.263 0 0 0 11.457 4.735zm0-23.49c1.457 0 2.882.43 4.094 1.237a7.348 7.348 0 0 1 2.713 3.294 7.318 7.318 0 0 1-1.597 8 7.372 7.372 0 0 1-3.773 2.009 7.4 7.4 0 0 1-4.257-.417 7.367 7.367 0 0 1-3.307-2.704 7.322 7.322 0 0 1-1.242-4.078 7.337 7.337 0 0 1 2.161-5.189 7.392 7.392 0 0 1 5.208-2.152z" fill="url(#paint4_linear)"/><path d="M164.578 42.108h-42.737V28.895a27.796 27.796 0 0 0-3.854-14.137A27.934 27.934 0 0 0 107.471 4.52a28.067 28.067 0 0 0-28.366.67 28.065 28.065 0 0 0-28.366-.67 27.934 27.934 0 0 0-10.517 10.238 27.798 27.798 0 0 0-3.854 14.137v13.213H5.421a4.43 4.43 0 0 0-3.126 1.29A4.396 4.396 0 0 0 1 46.513v135.069c0 1.168.466 2.289 1.295 3.115a4.43 4.43 0 0 0 3.126 1.29H117.42c.169-.001.338-.011.506-.031.043-.005.086-.014.13-.02.127-.018.252-.041.375-.069.02-.005.041-.007.061-.012l22.507-5.605 22.506 5.605c2.68.745 5.569-1.494 5.494-4.273V46.512a4.394 4.394 0 0 0-1.295-3.114 4.424 4.424 0 0 0-3.126-1.29zm-51.579-13.213v13.213H92.368V28.895a27.693 27.693 0 0 0-6.203-17.482 19.212 19.212 0 0 1 18.166 1.506 19.104 19.104 0 0 1 6.364 6.894 19.01 19.01 0 0 1 2.304 9.082zm-33.894-12.18a18.955 18.955 0 0 1 4.42 12.18v13.213h-8.841V28.895a18.954 18.954 0 0 1 4.42-12.18zM45.21 28.894a19.02 19.02 0 0 1 2.304-9.082 19.104 19.104 0 0 1 6.364-6.894 19.212 19.212 0 0 1 18.166-1.506 27.694 27.694 0 0 0-6.203 17.482v13.213h-20.63V28.895zM9.842 177.178V50.918h26.526v24.958c0 1.168.466 2.288 1.295 3.114a4.43 4.43 0 0 0 6.252 0 4.396 4.396 0 0 0 1.295-3.114V50.917h38.316v24.959c0 1.168.465 2.288 1.295 3.114a4.43 4.43 0 0 0 6.252 0 4.396 4.396 0 0 0 1.295-3.114V50.917h20.631v126.261H9.842zm150.315-1.237l-18.086-4.504a4.443 4.443 0 0 0-2.144 0l-18.086 4.504V50.917h14.737v24.959c0 1.168.466 2.288 1.295 3.114a4.43 4.43 0 0 0 6.252 0 4.397 4.397 0 0 0 1.295-3.114V50.917h14.737v125.024z" stroke="#3B4255" stroke-width="3"/><path d="M140.999 100.834a4.428 4.428 0 0 0-3.126 1.29 4.396 4.396 0 0 0-1.295 3.115v52.853c0 1.168.466 2.288 1.295 3.114a4.43 4.43 0 0 0 6.252 0 4.396 4.396 0 0 0 1.295-3.114v-52.853a4.396 4.396 0 0 0-1.295-3.115 4.43 4.43 0 0 0-3.126-1.29zM90.715 90.379l-58.947 58.726c-4.116 3.983 2.257 10.328 6.252 6.229l58.947-58.726a4.396 4.396 0 0 0-.025-6.204 4.43 4.43 0 0 0-6.227-.025zm-8.663 33.945c-3.206 0-6.34.948-9.006 2.722a16.165 16.165 0 0 0-5.97 7.248 16.094 16.094 0 0 0-.923 9.331 16.136 16.136 0 0 0 4.436 8.269 16.254 16.254 0 0 0 17.666 3.5 16.195 16.195 0 0 0 7.275-5.948 16.104 16.104 0 0 0 2.732-8.972 16.135 16.135 0 0 0-4.753-11.414 16.26 16.26 0 0 0-11.457-4.736zm0 23.491a7.393 7.393 0 0 1-4.094-1.237 7.347 7.347 0 0 1-2.713-3.295 7.313 7.313 0 0 1-.42-4.241 7.335 7.335 0 0 1 2.017-3.759 7.387 7.387 0 0 1 11.336 1.113 7.32 7.32 0 0 1 1.242 4.078 7.335 7.335 0 0 1-2.16 5.188 7.387 7.387 0 0 1-5.208 2.153zm-35.368-26.427c3.206 0 6.34-.947 9.006-2.722a16.158 16.158 0 0 0 5.97-7.247 16.094 16.094 0 0 0 .923-9.331 16.131 16.131 0 0 0-4.437-8.269 16.23 16.23 0 0 0-8.3-4.42 16.267 16.267 0 0 0-9.366.92 16.198 16.198 0 0 0-7.275 5.947 16.106 16.106 0 0 0-2.732 8.973 16.138 16.138 0 0 0 4.754 11.414 16.263 16.263 0 0 0 11.457 4.735zm0-23.49c1.457 0 2.882.43 4.094 1.237a7.348 7.348 0 0 1 2.713 3.294 7.318 7.318 0 0 1-1.597 8 7.372 7.372 0 0 1-3.773 2.009 7.4 7.4 0 0 1-4.257-.417 7.367 7.367 0 0 1-3.307-2.704 7.322 7.322 0 0 1-1.242-4.078 7.337 7.337 0 0 1 2.161-5.189 7.392 7.392 0 0 1 5.208-2.152z" stroke="#3B4255" stroke-width="3"/><defs><linearGradient id="paint0_linear" x1="139.5" y1="4.5" x2="11" y2="197.5" gradientUnits="userSpaceOnUse"><stop offset=".438" stop-color="#FEC422"/><stop offset="1" stop-color="#C522FE"/></linearGradient><linearGradient id="paint1_linear" x1="139.5" y1="4.5" x2="11" y2="197.5" gradientUnits="userSpaceOnUse"><stop offset=".438" stop-color="#FEC422"/><stop offset="1" stop-color="#C522FE"/></linearGradient><linearGradient id="paint2_linear" x1="139.5" y1="4.5" x2="11" y2="197.5" gradientUnits="userSpaceOnUse"><stop offset=".438" stop-color="#FEC422"/><stop offset="1" stop-color="#C522FE"/></linearGradient><linearGradient id="paint3_linear" x1="139.5" y1="4.5" x2="11" y2="197.5" gradientUnits="userSpaceOnUse"><stop offset=".438" stop-color="#FEC422"/><stop offset="1" stop-color="#C522FE"/></linearGradient><linearGradient id="paint4_linear" x1="139.5" y1="4.5" x2="11" y2="197.5" gradientUnits="userSpaceOnUse"><stop offset=".438" stop-color="#FEC422"/><stop offset="1" stop-color="#C522FE"/></linearGradient></defs></svg>