<svg fill="none" xmlns="http://www.w3.org/2000/svg" viewBox="0 0 170 187">
  <path d="M164.578 42.1082h-42.737V28.8948c.003-4.9701-1.327-9.8508-3.854-14.1364-2.527-4.2856-6.157-7.82026-10.516-10.23794-4.359-2.41769-9.2874-3.630432-14.2749-3.51263-4.9874.11781-9.8526 1.56188-14.0915 4.18265-4.2389-2.62077-9.1041-4.06484-14.0915-4.18265-4.9875-.117802-9.9159 1.09494-14.2747 3.51263-4.3588 2.41768-7.9896 5.95234-10.5163 10.23794-2.5266 4.2856-3.8572 9.1663-3.854 14.1364v13.2134H5.42101c-1.17252 0-2.29702.464-3.12612 1.29C1.46578 44.2242 1 45.3445 1 46.5126V181.582c0 1.168.46578 2.289 1.29489 3.115.8291.826 1.9536 1.29 3.12612 1.29H117.42c.169-.001.338-.011.506-.031.043-.005.086-.014.13-.02.127-.018.252-.041.375-.069.02-.005.041-.007.061-.012l22.507-5.605 22.506 5.605c2.68.745 5.569-1.494 5.494-4.273V46.5126c0-.5784-.115-1.1511-.337-1.6855-.222-.5344-.548-1.0199-.958-1.4289-.411-.409-.898-.7334-1.435-.9548-.536-.2213-1.111-.3352-1.691-.3352zm-51.579-13.2134v13.2134H92.3676V28.8948c.0049-6.3632-2.1849-12.5349-6.2027-17.4816 2.9151-1.2728 6.1026-1.80163 9.2744-1.53866 3.1717.26296 6.2277 1.30946 8.8917 3.04476 2.663 1.7354 4.851 4.1049 6.364 6.8942 1.514 2.7894 2.306 5.9105 2.304 9.0813zM79.1046 16.7143c2.8603 3.4189 4.425 7.7298 4.421 12.1805v13.2134h-8.842V28.8948c-.004-4.4507 1.5606-8.7616 4.421-12.1805zM45.2101 28.8948c-.0016-3.1708.7901-6.2919 2.3036-9.0813 1.5135-2.7893 3.701-5.1588 6.3648-6.8942 2.6637-1.7353 5.7197-2.7818 8.8914-3.04476 3.1718-.26297 6.3593.26586 9.2743 1.53866-4.0177 4.9467-6.2075 11.1184-6.2027 17.4816v13.2134H45.2101V28.8948zM9.84203 177.178V50.9171H36.3681v24.9585c0 1.1681.4658 2.2884 1.2949 3.1144.8291.826 1.9536 1.29 3.1261 1.29 1.1726 0 2.2971-.464 3.1262-1.29.8291-.826 1.2948-1.9463 1.2948-3.1144V50.9171h38.3155v24.9585c0 1.1681.4658 2.2884 1.2949 3.1144.8291.826 1.9536 1.29 3.1261 1.29s2.297-.464 3.1261-1.29c.8291-.826 1.2949-1.9463 1.2949-3.1144V50.9171h20.6314V177.178H9.84203zm150.31497-1.237l-18.086-4.504c-.704-.175-1.44-.175-2.144 0l-18.086 4.504V50.9171h14.737v24.9585c0 1.1681.466 2.2884 1.295 3.1144.829.826 1.953 1.29 3.126 1.29 1.172 0 2.297-.464 3.126-1.29.829-.826 1.295-1.9463 1.295-3.1144V50.9171h14.737V175.941z" fill="url(#paint0_linear)"/>
  <path d="M140.999 100.834c-1.173 0-2.297.464-3.126 1.29-.829.826-1.295 1.946-1.295 3.115v52.853c0 1.168.466 2.288 1.295 3.114.829.826 1.953 1.29 3.126 1.29 1.172 0 2.297-.464 3.126-1.29.829-.826 1.295-1.946 1.295-3.114v-52.853c0-1.169-.466-2.289-1.295-3.115-.829-.826-1.954-1.29-3.126-1.29z" fill="url(#paint1_linear)"/>
  <path d="M90.7153 90.3791L31.7684 149.105c-4.1163 3.983 2.2566 10.328 6.2521 6.229l58.9468-58.7263c.818-.8283 1.2743-1.945 1.2695-3.1069-.0047-1.1619-.4701-2.2749-1.2948-3.0965-.8247-.8216-1.9419-1.2852-3.1082-1.29-1.1662-.0047-2.2871.4499-3.1185 1.2648z" fill="url(#paint2_linear)"  stroke-width="3"/>
  <path d="M82.0519 124.324c-3.2061 0-6.3402.948-9.006 2.722-2.6658 1.775-4.7435 4.297-5.9704 7.248-1.2269 2.951-1.548 6.198-.9225 9.331.6255 3.132 2.1694 6.01 4.4365 8.269 2.267 2.258 5.1554 3.796 8.2999 4.419 3.1446.624 6.4039.304 9.366-.919 2.962-1.222 5.4937-3.292 7.275-5.948 1.7812-2.655 2.7319-5.778 2.7319-8.972-.0048-4.282-1.7142-8.387-4.7532-11.414-3.039-3.028-7.1594-4.731-11.4572-4.736zm0 23.491c-1.4573 0-2.8819-.431-4.0936-1.237-1.2117-.807-2.1561-1.953-2.7138-3.295-.5577-1.341-.7037-2.817-.4193-4.241.2843-1.424.986-2.732 2.0165-3.759 1.0305-1.026 2.3434-1.725 3.7727-2.009 1.4294-.283 2.9109-.137 4.2573.418 1.3464.556 2.4971 1.497 3.3068 2.704.8096 1.207 1.2418 2.626 1.2418 4.078-.0023 1.946-.7793 3.812-2.1606 5.188-1.3814 1.377-3.2542 2.151-5.2078 2.153z" fill="url(#paint3_linear)"  stroke-width="3"/>
  <path d="M46.6838 121.388c3.2061 0 6.3402-.947 9.006-2.722 2.6658-1.774 4.7435-4.296 5.9705-7.247 1.2269-2.951 1.5479-6.198.9224-9.331-.6255-3.1328-2.1693-6.0104-4.4364-8.269-2.2671-2.2585-5.1555-3.7966-8.3-4.4198-3.1445-.6231-6.4039-.3033-9.3659.919-2.9621 1.2224-5.4938 3.2923-7.275 5.9481-1.7812 2.6558-2.732 5.7777-2.732 8.9727.0048 4.281 1.7142 8.386 4.7532 11.414 3.039 3.027 7.1594 4.73 11.4572 4.735zm0-23.4902c1.4573 0 2.8819.4305 4.0937 1.2372 1.2117.8066 2.1561 1.953 2.7138 3.294.5577 1.342.7036 2.818.4193 4.242s-.9861 2.732-2.0166 3.758c-1.0305 1.027-2.3434 1.726-3.7727 2.009-1.4293.283-2.9108.138-4.2572-.417-1.3464-.556-2.4972-1.497-3.3069-2.704-.8096-1.207-1.2417-2.627-1.2417-4.078.0022-1.947.7792-3.812 2.1606-5.189 1.3813-1.3758 3.2542-2.1499 5.2077-2.1522z" fill="url(#paint4_linear)"  stroke-width="3"/>
  <path d="M164.578 42.1082h-42.737V28.8948c.003-4.9701-1.327-9.8508-3.854-14.1364-2.527-4.2856-6.157-7.82026-10.516-10.23794-4.359-2.41769-9.2874-3.630432-14.2749-3.51263-4.9874.11781-9.8526 1.56188-14.0915 4.18265-4.2389-2.62077-9.1041-4.06484-14.0915-4.18265-4.9875-.117802-9.9159 1.09494-14.2747 3.51263-4.3588 2.41768-7.9896 5.95234-10.5163 10.23794-2.5266 4.2856-3.8572 9.1663-3.854 14.1364v13.2134H5.42101c-1.17252 0-2.29702.464-3.12612 1.29C1.46578 44.2242 1 45.3445 1 46.5126V181.582c0 1.168.46578 2.289 1.29489 3.115.8291.826 1.9536 1.29 3.12612 1.29H117.42c.169-.001.338-.011.506-.031.043-.005.086-.014.13-.02.127-.018.252-.041.375-.069.02-.005.041-.007.061-.012l22.507-5.605 22.506 5.605c2.68.745 5.569-1.494 5.494-4.273V46.5126c0-.5784-.115-1.1511-.337-1.6855-.222-.5344-.548-1.0199-.958-1.4289-.411-.409-.898-.7334-1.435-.9548-.536-.2213-1.111-.3352-1.691-.3352zm-51.579-13.2134v13.2134H92.3676V28.8948c.0049-6.3632-2.1849-12.5349-6.2027-17.4816 2.9151-1.2728 6.1026-1.80163 9.2744-1.53866 3.1717.26296 6.2277 1.30946 8.8917 3.04476 2.663 1.7354 4.851 4.1049 6.364 6.8942 1.514 2.7894 2.306 5.9105 2.304 9.0813zM79.1046 16.7143c2.8603 3.4189 4.425 7.7298 4.421 12.1805v13.2134h-8.842V28.8948c-.004-4.4507 1.5606-8.7616 4.421-12.1805zM45.2101 28.8948c-.0016-3.1708.7901-6.2919 2.3036-9.0813 1.5135-2.7893 3.701-5.1588 6.3648-6.8942 2.6637-1.7353 5.7197-2.7818 8.8914-3.04476 3.1718-.26297 6.3593.26586 9.2743 1.53866-4.0177 4.9467-6.2075 11.1184-6.2027 17.4816v13.2134H45.2101V28.8948zM9.84203 177.178V50.9171H36.3681v24.9585c0 1.1681.4658 2.2884 1.2949 3.1144.8291.826 1.9536 1.29 3.1261 1.29 1.1726 0 2.2971-.464 3.1262-1.29.8291-.826 1.2948-1.9463 1.2948-3.1144V50.9171h38.3155v24.9585c0 1.1681.4658 2.2884 1.2949 3.1144.8291.826 1.9536 1.29 3.1261 1.29s2.297-.464 3.1261-1.29c.8291-.826 1.2949-1.9463 1.2949-3.1144V50.9171h20.6314V177.178H9.84203zm150.31497-1.237l-18.086-4.504c-.704-.175-1.44-.175-2.144 0l-18.086 4.504V50.9171h14.737v24.9585c0 1.1681.466 2.2884 1.295 3.1144.829.826 1.953 1.29 3.126 1.29 1.172 0 2.297-.464 3.126-1.29.829-.826 1.295-1.9463 1.295-3.1144V50.9171h14.737V175.941z" stroke="#3B4255"  stroke-width="3"/>
  <path d="M140.999 100.834c-1.173 0-2.297.464-3.126 1.29-.829.826-1.295 1.946-1.295 3.115v52.853c0 1.168.466 2.288 1.295 3.114.829.826 1.953 1.29 3.126 1.29 1.172 0 2.297-.464 3.126-1.29.829-.826 1.295-1.946 1.295-3.114v-52.853c0-1.169-.466-2.289-1.295-3.115-.829-.826-1.954-1.29-3.126-1.29zM90.7153 90.3791L31.7684 149.105c-4.1163 3.983 2.2566 10.328 6.2521 6.229l58.9468-58.7263c.818-.8283 1.2743-1.945 1.2695-3.1069-.0047-1.1619-.4701-2.2749-1.2948-3.0965-.8247-.8216-1.9419-1.2852-3.1082-1.29-1.1662-.0047-2.2871.4499-3.1185 1.2648zM82.0519 124.324c-3.2061 0-6.3402.948-9.006 2.722-2.6658 1.775-4.7435 4.297-5.9704 7.248-1.2269 2.951-1.548 6.198-.9225 9.331.6255 3.132 2.1694 6.01 4.4365 8.269 2.267 2.258 5.1554 3.796 8.2999 4.419 3.1446.624 6.4039.304 9.366-.919 2.962-1.222 5.4937-3.292 7.275-5.948 1.7812-2.655 2.7319-5.778 2.7319-8.972-.0048-4.282-1.7142-8.387-4.7532-11.414-3.039-3.028-7.1594-4.731-11.4572-4.736zm0 23.491c-1.4573 0-2.8819-.431-4.0936-1.237-1.2117-.807-2.1561-1.953-2.7138-3.295-.5577-1.341-.7037-2.817-.4193-4.241.2843-1.424.986-2.732 2.0165-3.759 1.0305-1.026 2.3434-1.725 3.7727-2.009 1.4294-.283 2.9109-.137 4.2573.418 1.3464.556 2.4971 1.497 3.3068 2.704.8096 1.207 1.2418 2.626 1.2418 4.078-.0023 1.946-.7793 3.812-2.1606 5.188-1.3814 1.377-3.2542 2.151-5.2078 2.153zM46.6838 121.388c3.2061 0 6.3402-.947 9.006-2.722 2.6658-1.774 4.7435-4.296 5.9705-7.247 1.2269-2.951 1.5479-6.198.9224-9.331-.6255-3.1328-2.1693-6.0104-4.4364-8.269-2.2671-2.2585-5.1555-3.7966-8.3-4.4198-3.1445-.6231-6.4039-.3033-9.3659.919-2.9621 1.2224-5.4938 3.2923-7.275 5.9481-1.7812 2.6558-2.732 5.7777-2.732 8.9727.0048 4.281 1.7142 8.386 4.7532 11.414 3.039 3.027 7.1594 4.73 11.4572 4.735zm0-23.4902c1.4573 0 2.8819.4305 4.0937 1.2372 1.2117.8066 2.1561 1.953 2.7138 3.294.5577 1.342.7036 2.818.4193 4.242s-.9861 2.732-2.0166 3.758c-1.0305 1.027-2.3434 1.726-3.7727 2.009-1.4293.283-2.9108.138-4.2572-.417-1.3464-.556-2.4972-1.497-3.3069-2.704-.8096-1.207-1.2417-2.627-1.2417-4.078.0022-1.947.7792-3.812 2.1606-5.189 1.3813-1.3758 3.2542-2.1499 5.2077-2.1522z" stroke="#3B4255"  stroke-width="3"/>
  <defs>
    <linearGradient id="paint0_linear" x1="139.5" y1="4.49999" x2="11" y2="197.5" gradientUnits="userSpaceOnUse">
      <stop offset=".4375" stop-color="#FEC422"/>
      <stop offset="1" stop-color="#C522FE"/>
    </linearGradient>
    <linearGradient id="paint1_linear" x1="139.5" y1="4.49999" x2="11" y2="197.5" gradientUnits="userSpaceOnUse">
      <stop offset=".4375" stop-color="#FEC422"/>
      <stop offset="1" stop-color="#C522FE"/>
    </linearGradient>
    <linearGradient id="paint2_linear" x1="139.5" y1="4.49999" x2="11" y2="197.5" gradientUnits="userSpaceOnUse">
      <stop offset=".4375" stop-color="#FEC422"/>
      <stop offset="1" stop-color="#C522FE"/>
    </linearGradient>
    <linearGradient id="paint3_linear" x1="139.5" y1="4.49999" x2="11" y2="197.5" gradientUnits="userSpaceOnUse">
      <stop offset=".4375" stop-color="#FEC422"/>
      <stop offset="1" stop-color="#C522FE"/>
    </linearGradient>
    <linearGradient id="paint4_linear" x1="139.5" y1="4.49999" x2="11" y2="197.5" gradientUnits="userSpaceOnUse">
      <stop offset=".4375" stop-color="#FEC422"/>
      <stop offset="1" stop-color="#C522FE"/>
    </linearGradient>
  </defs>
</svg>




