<svg fill="none" xmlns="http://www.w3.org/2000/svg" viewBox="0 0 162 187"><path d="M79.79 93.436c12.691 0 23.679-4.554 32.66-13.54 8.978-8.985 13.531-19.979 13.531-32.68 0-12.695-4.552-23.69-13.532-32.678C103.468 5.555 92.479 1 79.79 1 67.097 1 56.11 5.555 47.131 14.54 38.152 23.523 33.6 34.52 33.6 47.216c0 12.7 4.553 23.695 13.532 32.68 8.983 8.983 19.97 13.54 32.659 13.54zM55.08 22.491c6.889-6.894 14.971-10.246 24.71-10.246 9.737 0 17.821 3.352 24.712 10.246 6.89 6.895 10.241 14.984 10.241 24.726 0 9.744-3.351 17.832-10.241 24.727-6.891 6.896-14.975 10.247-24.712 10.247-9.736 0-17.818-3.353-24.71-10.247-6.892-6.894-10.243-14.983-10.243-24.727 0-9.742 3.35-17.83 10.242-24.726z" fill="url(#paint0_linear)"/><path d="M160.612 141.663c-.259-3.739-.783-7.818-1.554-12.125-.778-4.34-1.78-8.442-2.98-12.191a60.284 60.284 0 0 0-5.01-11.37c-2.161-3.806-4.701-7.12-7.551-9.848-2.98-2.854-6.63-5.148-10.849-6.821-4.205-1.665-8.865-2.508-13.85-2.508-1.958 0-3.851.804-7.508 3.186-2.25 1.468-4.882 3.166-7.82 5.044-2.512 1.602-5.916 3.103-10.12 4.462-4.1 1.327-8.264 2.001-12.376 2.001-4.108 0-8.272-.674-12.376-2.002-4.2-1.357-7.604-2.857-10.112-4.459-2.91-1.86-5.544-3.56-7.828-5.048-3.653-2.382-5.547-3.186-7.504-3.186-4.987 0-9.645.845-13.85 2.511-4.216 1.67-7.866 3.965-10.85 6.821-2.85 2.729-5.39 6.042-7.55 9.847a60.372 60.372 0 0 0-5.008 11.371c-1.198 3.75-2.2 7.85-2.979 12.19-.772 4.301-1.295 8.382-1.554 12.129A164.348 164.348 0 0 0 1 152.999c0 10.017 3.182 18.126 9.458 24.107C16.656 183.008 24.855 186 34.829 186h92.342c9.971 0 18.171-2.992 24.37-8.894 6.277-5.976 9.459-14.088 9.459-24.108a163.588 163.588 0 0 0-.388-11.335zm-16.82 27.296c-4.095 3.9-9.532 5.796-16.623 5.796h-92.34c-7.092 0-12.529-1.896-16.622-5.795-4.017-3.825-5.969-9.048-5.969-15.961 0-3.596.119-7.146.356-10.554.231-3.344.704-7.017 1.405-10.92.692-3.855 1.572-7.473 2.62-10.748a49.127 49.127 0 0 1 4.076-9.245c1.623-2.855 3.49-5.305 5.55-7.278 1.927-1.846 4.356-3.357 7.218-4.49 2.646-1.049 5.621-1.622 8.85-1.709.394.21 1.095.61 2.23 1.35 2.31 1.507 4.973 3.225 7.917 5.107 3.318 2.117 7.594 4.029 12.701 5.679 5.222 1.689 10.548 2.547 15.835 2.547 5.286 0 10.613-.858 15.832-2.546 5.112-1.653 9.386-3.563 12.709-5.683 3.013-1.927 5.601-3.596 7.911-5.104 1.136-.74 1.836-1.14 2.23-1.35 3.231.087 6.205.66 8.854 1.709 2.86 1.133 5.289 2.645 7.216 4.49 2.06 1.972 3.927 4.421 5.549 7.279a48.954 48.954 0 0 1 4.078 9.243c1.049 3.279 1.931 6.895 2.622 10.747.699 3.911 1.174 7.585 1.405 10.923v.003c.238 3.395.358 6.944.36 10.55-.002 6.915-1.954 12.136-5.97 15.96z" fill="url(#paint1_linear)"/><path d="M79.79 93.436c12.691 0 23.679-4.554 32.66-13.54 8.978-8.985 13.531-19.979 13.531-32.68 0-12.695-4.552-23.69-13.532-32.678C103.468 5.555 92.479 1 79.79 1 67.097 1 56.11 5.555 47.131 14.54 38.152 23.523 33.6 34.52 33.6 47.216c0 12.7 4.553 23.695 13.532 32.68 8.983 8.983 19.97 13.54 32.659 13.54zM55.08 22.491c6.889-6.894 14.971-10.246 24.71-10.246 9.737 0 17.821 3.352 24.712 10.246 6.89 6.895 10.241 14.984 10.241 24.726 0 9.744-3.351 17.832-10.241 24.727-6.891 6.896-14.975 10.247-24.712 10.247-9.736 0-17.818-3.353-24.71-10.247-6.892-6.894-10.243-14.983-10.243-24.727 0-9.742 3.35-17.83 10.242-24.726z" stroke="#3B4255" stroke-width="5"/><path d="M160.612 141.663c-.259-3.739-.783-7.818-1.554-12.125-.778-4.34-1.78-8.442-2.98-12.191a60.284 60.284 0 0 0-5.01-11.37c-2.161-3.806-4.701-7.12-7.551-9.848-2.98-2.854-6.63-5.148-10.849-6.821-4.205-1.665-8.865-2.508-13.85-2.508-1.958 0-3.851.804-7.508 3.186-2.25 1.468-4.882 3.166-7.82 5.044-2.512 1.602-5.916 3.103-10.12 4.462-4.1 1.327-8.264 2.001-12.376 2.001-4.108 0-8.272-.674-12.376-2.002-4.2-1.357-7.604-2.857-10.112-4.459-2.91-1.86-5.544-3.56-7.828-5.048-3.653-2.382-5.547-3.186-7.504-3.186-4.987 0-9.645.845-13.85 2.511-4.216 1.67-7.866 3.965-10.85 6.821-2.85 2.729-5.39 6.042-7.55 9.847a60.372 60.372 0 0 0-5.008 11.371c-1.198 3.75-2.2 7.85-2.979 12.19-.772 4.301-1.295 8.382-1.554 12.129A164.348 164.348 0 0 0 1 152.999c0 10.017 3.182 18.126 9.458 24.107C16.656 183.008 24.855 186 34.829 186h92.342c9.971 0 18.171-2.992 24.37-8.894 6.277-5.976 9.459-14.088 9.459-24.108a163.588 163.588 0 0 0-.388-11.335zm-16.82 27.296c-4.095 3.9-9.532 5.796-16.623 5.796h-92.34c-7.092 0-12.529-1.896-16.622-5.795-4.017-3.825-5.969-9.048-5.969-15.961 0-3.596.119-7.146.356-10.554.231-3.344.704-7.017 1.405-10.92.692-3.855 1.572-7.473 2.62-10.748a49.127 49.127 0 0 1 4.076-9.245c1.623-2.855 3.49-5.305 5.55-7.278 1.927-1.846 4.356-3.357 7.218-4.49 2.646-1.049 5.621-1.622 8.85-1.709.394.21 1.095.61 2.23 1.35 2.31 1.507 4.973 3.225 7.917 5.107 3.318 2.117 7.594 4.029 12.701 5.679 5.222 1.689 10.548 2.547 15.835 2.547 5.286 0 10.613-.858 15.832-2.546 5.112-1.653 9.386-3.563 12.709-5.683 3.013-1.927 5.601-3.596 7.911-5.104 1.136-.74 1.836-1.14 2.23-1.35 3.231.087 6.205.66 8.854 1.709 2.86 1.133 5.289 2.645 7.216 4.49 2.06 1.972 3.927 4.421 5.549 7.279a48.954 48.954 0 0 1 4.078 9.243c1.049 3.279 1.931 6.895 2.622 10.747.699 3.911 1.174 7.585 1.405 10.923v.003c.238 3.395.358 6.944.36 10.55-.002 6.915-1.954 12.136-5.97 15.96z" stroke="#3B4255" stroke-width="5"/><defs><linearGradient id="paint0_linear" x1="133.484" y1="-15.264" x2="1.501" y2="204.597" gradientUnits="userSpaceOnUse"><stop stop-color="#DB0626"/><stop offset="1" stop-color="#FF6B00"/></linearGradient><linearGradient id="paint1_linear" x1="133.484" y1="-15.264" x2="1.501" y2="204.597" gradientUnits="userSpaceOnUse"><stop stop-color="#DB0626"/><stop offset="1" stop-color="#FF6B00"/></linearGradient></defs></svg>