<svg fill="none" xmlns="http://www.w3.org/2000/svg" viewBox="0 0 181 180"><path d="M170.819 88.832V52.985c0-8.288-6.767-15.03-15.084-15.03h-5.112l1.133-3.925c1.846-6.386-1.848-13.043-8.257-14.882l-44.284-9.82a3.017 3.017 0 0 0-3.733 2.058 3.005 3.005 0 0 0 2.064 3.72l31.574 6.174a18.311 18.311 0 0 0-.067 16.674H65.99V14.28a3.012 3.012 0 0 0-3.017-3.006 3.012 3.012 0 0 0-3.017 3.006v23.674H49.775V14.28c0-1.66-1.35-3.006-3.017-3.006a3.012 3.012 0 0 0-3.016 3.006v23.674H30.544V12.025c0-3.315 2.707-6.012 6.033-6.012h50.906c3.327 0 6.034 2.697 6.034 6.012V28.56a3.01 3.01 0 0 0 3.016 3.006 3.012 3.012 0 0 0 3.017-3.006V12.024C99.55 5.395 94.137 0 87.483 0H36.577C29.923 0 24.51 5.394 24.51 12.025v25.93h-9.427C6.766 37.954 0 44.696 0 52.984V164.97C0 173.257 6.766 180 15.083 180h140.652c8.317 0 15.084-6.743 15.084-15.031v-37.067c0-1.661-1.351-3.007-3.017-3.007s-3.017 1.346-3.017 3.007v37.067c0 4.972-4.06 9.018-9.05 9.018H15.083c-4.99 0-9.05-4.046-9.05-9.018V52.985c0-4.972 4.06-9.018 9.05-9.018h140.652c4.99 0 9.05 4.046 9.05 9.018v35.7h-24.887c-6.654 0-12.067 5.394-12.067 12.025v16.534c0 6.631 5.413 12.025 12.067 12.025h29.043c6.625 0 12.059-5.376 12.059-12.025V100.71c0-5.992-4.42-10.973-10.181-11.877zm-35.736-65.841l6.747 1.935a6.006 6.006 0 0 1 4.128 7.441l-1.614 5.587h-8.063c-3.809-4.222-4.162-10.363-1.198-14.963zm39.884 94.253c0 3.315-2.707 6.013-6.034 6.013h-29.035c-3.327 0-6.033-2.698-6.033-6.013V100.71c0-3.315 2.706-6.013 6.033-6.013h29.035c3.327 0 6.034 2.698 6.034 6.013v16.534zm-23.757-8.267a3.01 3.01 0 0 1-3.016 3.006h-4.525a3.012 3.012 0 0 1-3.017-3.006 3.012 3.012 0 0 1 3.017-3.006h4.525a3.01 3.01 0 0 1 3.016 3.006z" fill="url(#paint0_linear)"/><defs><linearGradient id="paint0_linear" x1="149" y1="9.5" x2="7" y2="180" gradientUnits="userSpaceOnUse"><stop stop-color="#37CBCA"/><stop offset="1" stop-color="#66CB37"/></linearGradient></defs></svg>