<svg fill="none" xmlns="http://www.w3.org/2000/svg" viewBox="0 0 181 180">
  <path d="M170.819 88.8325V52.9854c0-8.2883-6.767-15.0313-15.084-15.0313h-5.112l1.133-3.9236c1.846-6.3864-1.848-13.0434-8.257-14.8825L99.2149 9.32881c-1.6015-.45921-3.2727.46184-3.7331 2.05739-.4612 1.5956.4634 3.2611 2.0645 3.7206l31.5737 6.173c-2.662 5.1678-2.759 11.3318-.067 16.6743H65.9896V14.2798c0-1.6603-1.3507-3.0063-3.0167-3.0063-1.6659 0-3.0166 1.346-3.0166 3.0063v23.6743H49.775V14.2798c0-1.6603-1.3507-3.0063-3.0167-3.0063-1.6659 0-3.0166 1.346-3.0166 3.0063v23.6743h-13.198v-25.929c0-3.3152 2.7068-6.01257 6.0334-6.01257h50.9062c3.3267 0 6.0334 2.69737 6.0334 6.01257v16.5344c0 1.6602 1.3507 3.0063 3.0166 3.0063 1.666 0 3.0167-1.3461 3.0167-3.0063V12.0251C99.55 5.39436 94.137 0 87.4833 0H36.5771c-6.6537 0-12.0667 5.39436-12.0667 12.0251v25.929h-9.4271C6.76638 37.9541 0 44.6971 0 52.9854V164.969C0 173.257 6.76638 180 15.0833 180H155.735c8.317 0 15.084-6.743 15.084-15.031v-37.067c0-1.661-1.351-3.007-3.017-3.007s-3.017 1.346-3.017 3.007v37.067c0 4.972-4.06 9.018-9.05 9.018H15.0833c-4.9899 0-9.04997-4.046-9.04997-9.018V52.9854c0-4.9727 4.06007-9.0188 9.04997-9.0188H155.735c4.99 0 9.05 4.0461 9.05 9.0188v35.6994h-24.887c-6.654 0-12.067 5.3943-12.067 12.0252v16.534c0 6.631 5.413 12.025 12.067 12.025h29.043c6.625 0 12.059-5.376 12.059-12.025V100.71c0-5.9917-4.42-10.9727-10.181-11.8775zm-35.736-65.8417l6.747 1.9356c3.205.9196 5.05 4.2475 4.128 7.4409l-1.614 5.5868h-8.063c-3.809-4.2223-4.162-10.3626-1.198-14.9633zm39.884 94.2532c0 3.315-2.707 6.013-6.034 6.013h-29.035c-3.327 0-6.033-2.698-6.033-6.013V100.71c0-3.3153 2.706-6.0127 6.033-6.0127h29.035c3.327 0 6.034 2.6974 6.034 6.0127v16.534zm-23.757-8.267c0 1.66-1.35 3.006-3.016 3.006h-4.525c-1.666 0-3.017-1.346-3.017-3.006 0-1.66 1.351-3.006 3.017-3.006h4.525c1.666 0 3.016 1.346 3.016 3.006z" fill="url(#paint0_linear)"/>
  <defs>
    <linearGradient id="paint0_linear" x1="149" y1="9.50001" x2="7" y2="180" gradientUnits="userSpaceOnUse">
      <stop stop-color="#37CBCA"/>
      <stop offset="1" stop-color="#66CB37"/>
    </linearGradient>
  </defs>
</svg>